<svg id="Layer_1" xmlns="http://www.w3.org/2000/svg" xmlns:xlink="http://www.w3.org/1999/xlink" version="1.1" viewBox="0 0 24 24">
  <defs>
    <style>
      .st1 {
        fill: #0D004D;
      }
      @media (prefers-color-scheme: dark) {
        .st1 {
          fill: #FFF;
        }
      }
    </style>
  </defs>
  <path class="st1" d="M9.2,0H1v24h4.1v-8.7h4.1c4.8,0,8-3.3,8-7.7S13.9,0,9.2,0ZM8.6,11.5h-3.5V3.9h3.5c2.8,0,4.3,1.5,4.3,3.8s-1.5,3.8-4.3,3.8Z"/>
  <path class="st1" d="M20.2,1.6s.3,2.2.3,6-.3,6-.3,6c1.5-1.6,2.4-3.7,2.4-6s-.9-4.5-2.4-6h0Z"/>
  <path class="st1" d="M20,5.6c-.3-1.2-.9-2.3-1.7-3.3-.7-.8-1.5-1.5-2.5-2,.9,1.5,1.5,4.2,1.5,7.3s-.6,5.9-1.5,7.3c0,0,0,0,0,0,.5-.3,1-.7,1.5-1,1.6-1.5,2.6-3.3,2.9-5.3,0-.3,0-.7,0-1.1,0-.7,0-1.4-.2-2.1Z"/>
</svg>
