<svg viewBox="0 0 18 18" xmlns="http://www.w3.org/2000/svg"><g fill="none" fill-rule="evenodd"><path d="M0 0h18v18H0z"/><path d="M4.477 1.207A8.835 8.835 0 019 0c1.633 0 3.139.402 4.518 1.207a8.96 8.96 0 013.275 3.275A8.804 8.804 0 0118 9a8.804 8.804 0 01-1.207 4.518 8.96 8.96 0 01-3.275 3.275A8.804 8.804 0 019 18a8.804 8.804 0 01-4.518-1.207 8.96 8.96 0 01-3.275-3.275A8.804 8.804 0 010 9c0-1.633.402-3.139 1.207-4.518a8.973 8.973 0 013.27-3.275zM10.5 14.613v-2.226a.385.385 0 00-.105-.276.342.342 0 00-.258-.111h-2.25a.37.37 0 00-.27.117.37.37 0 00-.117.27v2.226c0 .102.04.192.117.27a.37.37 0 00.27.117h2.25a.342.342 0 00.258-.111.385.385 0 00.105-.276zm-.023-4.031l.21-7.277a.23.23 0 00-.117-.211.436.436 0 00-.28-.094H7.71a.436.436 0 00-.28.094.23.23 0 00-.117.21l.199 7.278c0 .078.039.147.117.205a.455.455 0 00.281.088h2.168a.43.43 0 00.276-.088.296.296 0 00.123-.205z" fill="#003057"/></g></svg>