<svg viewBox="0 0 18 18" xmlns="http://www.w3.org/2000/svg"><g fill="none" fill-rule="evenodd"><path d="M0 0h18v18H0z"/><path d="M15.047 7.102a.73.73 0 00-.211-.54L13.77 5.508a.72.72 0 00-.528-.223.72.72 0 00-.527.223l-4.781 4.77-2.649-2.65a.72.72 0 00-.527-.222.72.72 0 00-.528.223L3.164 8.684a.73.73 0 00-.21.539c0 .21.07.386.21.527l4.242 4.242a.72.72 0 00.528.223c.21 0 .39-.074.539-.223l6.363-6.363c.14-.14.21-.316.21-.527zm1.746-2.614C17.598 5.863 18 7.368 18 9a8.804 8.804 0 01-1.207 4.518 8.96 8.96 0 01-3.275 3.275A8.804 8.804 0 019 18a8.804 8.804 0 01-4.518-1.207 8.96 8.96 0 01-3.275-3.275A8.804 8.804 0 010 9c0-1.633.402-3.139 1.207-4.518a8.96 8.96 0 013.275-3.275A8.804 8.804 0 019 0c1.633 0 3.139.402 4.518 1.207a8.946 8.946 0 013.275 3.281z" fill="#008638"/></g></svg>