<svg width="24" height="24" viewBox="0 0 24 24" fill="none" xmlns="http://www.w3.org/2000/svg">
<path d="M11.2969 18.7031C11.4844 18.8906 11.7188 18.9844 12 18.9844C12.2812 18.9844 12.5156 18.8906 12.7031 18.7031C12.8906 18.5156 12.9844 18.2812 12.9844 18C12.9844 17.7188 12.8906 17.4844 12.7031 17.2969C12.5156 17.1094 12.2812 17.0156 12 17.0156C11.7188 17.0156 11.4844 17.1094 11.2969 17.2969C11.1094 17.4844 11.0156 17.7188 11.0156 18C11.0156 18.2812 11.1094 18.5156 11.2969 18.7031ZM3.98438 5.01562V15.9844H20.0156V5.01562H3.98438ZM20.0156 18H24C24 18.5312 23.7969 19 23.3906 19.4062C22.9844 19.8125 22.5156 20.0156 21.9844 20.0156H2.01562C1.48438 20.0156 1.01563 19.8125 0.609375 19.4062C0.203125 19 0 18.5312 0 18H3.98438C3.45313 18 2.98438 17.7969 2.57812 17.3906C2.20312 16.9844 2.01562 16.5156 2.01562 15.9844V5.01562C2.01562 4.48438 2.20312 4.01563 2.57812 3.60938C2.98438 3.20312 3.45313 3 3.98438 3H20.0156C20.5469 3 21 3.20312 21.375 3.60938C21.7813 4.01563 21.9844 4.48438 21.9844 5.01562V15.9844C21.9844 16.5156 21.7813 16.9844 21.375 17.3906C21 17.7969 20.5469 18 20.0156 18Z" fill="#05112A"/>
</svg>
