<svg viewBox="0 0 18 18" xmlns="http://www.w3.org/2000/svg"><g fill="none" fill-rule="evenodd"><path d="M0 0h18v18H0z"/><path d="M10.284 14.296v-1.907a.32.32 0 00-.095-.235.309.309 0 00-.226-.096H8.037a.309.309 0 00-.226.096.32.32 0 00-.095.235v1.907a.32.32 0 00.095.236.309.309 0 00.226.095h1.926a.309.309 0 00.226-.095.32.32 0 00.095-.236zm-.02-3.753l.18-4.605a.22.22 0 00-.1-.19c-.086-.074-.167-.111-.24-.111H7.896c-.073 0-.154.037-.24.11-.067.047-.1.117-.1.211l.17 4.585c0 .067.033.122.1.166a.432.432 0 00.24.065h1.857a.408.408 0 00.236-.065.223.223 0 00.105-.166zm-.14-9.37l7.705 14.126c.234.422.228.843-.02 1.264a1.26 1.26 0 01-.466.462c-.198.114-.41.17-.637.17H1.294c-.227 0-.44-.056-.637-.17a1.26 1.26 0 01-.466-.462c-.248-.421-.254-.842-.02-1.264L7.876 1.172A1.281 1.281 0 019 .5a1.281 1.281 0 011.124.672z" fill="#DB0020"/></g></svg>