<svg version="1.1" xmlns="http://www.w3.org/2000/svg" xmlns:xlink="http://www.w3.org/1999/xlink" id="icon-sprite" class="icon-sprite">
  <defs>
    <style>
      svg .icon-sprite { display: none; }
      svg .icon-sprite:target { display: inline; } 
    </style>
  </defs>

  <!-- Canada (CA) -->
  <svg viewBox="0 0 21 15" id="icon-flag-ca" class="icon-sprite icon-flag"><path d="M21 0H0v15h21V0Z" fill="url(#ca-a)"/><path d="M21 0H10v15h11V0Z" fill="url(#ca-b)"/><path d="M7 0H0v15h7V0Z" fill="url(#ca-c)"/><path d="M15 0H6v15h9V0Z" fill="url(#ca-d)"/><path fill-rule="evenodd" clip-rule="evenodd" d="m11.674 7.326.652-.652a.251.251 0 0 1 .354.007L13 7l1-.5-.5 1 .32.32a.247.247 0 0 1 .008.352L12.5 9.5H11l-.25 1.5h-.5L10 9.5H8.5L7.172 8.172a.253.253 0 0 1 .009-.353L7.5 7.5l-.5-1L8 7l.32-.32a.249.249 0 0 1 .354-.006l.652.652c.096.096.152.063.124-.075L9 5l1 .5.5-1.5.5 1.5 1-.5-.45 2.251c-.029.142.028.171.124.075Z" fill="url(#ca-e)"/><defs><linearGradient id="ca-a" x1="10.5" y1="0" x2="10.5" y2="15" gradientUnits="userSpaceOnUse"><stop stop-color="#fff"/><stop offset="1" stop-color="#F0F0F0"/></linearGradient><linearGradient id="ca-b" x1="15.5" y1="0" x2="15.5" y2="15" gradientUnits="userSpaceOnUse"><stop stop-color="#FF3131"/><stop offset="1" stop-color="red"/></linearGradient><linearGradient id="ca-c" x1="3.5" y1="0" x2="3.5" y2="15" gradientUnits="userSpaceOnUse"><stop stop-color="#FF3131"/><stop offset="1" stop-color="red"/></linearGradient><linearGradient id="ca-d" x1="10.5" y1="0" x2="10.5" y2="15" gradientUnits="userSpaceOnUse"><stop stop-color="#fff"/><stop offset="1" stop-color="#F0F0F0"/></linearGradient><linearGradient id="ca-e" x1="10.5" y1="4" x2="10.5" y2="11" gradientUnits="userSpaceOnUse"><stop stop-color="#FF3131"/><stop offset="1" stop-color="red"/></linearGradient></defs></svg>

  <!-- United Kingdom (GB) -->
  <svg viewBox="0 0 21 15" id="icon-flag-gb" class="icon-sprite icon-flag"><g clip-path="url(#gb-a)"><path d="M21 0H0v15h21V0Z" fill="url(#gb-b)"/><path d="M20.998 0h-21v15h21V0Z" fill="url(#gb-c)"/><path fill-rule="evenodd" clip-rule="evenodd" d="M5.004 10H-.002V5h5.006L-2.082.22l1.118-1.657 8.962 6.045V-1h5v5.608l8.962-6.045L23.078.22 15.993 5h5.005v5h-5.005l7.085 4.78-1.118 1.657-8.962-6.045V16h-5v-5.607l-8.962 6.044-1.118-1.658L5.004 10Z" fill="url(#gb-d)"/><path d="m14.136 4.958 9.5-6.25a.25.25 0 0 0-.275-.417l-9.5 6.25a.25.25 0 1 0 .275.417ZM14.868 10.48l8.516 5.74a.25.25 0 1 0 .279-.414l-8.515-5.74a.25.25 0 1 0-.28.414ZM6.142 4.526-2.74-1.461a.25.25 0 1 0-.28.415L5.863 4.94a.25.25 0 1 0 .28-.414ZM6.828 9.995l-9.846 6.53a.25.25 0 0 0 .276.416l9.846-6.529a.25.25 0 0 0-.276-.417Z" fill="#DB1F35"/><path fill-rule="evenodd" clip-rule="evenodd" d="M-.002 9h9v6h3V9h9V6h-9V0h-3v6h-9v3Z" fill="url(#gb-e)"/></g><defs><linearGradient id="gb-b" x1="10.5" y1="0" x2="10.5" y2="15" gradientUnits="userSpaceOnUse"><stop stop-color="#fff"/><stop offset="1" stop-color="#F0F0F0"/></linearGradient><linearGradient id="gb-c" x1="10.498" y1="0" x2="10.498" y2="15" gradientUnits="userSpaceOnUse"><stop stop-color="#0A17A7"/><stop offset="1" stop-color="#030E88"/></linearGradient><linearGradient id="gb-d" x1="10.498" y1="-1.437" x2="10.498" y2="16.437" gradientUnits="userSpaceOnUse"><stop stop-color="#fff"/><stop offset="1" stop-color="#F0F0F0"/></linearGradient><linearGradient id="gb-e" x1="10.498" y1="0" x2="10.498" y2="15" gradientUnits="userSpaceOnUse"><stop stop-color="#E6273E"/><stop offset="1" stop-color="#CF152B"/></linearGradient><clipPath id="gb-a"><path fill="#fff" d="M0 0h21v15H0z"/></clipPath></defs></svg>

  <!-- United States of America (US) -->
  <svg viewBox="0 0 21 15" id="icon-flag-us" class="icon-sprite icon-flag"><path d="M21 0H0v15h21V0Z" fill="url(#us-a)"/><path fill-rule="evenodd" clip-rule="evenodd" d="M0 0h21v1H0V0Zm0 2h21v1H0V2Zm0 2h21v1H0V4Zm0 2h21v1H0V6Zm0 2h21v1H0V8Zm0 2h21v1H0v-1Zm0 2h21v1H0v-1Zm0 2h21v1H0v-1Z" fill="url(#us-b)"/><path d="M9 0H0v7h9V0Z" fill="url(#us-c)"/><path fill-rule="evenodd" clip-rule="evenodd" d="M1.5 2a.5.5 0 1 1 0-1 .5.5 0 0 1 0 1Zm2 0a.5.5 0 1 1 0-1 .5.5 0 0 1 0 1Zm2 0a.5.5 0 1 1 0-1 .5.5 0 0 1 0 1Zm2 0a.5.5 0 1 1 0-1 .5.5 0 0 1 0 1Zm-5 1a.5.5 0 1 1 0-1 .5.5 0 0 1 0 1Zm2 0a.5.5 0 1 1 0-1 .5.5 0 0 1 0 1Zm2 0a.5.5 0 1 1 0-1 .5.5 0 0 1 0 1Zm1 1a.5.5 0 1 1 0-1 .5.5 0 0 1 0 1Zm-2 0a.5.5 0 1 1 0-1 .5.5 0 0 1 0 1Zm-2 0a.5.5 0 1 1 0-1 .5.5 0 0 1 0 1Zm-2 0a.5.5 0 1 1 0-1 .5.5 0 0 1 0 1Zm1 1a.5.5 0 1 1 0-1 .5.5 0 0 1 0 1Zm2 0a.5.5 0 1 1 0-1 .5.5 0 0 1 0 1Zm2 0a.5.5 0 1 1 0-1 .5.5 0 0 1 0 1Zm1 1a.5.5 0 1 1 0-1 .5.5 0 0 1 0 1Zm-2 0a.5.5 0 1 1 0-1 .5.5 0 0 1 0 1Zm-2 0a.5.5 0 1 1 0-1 .5.5 0 0 1 0 1Zm-2 0a.5.5 0 1 1 0-1 .5.5 0 0 1 0 1Z" fill="url(#us-d)"/><defs><linearGradient id="us-a" x1="10.5" y1="0" x2="10.5" y2="15" gradientUnits="userSpaceOnUse"><stop stop-color="#fff"/><stop offset="1" stop-color="#F0F0F0"/></linearGradient><linearGradient id="us-b" x1="10.5" y1="0" x2="10.5" y2="15" gradientUnits="userSpaceOnUse"><stop stop-color="#D02F44"/><stop offset="1" stop-color="#B12537"/></linearGradient><linearGradient id="us-c" x1="4.5" y1="0" x2="4.5" y2="7" gradientUnits="userSpaceOnUse"><stop stop-color="#46467F"/><stop offset="1" stop-color="#3C3C6D"/></linearGradient><linearGradient id="us-d" x1="4.5" y1="1" x2="4.5" y2="6" gradientUnits="userSpaceOnUse"><stop stop-color="#fff"/><stop offset="1" stop-color="#F0F0F0"/></linearGradient></defs></svg>

</svg>