<svg version="1.1" xmlns="http://www.w3.org/2000/svg" xmlns:xlink="http://www.w3.org/1999/xlink" id="icon-sprite" class="icon-sprite">
  <defs>
    <style>
      svg .icon-sprite { display: none; }
      svg .icon-sprite:target { display: inline; } 
    </style>
  </defs>

  <!-- Warning -->
  <svg viewBox="0 0 16 16" id="icon-warning-sm" class="icon-sprite icon-warning-sm"><path fill-rule="evenodd" clip-rule="evenodd" d="M9.104 1.63l6.722 11.459c.355.606.15 1.384-.46 1.738a1.284 1.284 0 01-.644.173H1.278A1.275 1.275 0 010 13.73c0-.226.06-.447.174-.641L6.896 1.63a1.282 1.282 0 012.208 0zM7.5 6a.5.5 0 00-.5.5v3a.5.5 0 00.5.5h1a.5.5 0 00.5-.5v-3a.5.5 0 00-.5-.5h-1zm0 5a.5.5 0 00-.5.5v1a.5.5 0 00.5.5h1a.5.5 0 00.5-.5v-1a.5.5 0 00-.5-.5h-1z" fill="#000"/></svg>
  <svg viewBox="0 0 18 18" id="icon-warning-md" class="icon-sprite icon-warning-md"><path fill-rule="evenodd" clip-rule="evenodd" d="M10.32 1.763l7.475 12.944A1.53 1.53 0 0116.475 17H1.524a1.527 1.527 0 01-1.32-2.293L7.679 1.763a1.524 1.524 0 012.641 0zM8.5 13a.5.5 0 00-.5.5v1a.5.5 0 00.5.5h1a.5.5 0 00.5-.5v-1a.5.5 0 00-.5-.5h-1zm0-6a.5.5 0 00-.5.5v4a.5.5 0 00.5.5h1a.5.5 0 00.5-.5v-4a.5.5 0 00-.5-.5h-1z" fill="#000"/></svg>
  <svg viewBox="0 0 24 24" id="icon-warning-lg" class="icon-sprite icon-warning-lg"><path fill-rule="evenodd" clip-rule="evenodd" d="M13.56 1.918L23.776 20.36A1.778 1.778 0 0122.217 23H1.782a1.78 1.78 0 01-1.56-2.64L10.44 1.917a1.784 1.784 0 013.12 0zM11.5 9a.5.5 0 00-.5.5v6a.5.5 0 00.5.5h1a.5.5 0 00.5-.5v-6a.5.5 0 00-.5-.5h-1zm0 9a.5.5 0 00-.5.5v1a.5.5 0 00.5.5h1a.5.5 0 00.5-.5v-1a.5.5 0 00-.5-.5h-1z" fill="#000"/></svg>

  <!-- Chat -->
  <svg viewBox="0 0 18 18" id="icon-chat-md" class="icon-sprite icon-chat-md"><path fill-rule="evenodd" clip-rule="evenodd" d="M15 1a3 3 0 012.995 2.824L18 4v7a3 3 0 01-2.824 2.995L15 14H7.85l-3.088 3.631a.997.997 0 01-1.41.114 1 1 0 01-.344-.637L3 16.983V14a3 3 0 01-2.995-2.824L0 11V4a3 3 0 012.824-2.995L3 1h12zm0 1.75H3c-.646 0-1.18.493-1.244 1.122L1.75 4v7c0 .646.493 1.18 1.122 1.243L3 12.25h1.75v2.694l2.291-2.694H15c.646 0 1.18-.493 1.244-1.122L16.25 11V4c0-.646-.493-1.18-1.122-1.244L15 2.75zm-6 3.5a1.25 1.25 0 110 2.5 1.25 1.25 0 010-2.5zm-3.75 0a1.25 1.25 0 110 2.5 1.25 1.25 0 010-2.5zm7.5 0a1.25 1.25 0 110 2.5 1.25 1.25 0 010-2.5z" fill="#000"/></svg>
  <svg viewBox="0 0 24 24" id="icon-chat-lg" class="icon-sprite icon-chat-lg"><path fill-rule="evenodd" clip-rule="evenodd" d="M21 1a3 3 0 013 3v11a3 3 0 01-3 3h-8.45l-4.788 5.631A1 1 0 016 22.983V18H3a3 3 0 01-3-3V4a3 3 0 013-3h18zm0 2H3a1 1 0 00-1 1v11a1 1 0 001 1h5v4.264L11.626 16H21a1 1 0 001-1V4a1 1 0 00-1-1zM6.6 7.9a1.6 1.6 0 110 3.2 1.6 1.6 0 010-3.2zm5.4 0a1.6 1.6 0 110 3.2 1.6 1.6 0 010-3.2zm5.4 0a1.6 1.6 0 110 3.2 1.6 1.6 0 010-3.2z" fill="#000"/></svg>

  <!-- Information -->
  <svg viewBox="0 0 16 16" id="icon-information-sm" class="icon-sprite icon-information-sm"><path fill-rule="evenodd" clip-rule="evenodd" d="M8 0a8 8 0 110 16A8 8 0 018 0zm0 1.556a6.444 6.444 0 100 12.888A6.444 6.444 0 008 1.556zm.444 4.666c.246 0 .445.2.445.445V12a.444.444 0 01-.445.444h-.888A.444.444 0 017.11 12V6.667c0-.246.2-.445.445-.445h.888zm0-2.666c.246 0 .445.199.445.444v.889a.444.444 0 01-.445.444h-.888a.444.444 0 01-.445-.444V4c0-.245.2-.444.445-.444h.888z" fill="#000"/></svg>
  <svg viewBox="0 0 18 18" id="icon-information-md" class="icon-sprite icon-information-md"><path fill-rule="evenodd" clip-rule="evenodd" d="M9 0a9 9 0 110 18A9 9 0 019 0zm0 1.75a7.25 7.25 0 100 14.5 7.25 7.25 0 000-14.5zM9.5 7a.5.5 0 01.5.5v6a.5.5 0 01-.5.5h-1a.5.5 0 01-.5-.5v-6a.5.5 0 01.5-.5h1zm0-3a.5.5 0 01.5.5v1a.5.5 0 01-.5.5h-1a.5.5 0 01-.5-.5v-1a.5.5 0 01.5-.5h1z" fill="#000"/></svg>
  <svg viewBox="0 0 24 24" id="icon-information-lg" class="icon-sprite icon-information-lg"><path fill-rule="evenodd" clip-rule="evenodd" d="M12 0c6.627 0 12 5.373 12 12s-5.373 12-12 12S0 18.627 0 12 5.373 0 12 0zm0 2C6.477 2 2 6.477 2 12s4.477 10 10 10 10-4.477 10-10S17.523 2 12 2zm.5 7a.5.5 0 01.5.5v9a.5.5 0 01-.5.5h-1a.5.5 0 01-.5-.5v-9a.5.5 0 01.5-.5h1zm0-4a.5.5 0 01.5.5v1a.5.5 0 01-.5.5h-1a.5.5 0 01-.5-.5v-1a.5.5 0 01.5-.5h1z" fill="#000"/></svg>

  <!-- Help -->
  <svg viewBox="0 0 18 18" id="icon-help-md" class="icon-sprite icon-help-md"><path fill-rule="evenodd" clip-rule="evenodd" d="M9 0a9 9 0 110 18A9 9 0 019 0zm0 1.75a7.25 7.25 0 100 14.5 7.25 7.25 0 000-14.5zm0 11a1 1 0 110 2 1 1 0 010-2zm.447-8.837c1.39.132 2.403 1.246 2.403 2.637 0 1.006-.414 1.942-1.071 2.704l-.156.173c-.426.45-.71.968-.764 1.42l-.009.148v.14a.85.85 0 01-1.693.107l-.007-.107v-.143c.002-.916.426-1.808 1.082-2.562l.155-.171c.472-.499.763-1.107.763-1.709 0-.515-.346-.895-.863-.944-.568-.054-1.073.207-1.299.65l-.05.114a.85.85 0 01-1.591-.599c.472-1.255 1.746-1.986 3.1-1.858z" fill="#000"/></svg>
  <svg viewBox="0 0 24 24" id="icon-help-lg" class="icon-sprite icon-help-lg"><path fill-rule="evenodd" clip-rule="evenodd" d="M12 0c6.627 0 12 5.373 12 12s-5.373 12-12 12S0 18.627 0 12 5.373 0 12 0zm0 2C6.477 2 2 6.477 2 12s4.477 10 10 10 10-4.477 10-10S17.523 2 12 2zm0 15a1.125 1.125 0 110 2.25A1.125 1.125 0 0112 17zm.55-11.724c1.832.156 3.2 1.744 3.2 3.503 0 1.316-.554 2.544-1.497 3.527l-.194.194c-.624.595-.991 1.284-1.05 1.975l-.008.188V15a1 1 0 01-1.993.117L11.002 15v-.34c.002-1.258.55-2.446 1.484-3.416l.192-.191c.687-.656 1.072-1.453 1.072-2.274 0-.747-.601-1.445-1.37-1.51-.89-.076-1.705.399-2.108 1.24l-.07.162-.022.054a1 1 0 01-1.897-.622l.037-.111.021-.054c.694-1.76 2.378-2.817 4.209-2.662z" fill="#000"/></svg>

  <!-- Email -->
  <svg viewBox="0 0 18 18" id="icon-email-md" class="icon-sprite icon-email-md"><path fill-rule="evenodd" clip-rule="evenodd" d="M3 3h12a2 2 0 012 2v9a2 2 0 01-2 2H3a2 2 0 01-2-2V5a2 2 0 012-2zm12.116 1.779A.249.249 0 0015 4.75H3a.249.249 0 00-.116.029l4.758 3.954c.787.655 1.929.655 2.716 0l4.758-3.954zm.134 2.164l-3.773 3.136a3.875 3.875 0 01-4.954 0L2.75 6.943V14c0 .138.112.25.25.25h12a.25.25 0 00.25-.25V6.943z" fill="#000"/></svg>
  <svg viewBox="0 0 24 24" id="icon-email-lg" class="icon-sprite icon-email-lg"><path fill-rule="evenodd" clip-rule="evenodd" d="M3.5 4h17A2.5 2.5 0 0123 6.5v12a2.5 2.5 0 01-2.5 2.5h-17A2.5 2.5 0 011 18.5v-12A2.5 2.5 0 013.5 4zM21 6.52V6.5a.5.5 0 00-.5-.5h-17a.5.5 0 00-.5.5v.02l7.126 5.7a3 3 0 003.748 0L21 6.52zm0 2.56l-5.877 4.702a5 5 0 01-6.246 0L3 9.08V18.5a.5.5 0 00.5.5h17a.5.5 0 00.5-.5V9.08z" fill="#000"/></svg>

</svg>