<svg version="1.1" xmlns="http://www.w3.org/2000/svg" xmlns:xlink="http://www.w3.org/1999/xlink" id="icon-sprite" class="icon-sprite">
  <defs>
    <style>
      svg .icon-sprite { display: none; }
      svg .icon-sprite:target { display: inline; } 
    </style>
  </defs>

  <!-- Facebook -->
  <svg viewBox="0 0 18 18" id="icon-facebook-md" class="icon-sprite icon-facebook-md"><path fill-rule="evenodd" clip-rule="evenodd" d="M8.993 18c4.967 0 8.993-4.03 8.993-9S13.96 0 8.993 0C4.026 0 0 4.03 0 9s4.026 9 8.993 9zm2.439-13.878v1.57h-.934c-.34 0-.57.071-.69.214-.119.143-.178.357-.178.643v1.124h1.742l-.232 1.761H9.63v4.516H7.811V9.434H6.295v-1.76h1.516V6.375c0-.738.206-1.31.618-1.716.412-.407.961-.61 1.647-.61.583 0 1.034.024 1.356.072z" fill="#000"/></svg>
  <svg viewBox="0 0 24 24" id="icon-facebook-lg" class="icon-sprite icon-facebook-lg"><path fill-rule="evenodd" clip-rule="evenodd" d="M11.99 24c6.623 0 11.991-5.373 11.991-12S18.613 0 11.991 0C5.368 0 0 5.373 0 12s5.368 12 11.99 12zm3.252-18.505V7.59h-1.244c-.455 0-.761.096-.92.286-.159.19-.238.476-.238.857v1.5h2.323l-.31 2.347H12.84v6.02h-2.425v-6.02H8.393v-2.348h2.022v-1.73c0-.983.275-1.746.824-2.288.55-.542 1.282-.813 2.196-.813.777 0 1.379.032 1.807.095z" fill="#000"/></svg>

  <!-- "X" (formerly known as "Twitter") -->
  <svg viewBox="0 0 18 18" id="icon-twitter-md" class="icon-sprite icon-twitter-md"><path fill-rule="evenodd" clip-rule="evenodd" d="M17.986 9C17.986 13.9706 13.9597 18 8.99298 18C4.0263 18 0 13.9706 0 9C0 4.02944 4.0263 0 8.99298 0C13.9597 0 17.986 4.02944 17.986 9ZM13.2146 4.8L10.0537 8.39832L13.49 13.2971H10.9618L8.64688 9.99757L5.74894 13.2971H5L8.31476 9.52403L5 4.8H7.52825L9.71978 7.92372L12.4657 4.8H13.2146ZM8.69118 9.0948L9.02755 9.5655L11.3148 12.7711H12.4653L9.66165 8.84456L9.3267 8.37386L7.16955 5.35293H6.01903L8.69118 9.0948Z" fill="#000"/></svg>
  <svg viewBox="0 0 24 24" id="icon-twitter-lg" class="icon-sprite icon-twitter-lg"><path fill-rule="evenodd" clip-rule="evenodd" d="M23.981 12c0 6.627-5.368 12-11.99 12C5.368 24 0 18.627 0 12S5.368 0 11.99 0c6.623 0 11.991 5.373 11.991 12Zm-6.538-6-4.21 4.793 4.577 6.526h-3.368l-3.084-4.395-3.86 4.395H6.5l4.416-5.026L6.5 6h3.368l2.92 4.161L16.444 6h.998Zm-6.026 5.721.448.627 3.047 4.27h1.533l-3.735-5.23-.446-.627L9.39 6.737H7.857l3.56 4.984Z" fill="#000"/></svg>

  <!-- Instagram -->
  <svg viewBox="0 0 18 18" id="icon-instagram-md" class="icon-sprite icon-instagram-md"><path fill-rule="evenodd" clip-rule="evenodd" d="M8.993 18c4.967 0 8.993-4.03 8.993-9S13.96 0 8.993 0C4.026 0 0 4.03 0 9s4.026 9 8.993 9zm.355-4.564a33.83 33.83 0 001.596-.028c.766-.037 1.36-.265 1.78-.685.419-.42.647-1.013.684-1.779.019-.324.028-.908.028-1.751 0-.844-.01-1.427-.028-1.751-.037-.767-.265-1.36-.685-1.78-.42-.42-1.013-.648-1.779-.684a36.555 36.555 0 00-1.751-.028h-.155c-.76.001-1.293.01-1.596.028-.766.036-1.36.265-1.78.685-.42.42-.647 1.012-.684 1.779-.019.324-.028.907-.028 1.75 0 .844.01 1.428.028 1.752.037.766.265 1.36.685 1.779.42.42 1.013.648 1.779.685.324.019.908.028 1.75.028h.156zm-.578-.76a20.336 20.336 0 01-1.116-.017 4.381 4.381 0 01-.569-.055 2.214 2.214 0 01-.395-.102 1.433 1.433 0 01-.806-.807 2.215 2.215 0 01-.103-.395 4.377 4.377 0 01-.055-.569 20.467 20.467 0 01-.016-1.116l.002-.422-.002-.423a20.454 20.454 0 01.017-1.116c.008-.223.027-.412.054-.569.028-.156.062-.288.103-.395a1.433 1.433 0 01.806-.806c.107-.04.239-.075.395-.103.157-.027.346-.046.57-.055A20.455 20.455 0 018.77 5.71l.394.002h.449c.257-.003.453-.004.585-.002.133.001.31.007.533.016.223.01.413.028.57.055.156.028.288.062.394.103a1.433 1.433 0 01.807.806c.04.107.075.239.102.395.028.157.046.346.056.57a20.26 20.26 0 01.016 1.115l-.003.423v.011l.003.411a20.273 20.273 0 01-.017 1.116 4.38 4.38 0 01-.055.57 2.215 2.215 0 01-.102.394 1.434 1.434 0 01-.807.807c-.106.04-.238.075-.395.102a4.381 4.381 0 01-.569.056 20.33 20.33 0 01-1.116.016l-.368-.002H9.14l-.369.002zm3.047-5.39c-.1.1-.22.15-.36.15a.49.49 0 01-.358-.15.49.49 0 01-.15-.358c0-.14.05-.26.15-.36.1-.099.219-.148.359-.148.14 0 .26.05.359.149.1.1.15.219.15.359 0 .14-.05.26-.15.359zM9.193 11.37c.604 0 1.118-.212 1.541-.636.424-.423.636-.937.636-1.541 0-.604-.212-1.118-.636-1.541a2.099 2.099 0 00-1.541-.636c-.604 0-1.118.212-1.542.636a2.099 2.099 0 00-.635 1.54c0 .605.212 1.119.635 1.542.424.424.938.636 1.542.636zm-1-1.177c.276.276.61.414 1 .414s.724-.138 1-.414c.276-.276.414-.61.414-1s-.138-.724-.414-1a1.363 1.363 0 00-1-.414c-.39 0-.724.138-1 .414-.276.276-.414.61-.414 1s.138.724.414 1z" fill="#000"/></svg>
  <svg viewBox="0 0 24 24" id="icon-instagram-lg" class="icon-sprite icon-instagram-lg"><path fill-rule="evenodd" clip-rule="evenodd" d="M11.99 24c6.623 0 11.991-5.373 11.991-12S18.613 0 11.991 0C5.368 0 0 5.373 0 12s5.368 12 11.99 12zm.474-6.086a44.952 44.952 0 002.128-.037c1.022-.049 1.812-.353 2.372-.913.56-.56.864-1.35.914-2.372.024-.432.036-1.21.036-2.335 0-1.124-.012-1.903-.037-2.335-.049-1.021-.353-1.812-.913-2.372-.56-.56-1.35-.864-2.372-.913a48.737 48.737 0 00-2.335-.037h-.207a44.938 44.938 0 00-2.128.037c-1.021.049-1.812.353-2.372.913-.56.56-.864 1.35-.913 2.372-.025.432-.037 1.21-.037 2.335s.012 1.903.037 2.335c.049 1.022.353 1.812.913 2.372.56.56 1.35.864 2.372.914.432.024 1.21.036 2.335.036h.207zm-.77-1.013c-.342.003-.6.003-.778 0-.176-.002-.413-.01-.71-.022a5.846 5.846 0 01-.759-.073 2.952 2.952 0 01-.527-.137 1.91 1.91 0 01-.648-.427 1.911 1.911 0 01-.427-.648 2.953 2.953 0 01-.136-.527 5.838 5.838 0 01-.074-.758c-.012-.297-.02-.534-.022-.711a40.057 40.057 0 010-.777l.004-.564-.004-.563c-.003-.342-.003-.6 0-.778.002-.176.01-.413.022-.71.012-.297.037-.55.074-.759.036-.209.082-.384.136-.527.098-.245.24-.461.427-.648s.403-.329.648-.427c.143-.054.318-.1.527-.136.209-.037.462-.062.759-.074.297-.012.534-.02.71-.022.177-.003.436-.003.778 0l.524.003h.599c.344-.004.604-.006.78-.003.178.002.415.01.712.022.297.012.55.037.758.074.209.036.385.082.527.136.245.098.462.24.648.427.187.187.33.403.427.648.054.143.1.318.137.527.037.209.061.462.073.759.013.297.02.534.022.71.003.177.003.436 0 .778l-.003.563v.015l.003.549c.003.34.003.6 0 .777-.002.177-.01.413-.022.71a5.83 5.83 0 01-.073.76 2.952 2.952 0 01-.137.526c-.098.245-.24.462-.427.648a1.911 1.911 0 01-.648.427c-.142.054-.318.1-.527.137a5.846 5.846 0 01-.758.073c-.297.013-.534.02-.711.022-.177.003-.436.003-.777 0l-.492-.003h-.144l-.491.003zm4.062-7.185a.653.653 0 01-.479.199.653.653 0 01-.479-.2.653.653 0 01-.198-.478c0-.187.066-.346.198-.479a.653.653 0 01.48-.199c.186 0 .345.067.478.2a.653.653 0 01.199.478.653.653 0 01-.199.479zm-3.499 5.443c.806 0 1.49-.282 2.055-.847.565-.564.847-1.25.847-2.055 0-.805-.282-1.49-.847-2.055a2.799 2.799 0 00-2.055-.847c-.805 0-1.49.282-2.055.847a2.798 2.798 0 00-.847 2.055c0 .806.282 1.49.847 2.055.565.565 1.25.847 2.055.847zm-1.333-1.569c.368.369.813.553 1.333.553s.965-.184 1.333-.553c.369-.368.553-.812.553-1.333 0-.52-.184-.965-.553-1.333a1.817 1.817 0 00-1.333-.553c-.52 0-.965.185-1.333.553a1.817 1.817 0 00-.553 1.333c0 .52.185.965.553 1.333z" fill="#000"/></svg>

  <!-- LinkedIn -->
  <svg viewBox="0 0 18 18" id="icon-linkedin-md" class="icon-sprite icon-linkedin-md"><path fill-rule="evenodd" clip-rule="evenodd" d="M8.993 18c4.967 0 8.993-4.03 8.993-9S13.96 0 8.993 0C4.026 0 0 4.03 0 9s4.026 9 8.993 9zm4.047-8.118v2.83h-1.637v-2.64c0-.349-.068-.622-.202-.82-.135-.197-.344-.296-.63-.296a.805.805 0 00-.525.172c-.14.114-.246.256-.316.426-.036.1-.054.234-.054.403v2.754H8.039c.006-1.324.01-2.399.01-3.222s-.002-1.315-.006-1.474l-.004-.24h1.637v.718h-.01c.066-.106.134-.2.204-.279.07-.08.163-.166.28-.259.119-.093.263-.165.434-.217.17-.051.36-.077.57-.077.567 0 1.023.189 1.368.566.345.376.518.928.518 1.655zm-7.55 2.83h1.643V7.775H5.49v4.935zm1.747-6.46a.788.788 0 01-.251.607c-.171.163-.396.244-.675.244h-.01c-.272 0-.49-.08-.656-.244a.816.816 0 01-.25-.607c0-.246.086-.45.257-.61.17-.162.394-.242.67-.242.275 0 .495.08.661.242.166.16.25.364.254.61z" fill="#000"/></svg>
  <svg viewBox="0 0 24 24" id="icon-linkedin-lg" class="icon-sprite icon-linkedin-lg"><path fill-rule="evenodd" clip-rule="evenodd" d="M11.99 24c6.623 0 11.991-5.373 11.991-12S18.613 0 11.991 0C5.368 0 0 5.373 0 12s5.368 12 11.99 12zm5.397-10.823v3.771h-2.184v-3.52c0-.464-.09-.828-.268-1.092-.18-.263-.46-.395-.84-.395-.278 0-.512.077-.7.23a1.411 1.411 0 00-.421.567 1.601 1.601 0 00-.073.538v3.672h-2.183c.009-1.766.013-3.198.013-4.296 0-1.098-.002-1.753-.006-1.966l-.007-.319h2.183v.957h-.013c.088-.142.179-.266.272-.372.093-.106.218-.221.374-.345.158-.124.35-.22.578-.29.228-.068.481-.102.76-.102.756 0 1.364.251 1.825.754.46.502.69 1.238.69 2.208zM7.32 16.948h2.19v-6.58H7.32v6.58zM9.65 8.336c.004.323-.108.593-.335.81-.228.217-.528.325-.9.325h-.013c-.363 0-.655-.108-.876-.325a1.088 1.088 0 01-.332-.81c0-.328.114-.6.342-.814.228-.215.525-.322.893-.322.367 0 .66.107.882.322.221.215.334.486.339.814z" fill="#000"/></svg>

  <!-- YouTube -->
  <svg viewBox="0 0 18 18" id="icon-youtube-md" class="icon-sprite icon-youtube-md"><path fill-rule="evenodd" clip-rule="evenodd" d="M8.993 18c4.967 0 8.993-4.03 8.993-9S13.96 0 8.993 0C4.026 0 0 4.03 0 9s4.026 9 8.993 9zm-.82-7.515v-3.05L10.85 8.96l-2.678 1.525zm5.968-3.973a1.282 1.282 0 00-.911-.9C12.426 5.4 9.203 5.4 9.203 5.4s-3.223 0-4.027.212a1.283 1.283 0 00-.91.9C4.05 7.305 4.05 8.96 4.05 8.96s0 1.655.215 2.448c.119.437.468.782.911.899.804.213 4.027.213 4.027.213s3.223 0 4.027-.213c.443-.117.792-.462.91-.9.216-.792.216-2.447.216-2.447s0-1.655-.215-2.448z" fill="#000"/></svg>
  <svg viewBox="0 0 24 24" id="icon-youtube-lg" class="icon-sprite icon-youtube-lg"><path fill-rule="evenodd" clip-rule="evenodd" d="M11.99 24c6.623 0 11.991-5.373 11.991-12S18.613 0 11.991 0C5.368 0 0 5.373 0 12s5.368 12 11.99 12zm-1.093-10.02V9.912l3.57 2.034-3.57 2.034zm7.958-5.298a1.71 1.71 0 00-1.215-1.199C16.568 7.2 12.27 7.2 12.27 7.2s-4.296 0-5.368.283a1.71 1.71 0 00-1.215 1.2C5.4 9.74 5.4 11.945 5.4 11.945s0 2.207.287 3.264a1.71 1.71 0 001.215 1.2c1.072.283 5.369.283 5.369.283s4.297 0 5.369-.284a1.71 1.71 0 001.215-1.198c.287-1.058.287-3.265.287-3.265s0-2.206-.287-3.264z" fill="#000"/></svg>

  <!-- MailSocial -->
  <svg viewBox="0 0 18 18" id="icon-mailSocial-md" class="icon-sprite icon-mailSocial-md"><path fill-rule="evenodd" clip-rule="evenodd" d="M9 18C13.9706 18 18 13.9706 18 9C18 4.02944 13.9706 0 9 0C4.02944 0 0 4.02944 0 9C0 13.9706 4.02944 18 9 18ZM9.01195 9.75C9.08902 9.75 9.17279 9.73493 9.26327 9.7048C9.35374 9.67467 9.45008 9.62946 9.55227 9.5692C9.65448 9.50893 9.7416 9.45452 9.81364 9.40597C9.88568 9.35742 9.97615 9.29381 10.0851 9.21512C10.194 9.13644 10.2652 9.08538 10.2987 9.06194C10.6069 8.84766 11.391 8.30357 12.651 7.42969C12.8956 7.25893 13.1 7.05301 13.2642 6.81194C13.4283 6.57087 13.5104 6.31808 13.5104 6.05357C13.5104 5.83259 13.4309 5.64341 13.2717 5.48605C13.1125 5.32868 12.924 5.25 12.7062 5.25H5.30762C5.0496 5.25 4.85107 5.33705 4.71201 5.51116C4.57295 5.68527 4.50342 5.9029 4.50342 6.16406C4.50342 6.375 4.59557 6.60352 4.77986 6.84961C4.96416 7.0957 5.16018 7.28906 5.36793 7.42969C5.48186 7.51004 5.82532 7.7486 6.39831 8.14537C6.9713 8.54213 7.41026 8.84766 7.71518 9.06194C7.74869 9.08538 7.8199 9.13644 7.9288 9.21512C8.0377 9.29381 8.12817 9.35742 8.20022 9.40597C8.27226 9.45452 8.35938 9.50893 8.46158 9.5692C8.56378 9.62946 8.66012 9.67467 8.75059 9.7048C8.84106 9.73493 8.92483 9.75 9.0019 9.75H9.01195ZM12.7062 12.9651C12.9274 12.9651 13.1167 12.8864 13.2742 12.729C13.4317 12.5717 13.5104 12.3825 13.5104 12.1615V7.53015C13.3664 7.69087 13.1988 7.83651 13.0078 7.96709C11.9087 8.7104 11.0744 9.28796 10.5047 9.69979C10.3138 9.84042 10.1588 9.95007 10.0398 10.0288C9.92087 10.1074 9.76254 10.1878 9.56484 10.2698C9.36714 10.3519 9.18285 10.3929 9.01195 10.3929H9.0019C8.83101 10.3929 8.64671 10.3519 8.44902 10.2698C8.25132 10.1878 8.09299 10.1074 7.97404 10.0288C7.85508 9.95007 7.70011 9.84042 7.50911 9.69979C7.05675 9.36832 6.22407 8.79075 5.01107 7.96709C4.82007 7.83986 4.65085 7.69421 4.50342 7.53015V12.1615C4.50342 12.3825 4.58216 12.5717 4.73965 12.729C4.89714 12.8864 5.08646 12.9651 5.30762 12.9651H12.7062Z" fill="#000"/></svg>
  <svg viewBox="0 0 24 24" id="icon-mailSocial-lg" class="icon-sprite icon-mailSocial-lg"><path fill-rule="evenodd" clip-rule="evenodd" d="M12 24C18.6274 24 24 18.6274 24 12C24 5.37258 18.6274 0 12 0C5.37258 0 0 5.37258 0 12C0 18.6274 5.37258 24 12 24ZM12.0161 13C12.1188 13 12.2305 12.9799 12.3511 12.9397C12.4718 12.8996 12.6002 12.8393 12.7365 12.7589C12.8728 12.6786 12.9889 12.606 13.085 12.5413C13.181 12.4766 13.3017 12.3917 13.4469 12.2868C13.5921 12.1819 13.687 12.1138 13.7317 12.0826C14.1427 11.7969 15.1882 11.0714 16.8681 9.90625C17.1942 9.67857 17.4667 9.40402 17.6857 9.08259C17.9046 8.76116 18.014 8.42411 18.014 8.07143C18.014 7.77679 17.9079 7.52455 17.6957 7.31473C17.4835 7.10491 17.2322 7 16.9418 7H7.07694C6.73293 7 6.46821 7.11607 6.2828 7.34821C6.09739 7.58036 6.00468 7.87054 6.00468 8.21875C6.00468 8.5 6.12754 8.80469 6.37327 9.13281C6.619 9.46094 6.88036 9.71875 7.15736 9.90625C7.30927 10.0134 7.76722 10.3315 8.5312 10.8605C9.29519 11.3895 9.88047 11.7969 10.287 12.0826C10.3317 12.1138 10.4267 12.1819 10.5719 12.2868C10.7171 12.3917 10.8377 12.4766 10.9337 12.5413C11.0298 12.606 11.146 12.6786 11.2822 12.7589C11.4185 12.8393 11.5469 12.8996 11.6676 12.9397C11.7882 12.9799 11.8999 13 12.0027 13H12.0161ZM16.9418 17.2868C17.2367 17.2868 17.4891 17.1818 17.6991 16.972C17.909 16.7622 18.014 16.51 18.014 16.2153V10.0402C17.8219 10.2545 17.5985 10.4487 17.3439 10.6228C15.8784 11.6138 14.766 12.3839 14.0065 12.933C13.7518 13.1205 13.5452 13.2667 13.3866 13.3717C13.2279 13.4766 13.0168 13.5837 12.7532 13.6931C12.4896 13.8025 12.2439 13.8571 12.0161 13.8571H12.0027C11.7748 13.8571 11.5291 13.8025 11.2655 13.6931C11.0019 13.5837 10.7908 13.4766 10.6322 13.3717C10.4736 13.2667 10.2669 13.1205 10.0123 12.933C9.40912 12.4911 8.29888 11.721 6.68155 10.6228C6.42688 10.4531 6.20126 10.2589 6.00468 10.0402V16.2153C6.00468 16.51 6.10967 16.7622 6.31966 16.972C6.52964 17.1818 6.78207 17.2868 7.07694 17.2868H16.9418Z" fill="#000"/></svg>

  <!-- Facebook (color/official brand)-->
  <svg viewBox="0 0 18 18" fill="none" id="icon-facebookColor-md" class="icon-sprite icon-facebookColor-md"><path d="M18 9C18 4.02943 13.9706 0 9 0C4.02943 0 0 4.02943 0 9C0 13.4921 3.29115 17.2155 7.59375 17.8907V11.6016H5.30859V9H7.59375V7.01719C7.59375 4.76156 8.93742 3.51562 10.9932 3.51562C11.9779 3.51562 13.0078 3.69141 13.0078 3.69141V5.90625H11.873C10.755 5.90625 10.4062 6.60006 10.4062 7.3118V9H12.9023L12.5033 11.6016H10.4062V17.8907C14.7088 17.2155 18 13.4921 18 9Z" fill="#1877F2"/>
  <path d="M12.5033 11.6016L12.9023 9H10.4062V7.3118C10.4062 6.60006 10.755 5.90625 11.873 5.90625H13.0078V3.69141C13.0078 3.69141 11.9779 3.51562 10.9932 3.51562C8.93742 3.51562 7.59375 4.76156 7.59375 7.01719V9H5.30859V11.6016H7.59375V17.8907C8.05201 17.9626 8.52152 18 9 18C9.47848 18 9.94799 17.9626 10.4062 17.8907V11.6016H12.5033Z" fill="white"/></svg>
  <svg viewBox="0 0 24 24" fill="none" id="icon-facebookColor-lg" class="icon-sprite icon-facebookColor-lg"><path d="M24 12C24 5.37258 18.6274 0 12 0C5.37258 0 0 5.37258 0 12C0 17.9895 4.3882 22.954 10.125 23.8542V15.4688H7.07812V12H10.125V9.35625C10.125 6.34875 11.9166 4.6875 14.6576 4.6875C15.9705 4.6875 17.3438 4.92188 17.3438 4.92188V7.875H15.8306C14.34 7.875 13.875 8.80008 13.875 9.74906V12H17.2031L16.6711 15.4688H13.875V23.8542C19.6118 22.954 24 17.9895 24 12Z" fill="#1877f2"/>
  <path d="M16.6711 15.4688L17.2031 12H13.875V9.74906C13.875 8.80008 14.34 7.875 15.8306 7.875H17.3438V4.92188C17.3438 4.92188 15.9705 4.6875 14.6576 4.6875C11.9166 4.6875 10.125 6.34875 10.125 9.35625V12H7.07812V15.4688H10.125V23.8542C10.736 23.9501 11.362 24 12 24C12.638 24 13.264 23.9501 13.875 23.8542V15.4688H16.6711Z" fill="#fff"/></svg>

  <!-- LinkedIn (color/official brand) -->
  <svg viewBox="0 0 18 18" id="icon-linkedinColor-md" class="icon-sprite icon-linkedinColor-md"><rect width="18" height="18" rx="1.5" fill="#fff"/><path d="M18 1.32875V16.6712C18 17.405 17.405 18 16.6712 18H1.32875C0.595 18 0 17.405 0 16.6712V1.32875C0 0.595 0.595 0 1.32875 0H16.6712C17.405 0 18 0.595 18 1.32875ZM5.365 6.7375H2.65875V15.335H5.365V6.7375ZM5.5725 3.9925C5.5725 3.095 4.87375 2.43875 4.0125 2.43875C3.15125 2.43875 2.4525 3.095 2.4525 3.9925C2.4525 4.89 3.15125 5.54625 4.0125 5.54625C4.87375 5.54625 5.5725 4.89 5.5725 3.9925ZM15.3425 10.0238C15.3425 7.3975 13.7113 6.5025 12.2013 6.5025C10.805 6.5025 9.89125 7.40625 9.62875 7.935H9.59375V6.74375H6.99125V15.3413H9.6975V10.68C9.6975 9.4375 10.485 8.8325 11.2875 8.8325C12.0475 8.8325 12.6362 9.26 12.6362 10.645V15.34H15.3425V10.0225V10.0238Z" fill="#0077b5"/></svg>
  <svg viewBox="0 0 24 24" id="icon-linkedinColor-lg" class="icon-sprite icon-linkedinColor-lg"><rect width="24" height="24" rx="2" fill="#fff"/><path d="M24 1.77167V22.2283C24 23.2067 23.2067 24 22.2283 24H1.77167C0.793333 24 0 23.2067 0 22.2283V1.77167C0 0.793333 0.793333 0 1.77167 0H22.2283C23.2067 0 24 0.793333 24 1.77167ZM7.15333 8.98333H3.545V20.4467H7.15333V8.98333ZM7.43 5.32333C7.43 4.12667 6.49833 3.25167 5.35 3.25167C4.20167 3.25167 3.27 4.12667 3.27 5.32333C3.27 6.52 4.20167 7.395 5.35 7.395C6.49833 7.395 7.43 6.52 7.43 5.32333ZM20.4567 13.365C20.4567 9.86333 18.2817 8.67 16.2683 8.67C14.4067 8.67 13.1883 9.875 12.8383 10.58H12.7917V8.99167H9.32167V20.455H12.93V14.24C12.93 12.5833 13.98 11.7767 15.05 11.7767C16.0633 11.7767 16.8483 12.3467 16.8483 14.1933V20.4533H20.4567V13.3633V13.365Z" fill="#0077b5"/></svg>

  <!-- Google (color/official brand) -->
  <svg viewBox="0 0 18 18" id="icon-chromeColor-md" class="icon-sprite icon-chromeColor-md"><path fill-rule="evenodd" clip-rule="evenodd" d="M17.64 9.205c0-.639-.057-1.252-.164-1.841H9v3.481h4.844a4.14 4.14 0 0 1-1.796 2.716v2.259h2.908c1.702-1.567 2.684-3.875 2.684-6.615Z" fill="#4285f4"/><path fill-rule="evenodd" clip-rule="evenodd" d="M9 18c2.43 0 4.468-.806 5.957-2.18l-2.909-2.259c-.805.54-1.836.86-3.047.86-2.344 0-4.328-1.584-5.036-3.711H.958v2.332A8.997 8.997 0 0 0 9.001 18Z" fill="#34a853"/><path fill-rule="evenodd" clip-rule="evenodd" d="M3.964 10.71A5.41 5.41 0 0 1 3.682 9c0-.593.102-1.17.282-1.71V4.958H.957A8.996 8.996 0 0 0 0 9c0 1.452.348 2.827.957 4.042l3.007-2.332Z" fill="#fbbc05"/><path fill-rule="evenodd" clip-rule="evenodd" d="M9 3.58c1.322 0 2.508.454 3.441 1.345l2.582-2.58C13.463.891 11.427 0 9 0A8.997 8.997 0 0 0 .958 4.958L3.965 7.29C4.673 5.163 6.657 3.58 9 3.58Z" fill="#ea4335"/></svg>
  <svg viewBox="0 0 24 24" id="icon-chromeColor-lg" class="icon-sprite icon-chromeColor-lg"><path fill-rule="evenodd" clip-rule="evenodd" d="M23.52 12.273c0-.851-.076-1.67-.218-2.455H12v4.642h6.458a5.52 5.52 0 0 1-2.394 3.622v3.01h3.878c2.269-2.088 3.578-5.165 3.578-8.82Z" fill="#4285f4"/><path fill-rule="evenodd" clip-rule="evenodd" d="M12.001 24c3.24 0 5.956-1.075 7.942-2.907l-3.878-3.011c-1.075.72-2.45 1.145-4.064 1.145-3.125 0-5.77-2.11-6.715-4.947H1.277v3.109a11.996 11.996 0 0 0 10.724 6.61Z" fill="#34a853"/><path fill-rule="evenodd" clip-rule="evenodd" d="M5.285 14.28A7.213 7.213 0 0 1 4.91 12c0-.791.136-1.56.376-2.28V6.61H1.276A11.995 11.995 0 0 0 0 12c0 1.936.464 3.769 1.276 5.389l4.01-3.11Z" fill="#fbbc05"/><path fill-rule="evenodd" clip-rule="evenodd" d="M12.001 4.773c1.762 0 3.344.605 4.587 1.794l3.442-3.442C17.952 1.19 15.235 0 12.001 0c-4.69 0-8.75 2.69-10.724 6.61l4.01 3.11C6.23 6.884 8.875 4.773 12 4.773Z" fill="#ea4335"/></svg>

</svg>