<svg version="1.1" xmlns="http://www.w3.org/2000/svg" xmlns:xlink="http://www.w3.org/1999/xlink" id="icon-sprite" class="icon-sprite">
  <defs>
    <style>
      svg .icon-sprite { display: none; }
      svg .icon-sprite:target { display: inline; } 
    </style>
  </defs>
  <svg viewBox="0 0 32 32">
    <path d="M16 0C7.163 0 0 7.163 0 16s7.163 16 16 16 16-7.163 16-16S24.837 0 16 0zm0 29C8.82 29 3 23.18 3 16S8.82 3 16 3s13 5.82 13 13-5.82 13-13 13zm-6-18a1 1 0 011-1h2a1 1 0 011 1v10a1 1 0 01-1 1h-2a1 1 0 01-1-1V11zm8 0a1 1 0 011-1h2a1 1 0 011 1v10a1 1 0 01-1 1h-2a1 1 0 01-1-1V11z" id="icon-pause--chalk-white" class="icon-sprite icon--play-pause" fill="#fff"/>
  </svg>
  <svg viewBox="0 0 32 32">
    <path d="M16 0C7.163 0 0 7.163 0 16s7.163 16 16 16 16-7.163 16-16S24.837 0 16 0zm0 29C8.82 29 3 23.18 3 16S8.82 3 16 3s13 5.82 13 13-5.82 13-13 13zm-6-18a1 1 0 011-1h2a1 1 0 011 1v10a1 1 0 01-1 1h-2a1 1 0 01-1-1V11zm8 0a1 1 0 011-1h2a1 1 0 011 1v10a1 1 0 01-1 1h-2a1 1 0 01-1-1V11z" id="icon-pause--soft-black" class="icon-sprite icon--play-pause" fill="#151515"/>
  </svg>
  <svg viewBox="0 0 32 32">
    <path d="M16 0C7.163 0 0 7.163 0 16s7.163 16 16 16 16-7.163 16-16S24.837 0 16 0zm0 29C8.82 29 3 23.18 3 16S8.82 3 16 3s13 5.82 13 13-5.82 13-13 13zm-4-18.259a1 1 0 011.504-.864l9.015 5.26a1 1 0 010 1.727l-9.015 5.259A1 1 0 0112 21.259V10.741z" id="icon-play--chalk-white" class="icon-sprite icon--play-pause" fill="#fff"/>
  </svg>
  <svg viewBox="0 0 32 32">
    <path d="M16 0C7.163 0 0 7.163 0 16s7.163 16 16 16 16-7.163 16-16S24.837 0 16 0zm0 29C8.82 29 3 23.18 3 16S8.82 3 16 3s13 5.82 13 13-5.82 13-13 13zm-4-18.259a1 1 0 011.504-.864l9.015 5.26a1 1 0 010 1.727l-9.015 5.259A1 1 0 0112 21.259V10.741z" id="icon-play--soft-black" class="icon-sprite icon--play-pause" fill="#151515"/>
  </svg>
</svg>