<svg version="1.1" xmlns="http://www.w3.org/2000/svg" xmlns:xlink="http://www.w3.org/1999/xlink" id="icon-sprite" class="icon-sprite">
  <defs>
    <style>
      svg .icon-sprite { display: none; }
      svg .icon-sprite:target { display: inline; } 
    </style>
  </defs>

  <!-- Laptop -->
  <svg viewBox="0 0 16 16" id="icon-laptop-sm" class="icon-sprite icon-laptop-sm"><path d="M7.531 12.469a.636.636 0 0 0 .469.187.636.636 0 0 0 .469-.187.636.636 0 0 0 .187-.469.636.636 0 0 0-.187-.469.636.636 0 0 0-.469-.187.636.636 0 0 0-.469.187.636.636 0 0 0-.187.469c0 .188.062.344.187.469ZM2.656 3.344v7.312h10.688V3.344H2.656ZM13.344 12H16c0 .354-.135.667-.406.938-.271.27-.584.406-.938.406H1.344c-.354 0-.667-.136-.938-.406C.136 12.666 0 12.354 0 12h2.656c-.354 0-.666-.135-.937-.406a1.341 1.341 0 0 1-.375-.938V3.344c0-.354.125-.667.375-.938.27-.27.583-.406.937-.406h10.688c.354 0 .656.135.906.406.27.271.406.584.406.938v7.312c0 .354-.135.667-.406.938-.25.27-.552.406-.906.406Z"/></svg>
  <svg viewBox="0 0 18 18" id="icon-laptop-md" class="icon-sprite icon-laptop-md"><path d="M8.473 14.027c.14.141.316.211.527.211.21 0 .387-.07.527-.21.141-.141.211-.317.211-.528 0-.21-.07-.387-.21-.527A.715.715 0 0 0 9 12.762c-.21 0-.387.07-.527.21a.715.715 0 0 0-.211.528c0 .21.07.387.21.527ZM2.988 3.762v8.226h12.024V3.762H2.988ZM15.012 13.5H18c0 .398-.152.75-.457 1.055-.305.304-.656.457-1.055.457H1.512c-.399 0-.75-.153-1.055-.457C.152 14.25 0 13.898 0 13.5h2.988c-.398 0-.75-.152-1.054-.457a1.509 1.509 0 0 1-.422-1.055V3.762c0-.399.14-.75.422-1.055.304-.305.656-.457 1.054-.457h12.024c.398 0 .738.152 1.02.457.304.305.456.656.456 1.055v8.226c0 .399-.152.75-.457 1.055a1.337 1.337 0 0 1-1.02.457Z"/></svg>
  <svg viewBox="0 0 24 24" id="icon-laptop-lg" class="icon-sprite icon-laptop-lg"><path d="M11.297 18.703a.954.954 0 0 0 .703.281.954.954 0 0 0 .703-.28.954.954 0 0 0 .281-.704.954.954 0 0 0-.28-.703.954.954 0 0 0-.704-.281.954.954 0 0 0-.703.28.954.954 0 0 0-.281.704c0 .281.093.516.28.703ZM3.984 5.016v10.968h16.032V5.016H3.984ZM20.016 18H24c0 .531-.203 1-.61 1.406-.406.407-.874.61-1.406.61H2.016c-.532 0-1-.203-1.407-.61C.203 19 0 18.531 0 18h3.984c-.53 0-1-.203-1.406-.61a2.011 2.011 0 0 1-.562-1.406V5.016c0-.532.187-1 .562-1.407C2.984 3.203 3.453 3 3.984 3h16.032c.53 0 .984.203 1.359.61.406.406.61.874.61 1.406v10.968c0 .532-.204 1-.61 1.407-.375.406-.828.609-1.36.609Z"/></svg>

  <!-- Quotation -->
  <svg viewBox="0 0 69 48" id="icon-quotation-lg" class="icon-sprite icon-quotation-lg">
    <path
        d="M35.123 48L37.0115 34.3082C38.2705 25.0754 41.5754 17.5213 46.9262 11.6459C52.2771 5.66558 59.4639 1.78361 68.4869 0L66.9131 11.8033C63.0312 12.6426 59.7787 14.2164 57.1557 16.5246C54.5328 18.7279 52.6443 21.3508 51.4902 24.3934H62.0344L58.7295 48H35.123ZM0.5 48L2.38852 34.3082C3.64754 25.0754 6.95246 17.5213 12.3033 11.6459C17.6541 5.66558 24.841 1.78361 33.8639 0L32.2902 11.8033C28.4082 12.6426 25.1557 14.2164 22.5328 16.5246C19.9098 18.7279 18.0213 21.3508 16.8672 24.3934H27.4115L24.1066 48H0.5Z" />
  </svg>

  <!-- Quotation pinter -->
  <svg viewBox="0 0 60 32" id="icon-quotation-pointer-lg" class="icon-sprite icon-quotation-pointer-lg">
    <path d="M60 0H0C2 19.2 26 32 41.9558 32C38.849 31.0675 32.5 6.4 60 0Z" />
  </svg>
</svg>