<svg version="1.1" xmlns="http://www.w3.org/2000/svg" xmlns:xlink="http://www.w3.org/1999/xlink" id="icon-sprite" class="icon-sprite">
  <defs>
    <style>
      svg .icon-sprite { display: none; }
      svg .icon-sprite:target { display: inline; } 
    </style>
  </defs>

  <!-- Profile -->
  <svg viewBox="0 0 18 18" id="icon-profile-md" class="icon-sprite icon-profile-md"><path fill-rule="evenodd" clip-rule="evenodd" d="M11.5 10a5.5 5.5 0 015.5 5.5v.5a1 1 0 01-1 1H2a1 1 0 01-1-1v-.5A5.5 5.5 0 016.5 10h5zm0 1.75h-5a3.75 3.75 0 00-3.73 3.354l-.011.146H15.24l-.01-.146a3.75 3.75 0 00-3.53-3.349l-.2-.005zM9 .5A4.25 4.25 0 119 9 4.25 4.25 0 019 .5zm0 1.75a2.5 2.5 0 100 5 2.5 2.5 0 000-5z" fill="#000"/></svg>
  <svg viewBox="0 0 24 24" id="icon-profile-lg" class="icon-sprite icon-profile-lg"><path fill-rule="evenodd" clip-rule="evenodd" d="M15 13a8 8 0 018 8v1a1 1 0 01-1 1H2a1 1 0 01-1-1v-1a8 8 0 018-8h6zm0 2H9a6 6 0 00-5.996 5.775L3 21h18a6 6 0 00-5.775-5.996L15 15zM12 .5a5.5 5.5 0 110 11 5.5 5.5 0 010-11zm0 2a3.5 3.5 0 100 7 3.5 3.5 0 000-7z" fill="#000"/></svg>

  <!-- Group -->
  <svg viewBox="0 0 18 18" id="icon-group-md" class="icon-sprite icon-group-md"><path fill-rule="evenodd" clip-rule="evenodd" d="M6.75 9a5.247 5.247 0 014.526 2.588A4.5 4.5 0 0118 15.5v.5a1 1 0 01-1 1H1a1 1 0 01-1-1v-1.75C0 11.35 2.35 9 5.25 9h1.5zm6.75 3.75l-.22.009c-.51.04-.981.22-1.373.5.046.241.075.487.087.739l.006.252v1h4.237l-.007-.082-.026-.17a2.752 2.752 0 00-2.356-2.226l-.18-.017-.168-.005zm-6.75-2h-1.5a3.5 3.5 0 00-3.495 3.308l-.005.192v1h8.5v-1a3.5 3.5 0 00-3.308-3.495l-.192-.005zm6.75-6.625a3 3 0 110 6 3 3 0 010-6zm0 1.75a1.25 1.25 0 100 2.5 1.25 1.25 0 000-2.5zM6 .375a3.75 3.75 0 110 7.5 3.75 3.75 0 010-7.5zm0 1.75a2 2 0 100 4 2 2 0 000-4z" fill="#000"/></svg>
  <svg viewBox="0 0 24 24" id="icon-group-lg" class="icon-sprite icon-group-lg"><path fill-rule="evenodd" clip-rule="evenodd" d="M9 12c2.675 0 5 1.5 6.178 3.705A6 6 0 0124 21v.5a1.5 1.5 0 01-1.5 1.5h-21A1.5 1.5 0 010 21.5V19a7 7 0 017-7h2zm9 5l-.26.008a3.962 3.962 0 00-1.876.611c.067.335.11.678.127 1.029L16 19v2h6l-.005-.206a4 4 0 00-3.592-3.774l-.203-.015L18 17zm-9-3H7a5 5 0 00-4.995 4.783L2 19v2h12v-2a5 5 0 00-4.783-4.995L9 14zm9-8.5a4 4 0 110 8 4 4 0 010-8zm0 1.9a2.1 2.1 0 100 4.2 2.1 2.1 0 000-4.2zM8 .5a5 5 0 110 10 5 5 0 010-10zm0 2a3 3 0 100 6 3 3 0 000-6z" fill="#000"/></svg>

  <!-- Language -->
  <svg viewBox="0 0 18 18" id="icon-language-md" class="icon-sprite icon-language-md"><path fill-rule="evenodd" clip-rule="evenodd" d="M9 0a9 9 0 110 18A9 9 0 019 0zm0 12.25c-.592 0-1.163.029-1.708.082.163.885.391 1.686.672 2.359.457 1.096.912 1.559 1.036 1.559s.58-.463 1.036-1.56c.28-.672.509-1.473.672-2.36A18.004 18.004 0 009 12.25zm3.44.338c-.227 1.254-.57 2.36-.997 3.24a7.263 7.263 0 003.101-2.156l.2-.247.083-.11c-.629-.279-1.441-.536-2.387-.727zm-6.88-.001c-.946.192-1.758.45-2.387.728a7.266 7.266 0 003.384 2.513c-.427-.88-.77-1.986-.997-3.241zM2.318 6.18l-.086.214A7.233 7.233 0 001.75 9c0 1 .203 1.954.568 2.82.835-.41 1.859-.744 3.011-.972a21.364 21.364 0 010-3.695c-1.008-.2-1.918-.48-2.69-.823l-.32-.15zm13.364 0c-.835.41-1.859.744-3.011.973a21.336 21.336 0 010 3.694c1.152.229 2.176.562 3.01.974.366-.867.569-1.82.569-2.821 0-1-.203-1.954-.568-2.82zm-4.746 1.226l-.28.026a20.125 20.125 0 01-3.592-.026 19.678 19.678 0 000 3.187 19.965 19.965 0 013.872 0 19.681 19.681 0 00.035-2.665l-.035-.522zM9 1.75c-.124 0-.58.462-1.036 1.56-.28.672-.509 1.473-.672 2.36a17.992 17.992 0 003.416-.002c-.163-.885-.391-1.686-.672-2.359C9.58 2.212 9.124 1.75 9 1.75zm2.443.422l.161.352c.352.815.638 1.795.836 2.89.946-.193 1.758-.45 2.386-.73a7.273 7.273 0 00-3.094-2.402l-.29-.11zm-4.886 0l-.305.117a7.264 7.264 0 00-3.078 2.397c.628.278 1.44.535 2.386.726.202-1.115.496-2.113.858-2.939l.139-.301z" fill="#000"/></svg>
  <svg viewBox="0 0 24 24" id="icon-language-lg" class="icon-sprite icon-language-lg"><path fill-rule="evenodd" clip-rule="evenodd" d="M12 0c6.627 0 12 5.373 12 12s-5.373 12-12 12S0 18.627 0 12 5.373 0 12 0zm0 16c-.927 0-1.819.05-2.664.138C9.917 19.632 11.133 22 12 22c.867 0 2.083-2.368 2.664-5.863A25.833 25.833 0 0012 16zm-4.65.427c-1.494.284-2.757.682-3.678 1.11a10.026 10.026 0 005.29 3.994c-.713-1.31-1.274-3.07-1.612-5.104zm9.3 0l-.067.38c-.342 1.872-.876 3.495-1.544 4.723a10.031 10.031 0 005.29-3.992c-.838-.39-1.958-.754-3.277-1.03l-.402-.081zM2.753 8.187A9.97 9.97 0 002 12c0 1.35.268 2.638.754 3.813 1.169-.588 2.655-1.063 4.349-1.378a28.497 28.497 0 01-.052-4.15l.038-.557.014-.161c-1.695-.316-3.181-.791-4.35-1.38zm18.494 0c-1.169.589-2.655 1.064-4.35 1.378a28.635 28.635 0 010 4.869c1.695.316 3.181.79 4.35 1.379A9.97 9.97 0 0022 12c0-1.35-.267-2.638-.753-3.813zm-6.336 1.664l-.306.032a28.41 28.41 0 01-5.516-.032 25.918 25.918 0 000 4.297A28.251 28.251 0 0112 14c1.004 0 1.979.051 2.91.15a25.917 25.917 0 00.04-3.776l-.039-.523zM12 2c-.867 0-2.083 2.368-2.663 5.864a25.814 25.814 0 005.327-.002C14.083 4.368 12.867 2 12 2zm-3.04.47l-.171.057A10.03 10.03 0 003.67 6.463c.922.428 2.185.827 3.68 1.11.312-1.887.819-3.54 1.46-4.815l.15-.287zm6.079 0l.181.35c.626 1.266 1.121 2.895 1.43 4.754 1.494-.284 2.757-.683 3.679-1.11a10.03 10.03 0 00-4.948-3.878l-.342-.116z" fill="#000"/></svg>

</svg>