<svg version="1.1" xmlns="http://www.w3.org/2000/svg" xmlns:xlink="http://www.w3.org/1999/xlink" id="icon-sprite" class="icon-sprite">
  <defs>
    <style>
      svg .icon-sprite { display: none; }
      svg .icon-sprite:target { display: inline; } 
    </style>
  </defs>

  <!-- Previous -->
  <svg viewBox="0 0 16 16" id="icon-previous-sm" class="icon-sprite icon-previous-sm"><path fill-rule="evenodd" clip-rule="evenodd" d="M4.819 7.399L9.967 2.25a.85.85 0 111.202 1.202L6.622 8l4.547 4.547a.85.85 0 01-1.202 1.202L4.819 8.6a.85.85 0 010-1.202z" fill="#000"/></svg>
  <svg viewbox="0 0 18 18" id="icon-previous-md" class="icon-sprite icon-previous-md"><path fill-rule="evenodd" clip-rule="evenodd" d="M5.316 8.381l6.124-6.123a.875.875 0 111.237 1.237L7.173 9l5.504 5.505a.875.875 0 01-1.237 1.237L5.316 9.62a.875.875 0 010-1.238z" fill="#000"/></svg>
  <svg viewBox="0 0 24 24" id="icon-previous-lg" class="icon-sprite icon-previous-lg"><path fill-rule="evenodd" clip-rule="evenodd" d="M6.793 11.291l8.997-8.998a1.002 1.002 0 111.417 1.417L8.919 12l8.288 8.29a1.002 1.002 0 01-1.417 1.416L6.793 12.71a1.002 1.002 0 010-1.418z" fill="#000"/></svg>

  <!-- Next -->
  <svg viewBox="0 0 16 16" id="icon-next-sm" class="icon-sprite icon-next-sm"><path fill-rule="evenodd" clip-rule="evenodd" d="M11.169 7.399 6.021 2.25A.85.85 0 1 0 4.82 3.453L9.366 8l-4.547 4.547a.85.85 0 0 0 1.202 1.202L11.17 8.6a.85.85 0 0 0 0-1.202Z"/></svg>
  <svg viewBox="0 0 18 18" id="icon-next-md" class="icon-sprite icon-next-md"><path fill-rule="evenodd" clip-rule="evenodd" d="M12.677 8.381 6.554 2.258a.875.875 0 0 0-1.238 1.237L10.821 9l-5.505 5.505a.875.875 0 0 0 1.238 1.237l6.123-6.123a.875.875 0 0 0 0-1.238Z" fill="#000"/></svg>
  <svg viewBox="0 0 24 24" id="icon-next-lg" class="icon-sprite icon-next-lg"><path fill-rule="evenodd" clip-rule="evenodd" d="M17.207 11.291 8.21 2.293A1.002 1.002 0 1 0 6.793 3.71L15.081 12l-8.288 8.29a1.002 1.002 0 0 0 1.417 1.416l8.997-8.997a1.002 1.002 0 0 0 0-1.418Z" fill="#000"/></svg>

  <!-- Back -->
  <svg viewBox="0 0 16 16" id="icon-back-sm" class="icon-sprite icon-back-sm"><path fill-rule="evenodd" clip-rule="evenodd" d="M5.232 7H13a1 1 0 110 2H5.232l3.407 3.416a.93.93 0 010 1.312.924.924 0 01-1.309 0L2.271 8.656a.93.93 0 010-1.312L7.33 2.272a.924.924 0 011.309 0 .93.93 0 010 1.312L5.232 7z" fill="#000"/></svg>
  <svg viewBox="0 0 18 18" id="icon-back-md" class="icon-sprite icon-back-md"><path fill-rule="evenodd" clip-rule="evenodd" d="M5.417 8H15a1 1 0 110 2H5.41l4.293 4.296A1 1 0 018.29 15.71l-5.996-6a1 1 0 010-1.415l5.996-6a1 1 0 111.414 1.416L5.417 8z" fill="#000"/></svg>
  <svg viewBox="0 0 24 24" id="icon-back-lg" class="icon-sprite icon-back-lg"><path fill-rule="evenodd" clip-rule="evenodd" d="M5.414 11H21a1 1 0 110 2H5.414l7.273 7.273a1 1 0 01-1.414 1.414l-8.98-8.98a1 1 0 010-1.414l8.98-8.98a1 1 0 011.414 1.414L5.414 11z" fill="#000"/></svg>

  <!-- Forward -->
  <svg viewBox="0 0 16 16" id="icon-forward-sm" class="icon-sprite icon-forward-sm"><path d="M10.8 9H3c-.6 0-1-.4-1-1s.4-1 1-1h7.8L7.4 3.6c-.4-.4-.4-.9 0-1.3s.9-.4 1.3 0l5.1 5.1c.4.4.4.9 0 1.3l-5.1 5.1c-.4.4-.9.4-1.3 0s-.4-.9 0-1.3l3.4-3.4Z" style="fill-rule:evenodd" fill="#000"/></svg>
  <svg viewBox="0 0 18 18" id="icon-forward-md" class="icon-sprite icon-forward-md"><path d="M12.6 10H3c-.6 0-1-.4-1-1s.4-1 1-1h9.6L8.3 3.7c-.4-.4-.4-1 0-1.4.4-.4 1-.4 1.4 0l6 6c.4.4.4 1 0 1.4l-6 6c-.4.4-1 .4-1.4 0-.4-.4-.4-1 0-1.4l4.3-4.3Z" style="fill-rule:evenodd" fill="#000"/></svg>
  <svg viewBox="0 0 24 24" id="icon-forward-lg" class="icon-sprite icon-forward-lg"><path d="M18.6 13H3c-.6 0-1-.4-1-1s.4-1 1-1h15.6l-7.3-7.3c-.4-.4-.4-1 0-1.4.4-.4 1-.4 1.4 0l9 9c.4.4.4 1 0 1.4l-9 9c-.4.4-1 .4-1.4 0-.4-.4-.4-1 0-1.4l7.3-7.3Z" style="fill-rule:evenodd"/></svg>

  <!-- Close -->
  <svg viewBox="0 0 16 16" id="icon-close-sm" class="icon-sprite icon-close-sm"><path fill-rule="evenodd" clip-rule="evenodd" d="M8 6.755l2.497-2.497a.88.88 0 111.245 1.245L9.245 8l2.497 2.497a.88.88 0 11-1.245 1.245L8 9.245l-2.497 2.497a.88.88 0 11-1.245-1.245L6.755 8 4.258 5.503a.88.88 0 011.245-1.245L8 6.755z" fill="#000"/></svg>
  <svg viewBox="0 0 18 18" id="icon-close-md" class="icon-sprite icon-close-md"><path fill-rule="evenodd" clip-rule="evenodd" d="M9 7.672l3.397-3.397a.939.939 0 111.328 1.328L10.328 9l3.397 3.397a.939.939 0 11-1.328 1.328L9 10.328l-3.397 3.397a.939.939 0 11-1.328-1.328L7.672 9 4.275 5.603a.94.94 0 011.328-1.328L9 7.672z" fill="#000"/></svg>
  <svg viewBox="0 0 24 24" id="icon-close-lg" class="icon-sprite icon-close-lg"><path fill-rule="evenodd" clip-rule="evenodd" d="M12 10.586l5.293-5.293a1 1 0 111.414 1.414L13.414 12l5.293 5.293a1 1 0 01-1.414 1.414L12 13.414l-5.293 5.293a1 1 0 01-1.414-1.414L10.586 12 5.293 6.707a1 1 0 011.414-1.414L12 10.586z" fill="#000"/></svg>

  <!-- Add -->
  <svg viewBox="0 0 16 16" id="icon-add-sm" class="icon-sprite icon-add-sm"><path fill-rule="evenodd" clip-rule="evenodd" d="M2.343 7.208a.792.792 0 000 1.583H7.21v4.866a.792.792 0 101.583 0V8.79h4.865a.792.792 0 100-1.583H8.792V2.343a.792.792 0 10-1.583 0v4.865H2.343z" fill="#000"/></svg>
  <svg viewBox="0 0 18 18" id="icon-add-md" class="icon-sprite icon-add-md"><path fill-rule="evenodd" clip-rule="evenodd" d="M2.636 8.125a.875.875 0 100 1.75h5.489v5.489a.875.875 0 001.75 0v-5.49h5.489a.875.875 0 000-1.75h-5.49V2.637a.875.875 0 00-1.75 0v5.489H2.637z" fill="#000"/></svg>
  <svg viewBox="0 0 24 24" id="icon-add-lg" class="icon-sprite icon-add-lg"><path fill-rule="evenodd" clip-rule="evenodd" d="M11 11V3.514a1 1 0 112 0V11h7.485a1 1 0 110 2H13v7.485a1 1 0 11-2 0V13H3.515a1 1 0 010-2H11z" fill="#000"/></svg>

  <!-- Linkout -->
  <svg viewBox="0 0 18 18" id="icon-linkout-md" class="icon-sprite icon-linkout-md"><path fill-rule="evenodd" clip-rule="evenodd" d="M6.513 4.125a.875.875 0 010 1.75H2.88A.125.125 0 002.755 6v9.12c0 .069.056.125.125.125H12a.125.125 0 00.125-.125v-3.633a.875.875 0 111.75 0v3.633c0 1.035-.84 1.875-1.875 1.875H2.88a1.875 1.875 0 01-1.875-1.875V6c0-1.036.84-1.875 1.875-1.875h3.633zm9.357-3.12c.58 0 1.057.439 1.118 1.002l.007.123v5.99a.875.875 0 01-1.743.11l-.007-.11V3.992l-7.16 7.16a.875.875 0 01-1.147.078l-.09-.079a.875.875 0 01-.078-1.147l.078-.09 7.16-7.16H9.88a.875.875 0 01-.868-.764l-.007-.11c0-.446.334-.814.765-.868l.11-.007h5.99z" fill="#000"/></svg>
  <svg viewBox="0 0 24 24" id="icon-linkout-lg" class="icon-sprite icon-linkout-lg"><path fill-rule="evenodd" clip-rule="evenodd" d="M8.611 4a1 1 0 110 2H3v15h15v-5.611a1 1 0 112 0V21a2 2 0 01-2 2H3a2 2 0 01-2-2V6a2 2 0 012-2h5.611zM21.75 1c.647 0 1.18.492 1.244 1.122L23 2.25V11a1 1 0 01-1.993.117L21 11V4.414L10.291 15.122a1 1 0 01-1.32.083l-.094-.083a1 1 0 01-.083-1.32l.083-.094L19.584 3H13a1 1 0 01-.993-.883L12 2a1 1 0 01.883-.993L13 1h8.75z" fill="#000"/></svg>
  <svg viewBox="0 0 16 16" id="icon-linkout-sm" class="icon-sprite icon-linkout-sm"><path fill-rule="evenodd" clip-rule="evenodd" d="M5.79 3.667a.778.778 0 1 1 0 1.555H2.56a.111.111 0 0 0-.11.111v8.107c0 .061.049.111.11.111h8.107c.061 0 .111-.05.111-.111v-3.23a.778.778 0 0 1 1.556 0v3.23c0 .92-.747 1.667-1.667 1.667H2.56c-.92 0-1.666-.747-1.666-1.667V5.333c0-.92.746-1.666 1.666-1.666h3.23ZM14.107.893a1 1 0 0 1 .994.891l.006.11v5.324a.778.778 0 0 1-1.55.097l-.006-.097v-3.67L7.188 9.912a.778.778 0 0 1-1.02.07l-.08-.07a.778.778 0 0 1-.07-1.02l.07-.08L12.45 2.45H8.782a.778.778 0 0 1-.771-.68l-.006-.098c0-.396.296-.724.68-.772l.097-.006h5.325Z" fill="#000"/></svg>

</svg>