<svg version="1.1" xmlns="http://www.w3.org/2000/svg" xmlns:xlink="http://www.w3.org/1999/xlink" id="icon-sprite" class="icon-sprite">
  <defs>
    <style>
      svg .icon-sprite { display: none; }
      svg .icon-sprite:target { display: inline; } 
    </style>
  </defs>

  <!-- Cart -->
  <svg viewBox="0 0 18 18" id="icon-cart-md" class="icon-sprite icon-cart-md"><path fill-rule="evenodd" clip-rule="evenodd" d="M6.5 14a1.5 1.5 0 110 3 1.5 1.5 0 010-3zm7 0a1.5 1.5 0 110 3 1.5 1.5 0 010-3zM2.99 1a1.5 1.5 0 011.473 1.22L4.802 4h11.442a.75.75 0 01.737.89l-1.155 6.077A2.5 2.5 0 0113.37 13H6.804a2.5 2.5 0 01-2.456-2.032L2.86 3.156a.5.5 0 00-.49-.406h-.995a.875.875 0 01-.868-.765L.5 1.875C.5 1.392.892 1 1.375 1H2.99zm2.145 4.75l.893 4.687a1 1 0 00.864.806l.118.007h6.151a1 1 0 00.954-.699l.029-.115.886-4.686H5.135z" fill="#000"/></svg>
  <svg viewBox="0 0 24 24" id="icon-cart-lg" class="icon-sprite icon-cart-lg"><path fill-rule="evenodd" clip-rule="evenodd" d="M8.25 19.5a1.75 1.75 0 110 3.5 1.75 1.75 0 010-3.5zm10.5 0a1.75 1.75 0 110 3.5 1.75 1.75 0 010-3.5zM3.438 2a2 2 0 011.968 1.642L5.835 6h16.166a1 1 0 01.984 1.18l-1.526 8.359A3 3 0 0118.508 18H8.488a3 3 0 01-2.952-2.464L3.551 4.616A.75.75 0 002.813 4H1.5a1 1 0 01-.993-.883L.5 3a1 1 0 011-1h1.938zm2.76 6l1.306 7.179a1 1 0 00.864.814l.12.007h10.019a1 1 0 00.955-.704l.029-.116L20.8 8H6.198z" fill="#000"/></svg>

  <!-- Delivery -->
  <svg viewBox="0 0 16 16" id="icon-delivery-sm" class="icon-sprite icon-delivery-sm"><path fill-rule="evenodd" clip-rule="evenodd" d="M11.281 13.063a.974.974 0 0 0 .719.28.947.947 0 0 0 .719-.296.988.988 0 0 0 .281-.703.988.988 0 0 0-.281-.703.947.947 0 0 0-.719-.297.947.947 0 0 0-.719.297.988.988 0 0 0-.281.703c0 .27.094.51.281.719ZM13 7.343h-1.656V9h2.969L13 7.344Zm-9.719 5.72a.973.973 0 0 0 .719.28.947.947 0 0 0 .719-.296.988.988 0 0 0 .281-.703.988.988 0 0 0-.281-.703.947.947 0 0 0-.719-.297.947.947 0 0 0-.719.297.988.988 0 0 0-.281.703c0 .27.094.51.281.719Zm10.063-6.72 2 2.657v3.344H14c0 .541-.198 1.01-.594 1.406a1.922 1.922 0 0 1-1.406.594c-.542 0-1.01-.198-1.406-.594A1.922 1.922 0 0 1 10 12.344H6c0 .541-.198 1.01-.594 1.406A1.922 1.922 0 0 1 4 14.344c-.542 0-1.01-.198-1.406-.594A1.922 1.922 0 0 1 2 12.344H.656V5c0-.354.136-.667.406-.938.271-.27.584-.406.938-.406h9.344v2.688h2Z" fill="#000"/></svg>
  <svg viewBox="0 0 18 18" id="icon-delivery-md" class="icon-sprite icon-delivery-md"><path fill-rule="evenodd" clip-rule="evenodd" d="M12.691 13.57c.211.211.48.317.809.317.328 0 .598-.112.809-.334.21-.223.316-.487.316-.791 0-.305-.105-.569-.316-.791a1.065 1.065 0 0 0-.809-.334c-.328 0-.598.111-.809.334-.21.222-.316.486-.316.79 0 .305.105.575.316.81Zm1.934-6.433h-1.863V9h3.34l-1.477-1.863ZM3.691 13.57c.211.211.48.317.809.317.328 0 .598-.112.809-.334.21-.223.316-.487.316-.791 0-.305-.105-.569-.316-.791a1.065 1.065 0 0 0-.809-.334c-.328 0-.598.111-.809.334-.21.222-.316.486-.316.79 0 .305.105.575.316.81Zm11.32-7.558L17.262 9v3.762H15.75c0 .61-.223 1.136-.668 1.582-.445.445-.973.668-1.582.668-.61 0-1.137-.223-1.582-.668-.445-.446-.668-.973-.668-1.582h-4.5c0 .61-.223 1.136-.668 1.582-.445.445-.973.668-1.582.668-.61 0-1.137-.223-1.582-.668-.445-.446-.668-.973-.668-1.582H.738V4.5c0-.398.153-.75.457-1.055.305-.304.657-.457 1.055-.457h10.512v3.024h2.25Z" fill="#000"/></svg>
  <svg viewBox="0 0 24 24" id="icon-delivery-lg" class="icon-sprite icon-delivery-lg"><path fill-rule="evenodd" clip-rule="evenodd" d="M16.922 18.094c.281.281.64.422 1.078.422.438 0 .797-.149 1.078-.446.281-.297.422-.648.422-1.054 0-.407-.14-.758-.422-1.055-.281-.297-.64-.445-1.078-.445-.438 0-.797.148-1.078.445a1.482 1.482 0 0 0-.422 1.055c0 .406.14.765.422 1.078ZM19.5 9.516h-2.484V12h4.453L19.5 9.516ZM4.922 18.094c.281.281.64.422 1.078.422.438 0 .797-.149 1.078-.446.281-.297.422-.648.422-1.054 0-.407-.14-.758-.422-1.055-.281-.297-.64-.445-1.078-.445-.438 0-.797.148-1.078.445a1.482 1.482 0 0 0-.422 1.055c0 .406.14.765.422 1.078ZM20.016 8.016l3 3.984v5.016H21c0 .812-.297 1.515-.89 2.109-.594.594-1.297.89-2.11.89s-1.516-.296-2.11-.89c-.593-.594-.89-1.297-.89-2.11H9c0 .813-.297 1.516-.89 2.11-.594.594-1.297.89-2.11.89s-1.516-.296-2.11-.89c-.593-.594-.89-1.297-.89-2.11H.984V6c0-.531.204-1 .61-1.406.406-.407.875-.61 1.406-.61h14.016v4.032h3Z" fill="#000"/></svg>

  <!-- Envelope -->
  <svg viewBox="0 0 16 16" id="icon-envelope-sm" class="icon-sprite icon-envelope-sm"><path fill-rule="evenodd" clip-rule="evenodd" d="M8.008 9c.12 0 .25-.023.39-.07.141-.047.29-.117.45-.211.159-.094.294-.179.406-.254.112-.076.253-.175.422-.297.17-.122.28-.202.332-.238l3.656-2.54c.38-.265.698-.585.953-.96S15 3.66 15 3.25c0-.344-.124-.638-.371-.883A1.208 1.208 0 0 0 13.75 2H2.25c-.401 0-.71.135-.926.406-.216.271-.324.61-.324 1.016 0 .328.143.683.43 1.066.286.383.59.684.914.903.177.125.71.496 1.601 1.113.89.617 1.573 1.092 2.047 1.426.052.036.163.116.332.238.17.122.31.221.422.297.112.075.247.16.406.254.16.094.309.164.45.21.14.048.27.071.39.071h.016Zm5.742 5.001c.344 0 .638-.122.883-.367s.367-.539.367-.883V5.547c-.224.25-.484.476-.781.68a162.69 162.69 0 0 0-3.89 2.695c-.298.219-.539.39-.724.512a4.464 4.464 0 0 1-.738.375 2.251 2.251 0 0 1-.86.191h-.015c-.265 0-.552-.064-.86-.191a4.464 4.464 0 0 1-.737-.375 18.487 18.487 0 0 1-.723-.512c-.703-.516-1.998-1.414-3.883-2.695A4.143 4.143 0 0 1 1 5.547v7.204c0 .344.122.638.367.883s.54.367.883.367h11.5Z" fill="#000"/></svg>
  <svg viewBox="0 0 18 18" id="icon-envelope-md" class="icon-sprite icon-envelope-md"><path fill-rule="evenodd" clip-rule="evenodd" d="M9.00893 10C9.14583 10 9.29464 9.97321 9.45536 9.91964C9.61607 9.86607 9.7872 9.78571 9.96875 9.67857C10.1503 9.57143 10.3051 9.4747 10.433 9.38839C10.561 9.30208 10.7217 9.18899 10.9152 9.04911C11.1086 8.90923 11.2351 8.81845 11.2946 8.77679C11.8423 8.39583 13.2351 7.42857 15.4732 5.875C15.9077 5.57143 16.2708 5.20536 16.5625 4.77679C16.8542 4.34821 17 3.89881 17 3.42857C17 3.03571 16.8586 2.6994 16.5759 2.41964C16.2932 2.13988 15.9583 2 15.5714 2V2H2.42857C1.97024 2 1.61756 2.15476 1.37054 2.46429C1.12351 2.77381 1 3.16071 1 3.625C1 4 1.16369 4.40625 1.49107 4.84375C1.81845 5.28125 2.16667 5.625 2.53571 5.875C2.7381 6.01786 3.34821 6.44196 4.36607 7.14732C5.38393 7.85268 6.16369 8.39583 6.70536 8.77679C6.76488 8.81845 6.89137 8.90923 7.08482 9.04911C7.27827 9.18899 7.43899 9.30208 7.56696 9.38839C7.69494 9.4747 7.8497 9.57143 8.03125 9.67857C8.2128 9.78571 8.38393 9.86607 8.54464 9.91964C8.70536 9.97321 8.85417 10 8.99107 10V10H9.00893ZM15.5714 16C15.9643 16 16.3006 15.8601 16.5804 15.5804C16.8601 15.3006 17 14.9643 17 14.5714V6.05357C16.744 6.33929 16.4464 6.59821 16.1071 6.83036C14.1548 8.15179 12.6726 9.17857 11.6607 9.91071C11.3214 10.1607 11.0461 10.3557 10.8348 10.4955C10.6235 10.6354 10.3423 10.7783 9.99107 10.9241C9.63988 11.0699 9.3125 11.1429 9.00893 11.1429H8.99107C8.6875 11.1429 8.36012 11.0699 8.00893 10.9241C7.65774 10.7783 7.37649 10.6354 7.16518 10.4955C6.95387 10.3557 6.67857 10.1607 6.33929 9.91071C5.53571 9.32143 4.05655 8.29464 1.90179 6.83036C1.5625 6.60417 1.2619 6.34524 1 6.05357V14.5714C1 14.9643 1.13988 15.3006 1.41964 15.5804C1.6994 15.8601 2.03571 16 2.42857 16H15.5714Z" fill="#000"/></svg>
  <svg viewBox="0 0 24 24" id="icon-envelope-lg" class="icon-sprite icon-envelope-lg"><path fill-rule="evenodd" clip-rule="evenodd" d="M12.0123 14C12.2005 14 12.4051 13.9632 12.6261 13.8895C12.8471 13.8158 13.0824 13.7054 13.332 13.558C13.5817 13.4107 13.7945 13.2777 13.9704 13.159C14.1464 13.0404 14.3674 12.8849 14.6334 12.6925C14.8994 12.5002 15.0733 12.3754 15.1551 12.3181C15.9081 11.7943 17.8233 10.4643 20.9007 8.32812C21.4981 7.91071 21.9974 7.40737 22.3984 6.81808C22.7995 6.22879 23 5.61086 23 4.96429C23 4.42411 22.8056 3.96168 22.4169 3.57701C22.0281 3.19234 21.5677 3 21.0357 3V3H2.96429C2.33408 3 1.84914 3.2128 1.50949 3.63839C1.16983 4.06399 1 4.59598 1 5.23438C1 5.75 1.22507 6.30859 1.67522 6.91016C2.12537 7.51172 2.60417 7.98438 3.11161 8.32812C3.38988 8.52455 4.22879 9.1077 5.62835 10.0776C7.0279 11.0474 8.10007 11.7943 8.84487 12.3181C8.92671 12.3754 9.10063 12.5002 9.36663 12.6925C9.63263 12.8849 9.85361 13.0404 10.0296 13.159C10.2055 13.2777 10.4183 13.4107 10.668 13.558C10.9176 13.7054 11.1529 13.8158 11.3739 13.8895C11.5949 13.9632 11.7995 14 11.9877 14V14H12.0123ZM21.0357 21C21.5759 21 22.0383 20.8077 22.423 20.423C22.8077 20.0383 23 19.5759 23 19.0357V8.57366C22.6481 8.96652 22.2388 9.32254 21.7723 9.64174C19.0878 11.4587 17.0499 12.8705 15.6585 13.8772C15.192 14.221 14.8134 14.489 14.5229 14.6814C14.2323 14.8737 13.8456 15.0701 13.3627 15.2706C12.8798 15.4712 12.4297 15.5714 12.0123 15.5714H11.9877C11.5703 15.5714 11.1202 15.4712 10.6373 15.2706C10.1544 15.0701 9.76767 14.8737 9.47712 14.6814C9.18657 14.489 8.80804 14.221 8.34152 13.8772C7.23661 13.067 5.20275 11.6551 2.23996 9.64174C1.77344 9.33073 1.36012 8.9747 1 8.57366C1 8.57366 1 18.4955 1 19.0357C1 19.5759 1.19234 20.0383 1.57701 20.423C1.96168 20.8077 2.42411 21 2.96429 21H21.0357Z" fill="#000"/></svg>

  <!-- Location -->
  <svg viewBox="0 0 16 16" id="icon-location-sm" class="icon-sprite icon-location-sm"><path fill-rule="evenodd" clip-rule="evenodd" d="M7.571 14.714a1.147 1.147 0 001.027-.634l3.25-6.91c.197-.417.295-.95.295-1.599 0-1.261-.447-2.339-1.34-3.232C9.912 1.446 8.834 1 7.572 1 6.31 1 5.232 1.446 4.34 2.34 3.446 3.231 3 4.31 3 5.57c0 .65.098 1.182.295 1.599l3.259 6.91c.089.197.227.351.415.465.187.113.388.17.602.17zm0-6.857c-.63 0-1.17-.223-1.616-.67a2.202 2.202 0 01-.67-1.616c0-.63.224-1.17.67-1.616.447-.446.985-.67 1.616-.67.631 0 1.17.224 1.617.67.446.447.67.985.67 1.616 0 .631-.224 1.17-.67 1.617-.447.446-.986.67-1.617.67z" fill="#000"/></svg>
  <svg viewBox="0 0 18 18" id="icon-location-md" class="icon-sprite icon-location-md"><path fill-rule="evenodd" clip-rule="evenodd" d="M9.143 16.429a1.29 1.29 0 001.155-.714l3.656-7.774c.221-.469.332-1.068.332-1.798 0-1.42-.502-2.632-1.507-3.636C11.775 1.502 10.563 1 9.143 1s-2.632.502-3.636 1.507C4.502 3.51 4 4.723 4 6.143c0 .73.11 1.33.331 1.798l3.667 7.774c.1.221.256.395.467.523.21.127.437.19.678.19zm0-7.715c-.71 0-1.316-.25-1.818-.753a2.477 2.477 0 01-.754-1.818c0-.71.252-1.316.754-1.818a2.477 2.477 0 011.818-.754c.71 0 1.316.252 1.818.754s.753 1.108.753 1.818-.25 1.316-.753 1.818a2.477 2.477 0 01-1.818.753z" fill="#000"/></svg>
  <svg viewBox="0 0 24 24" id="icon-location-lg" class="icon-sprite icon-location-lg"><path fill-rule="evenodd" clip-rule="evenodd" d="M11.857 22.571c.322 0 .623-.084.904-.254.281-.17.494-.402.636-.697l4.875-10.366c.295-.624.442-1.424.442-2.397 0-1.893-.67-3.509-2.009-4.848C15.366 2.669 13.75 2 11.857 2c-1.893 0-3.509.67-4.848 2.009C5.669 5.349 5 6.964 5 8.857c0 .973.147 1.773.442 2.398L10.33 21.62c.134.295.342.527.623.697.281.17.583.254.904.254zm0-10.285a3.303 3.303 0 01-2.424-1.005 3.303 3.303 0 01-1.004-2.424c0-.946.334-1.754 1.004-2.424a3.303 3.303 0 012.424-1.004c.947 0 1.755.334 2.424 1.004a3.303 3.303 0 011.005 2.424c0 .947-.335 1.755-1.005 2.424a3.303 3.303 0 01-2.424 1.005z" fill="#000"/></svg>

  <!-- Order -->
  <svg viewBox="0 0 16 16" id="icon-order-sm" class="icon-sprite icon-order-sm"><path fill-rule="evenodd" clip-rule="evenodd" d="M8.221 0a1.6 1.6 0 00-1.509 1.069h-.624A1.6 1.6 0 004.58 2.135H3.6a1.6 1.6 0 00-1.595 1.49L2 3.736V14.4a1.6 1.6 0 001.49 1.596L3.6 16h4.266c.062 0 .122-.01.178-.03.054.02.114.03.177.03h4.266a1.6 1.6 0 001.6-1.6V3.735a1.6 1.6 0 00-1.6-1.6h-.624a1.6 1.6 0 00-1.509-1.066H9.73A1.6 1.6 0 008.221 0zM4.488 3.735c0 .295.24.533.534.533h6.399a.533.533 0 00.533-.533v-.533h.533c.295 0 .533.239.533.533V14.4a.533.533 0 01-.533.534H8.221a.532.532 0 00-.179.03.505.505 0 00-.115-.027l-.061-.003H3.6c-.27 0-.493-.201-.529-.461l-.005-.073V3.735c0-.27.2-.493.461-.528l.073-.005h.888v.533zM8.221 1.07c.295 0 .533.239.533.533 0 .295.24.533.534.533h1.066c.295 0 .533.24.533.534v.533H5.555v-.533c0-.295.239-.534.533-.534h1.067a.533.533 0 00.533-.533c0-.294.239-.533.533-.533z" fill="#000"/><path fill-rule="evenodd" clip-rule="evenodd" d="M9.11 6.267a.221.221 0 00-.075-.172l-.376-.336a.268.268 0 00-.186-.071.268.268 0 00-.186.071L6.601 7.278l-.935-.843a.268.268 0 00-.186-.071.268.268 0 00-.186.07l-.376.336a.221.221 0 00-.074.172c0 .067.025.123.074.168l1.497 1.351c.052.047.114.071.186.071a.274.274 0 00.19-.07l2.244-2.027c.05-.045.075-.101.075-.168zM9.11 10.533a.221.221 0 00-.075-.172l-.376-.336a.268.268 0 00-.186-.07.268.268 0 00-.186.07l-1.686 1.52-.935-.844a.268.268 0 00-.186-.071.268.268 0 00-.186.07l-.376.337a.221.221 0 00-.074.171c0 .067.025.123.074.168l1.497 1.351c.052.047.114.071.186.071a.274.274 0 00.19-.07L9.035 10.7c.05-.045.075-.101.075-.168z" fill="#000"/></svg>
  <svg viewBox="0 0 18 18" id="icon-order-md" class="icon-sprite icon-order-md"><path fill-rule="evenodd" clip-rule="evenodd" d="M9 0A1.8 1.8 0 007.3 1.202H6.6a1.8 1.8 0 00-1.697 1.2H3.8A1.8 1.8 0 002.004 4.08L2 4.202V16.2a1.8 1.8 0 001.677 1.796L3.8 18h4.8a.6.6 0 00.2-.034c.06.022.129.034.2.034h4.798a1.8 1.8 0 001.8-1.8V4.202a1.8 1.8 0 00-1.8-1.8h-.702a1.8 1.8 0 00-1.697-1.2h-.702A1.8 1.8 0 008.999 0zM4.8 4.202a.6.6 0 00.6.6h7.199a.6.6 0 00.6-.6v-.6h.6a.6.6 0 01.6.6V16.2a.6.6 0 01-.6.6h-4.8a.598.598 0 00-.2.035.567.567 0 00-.13-.03l-.07-.005H3.8a.6.6 0 01-.594-.518L3.2 16.2V4.202a.6.6 0 01.518-.594l.082-.006h1v.6zm4.2-3a.6.6 0 01.599.6.6.6 0 00.6.6h1.2a.6.6 0 01.6.6v.6h-6v-.6a.6.6 0 01.6-.6h1.2a.6.6 0 00.6-.6.6.6 0 01.6-.6z" fill="#000"/><path fill-rule="evenodd" clip-rule="evenodd" d="M9.999 7.05a.249.249 0 00-.084-.193l-.423-.378a.302.302 0 00-.21-.08c-.08 0-.15.027-.209.08L7.176 8.188l-1.051-.95a.302.302 0 00-.21-.079c-.08 0-.15.027-.209.08l-.423.378a.249.249 0 00-.084.193c0 .075.028.138.084.189l1.683 1.52c.06.053.13.08.21.08a.308.308 0 00.214-.08l2.525-2.28a.244.244 0 00.084-.19zM9.999 11.85a.249.249 0 00-.084-.194l-.423-.378a.302.302 0 00-.21-.08c-.08 0-.15.027-.209.08l-1.897 1.71-1.051-.95a.302.302 0 00-.21-.08c-.08 0-.15.027-.209.08l-.423.378a.249.249 0 00-.084.193c0 .076.028.139.084.19l1.683 1.52c.06.052.13.079.21.079a.308.308 0 00.214-.08l2.525-2.28a.244.244 0 00.084-.189z" fill="#000"/></svg>
  <svg viewBox="0 0 24 24" id="icon-order-lg" class="icon-sprite icon-order-lg"><path fill-rule="evenodd" clip-rule="evenodd" d="M12.332 0a2.4 2.4 0 00-2.264 1.603h-.936a2.4 2.4 0 00-2.263 1.6H5.4a2.4 2.4 0 00-2.394 2.235L3 5.603V21.6a2.4 2.4 0 002.235 2.394L5.4 24h6.4a.797.797 0 00.266-.046c.082.03.173.046.267.046h6.399a2.4 2.4 0 002.4-2.4V5.603a2.4 2.4 0 00-2.4-2.4h-.937a2.4 2.4 0 00-2.263-1.6h-.936A2.4 2.4 0 0012.332 0zm-5.6 5.603a.8.8 0 00.8.8h9.599a.8.8 0 00.8-.8v-.8h.8a.8.8 0 01.8.8V21.6a.8.8 0 01-.8.8h-6.4a.798.798 0 00-.267.046.752.752 0 00-.173-.04l-.093-.006H5.4a.8.8 0 01-.792-.691l-.008-.109V5.603a.8.8 0 01.692-.793l.108-.007h1.334v.8zm5.6-4a.8.8 0 01.8.8.8.8 0 00.8.8h1.6a.8.8 0 01.8.8v.8h-8v-.8a.8.8 0 01.8-.8h1.6a.8.8 0 00.8-.8.8.8 0 01.8-.8z" fill="#000"/><path fill-rule="evenodd" clip-rule="evenodd" d="M13.665 9.4a.331.331 0 00-.112-.258l-.564-.504a.402.402 0 00-.28-.106c-.107 0-.2.036-.278.106L9.9 10.917 8.5 9.652a.403.403 0 00-.28-.107c-.107 0-.2.036-.279.107l-.564.504a.332.332 0 00-.111.257c0 .1.037.185.111.252l2.245 2.027a.402.402 0 00.279.106.41.41 0 00.285-.106l3.367-3.04a.325.325 0 00.112-.252zM13.665 15.799a.331.331 0 00-.112-.258l-.564-.504a.402.402 0 00-.28-.106c-.107 0-.2.036-.278.107L9.9 17.316 8.5 16.051a.403.403 0 00-.28-.106c-.107 0-.2.035-.279.106l-.564.504a.331.331 0 00-.111.257c0 .101.037.185.111.252l2.245 2.027c.078.07.171.106.279.106a.41.41 0 00.285-.106l3.367-3.04a.325.325 0 00.112-.252z" fill="#000"/></svg>

  <!-- Payment -->
  <svg viewBox="0 0 16 16" id="icon-payment-sm" class="icon-sprite icon-payment-sm"><path fill-rule="evenodd" clip-rule="evenodd" d="M14.012 5.012V3.5H1.988v1.512h12.024zm0 7.488V8H1.988v4.5h12.024zm0-10.512c.422 0 .773.147 1.054.44.282.293.422.65.422 1.072v9c0 .422-.14.78-.422 1.072-.28.293-.632.44-1.054.44H1.988c-.422 0-.773-.147-1.054-.44A1.49 1.49 0 01.512 12.5v-9c0-.422.14-.78.422-1.072.28-.293.632-.44 1.054-.44h12.024z" fill="#000"/></svg>
  <svg viewBox="0 0 18 18" id="icon-payment-md" class="icon-sprite icon-payment-md"><path fill-rule="evenodd" clip-rule="evenodd" d="M15.68 5.68V4H2.32v1.68h13.36zm0 8.32V9H2.32v5h13.36zm0-11.68c.468 0 .86.163 1.172.489.312.325.468.722.468 1.191v10c0 .469-.156.866-.468 1.191a1.558 1.558 0 01-1.172.489H2.32c-.468 0-.86-.163-1.172-.489A1.656 1.656 0 01.68 14V4c0-.469.156-.866.468-1.191A1.557 1.557 0 012.32 2.32h13.36z" fill="#000"/></svg>
  <svg viewBox="0 0 24 24" id="icon-payment-lg" class="icon-sprite icon-payment-lg"><path fill-rule="evenodd" clip-rule="evenodd" d="M20.684 7.684V5.5H3.316v2.184h17.368zm0 10.816V12H3.316v6.5h17.368zm0-15.184c.609 0 1.117.212 1.523.635.406.423.61.94.61 1.549v13c0 .61-.204 1.126-.61 1.549-.406.423-.914.635-1.523.635H3.316c-.609 0-1.117-.212-1.523-.635-.406-.423-.61-.94-.61-1.549v-13c0-.61.204-1.126.61-1.549.406-.423.914-.635 1.523-.635h17.368z" fill="#000"/></svg>

  <!-- Preorder -->
  <svg viewBox="0 0 16 16" id="icon-preorder-sm" class="icon-sprite icon-preorder-sm"><path fill-rule="evenodd" clip-rule="evenodd" d="M13.134 4.334A3.48 3.48 0 019.667 7.8a3.48 3.48 0 01-3.466-3.467c0-.112.005-.222.015-.331V4A3.479 3.479 0 019.668.867a3.479 3.479 0 013.467 3.467zM9.667 8.667A4.35 4.35 0 015.385 5H3.654l.997 5.611 10.282-1.059V5h-.985a4.35 4.35 0 01-4.281 3.667zM3.474 4h1.872c.172-2.23 2.05-4 4.32-4a4.348 4.348 0 014.321 4h1.48c.294 0 .533.224.533.5V10c0 .255-.205.47-.475.497L4.825 11.6l.253 1.426c.57.095 1.033.473 1.224.974h5.53c.22-.58.807-1 1.501-1 .695 0 1.281.42 1.502 1h.632c.294 0 .533.224.533.5s-.239.5-.533.5h-.632c-.22.58-.807 1-1.502 1-.694 0-1.28-.42-1.501-1h-5.53c-.221.58-.808 1-1.502 1-.882 0-1.6-.673-1.6-1.5 0-.563.336-1.048.827-1.305L2.215 3H.533C.24 3 0 2.776 0 2.5S.239 2 .533 2h2.134c.26 0 .482.176.526.417L3.473 4zm10.393 10.5c0-.276-.24-.5-.534-.5-.294 0-.533.224-.533.5s.239.5.533.5c.295 0 .534-.224.534-.5zM4.8 15c.294 0 .533-.224.533-.5S5.094 14 4.8 14c-.294 0-.533.224-.533.5s.239.5.533.5zM9.237 2.167h.65V4.42l1.95 1.17-.347.52-2.253-1.343v-2.6z" fill="#000"/></svg>
  <svg viewBox="0 0 18 18" id="icon-preorder-md" class="icon-sprite icon-preorder-md"><path fill-rule="evenodd" clip-rule="evenodd" d="M16.8 5.625h-1.108c-.364 2.329-2.39 4.125-4.817 4.125-2.426 0-4.453-1.796-4.817-4.125H4.11l1.122 6.313L16.8 10.746V5.625zM15.736 4.5C15.542 1.992 13.43 0 10.875 0 8.32 0 6.207 1.992 6.015 4.5H3.907l-.316-1.78A.59.59 0 003 2.25H.6c-.332 0-.6.252-.6.563 0 .31.268.562.6.562h1.892l2.038 11.47c-.552.288-.93.834-.93 1.467 0 .931.807 1.688 1.8 1.688.781 0 1.441-.472 1.69-1.125h6.22C13.56 17.528 14.22 18 15 18c.781 0 1.441-.472 1.69-1.125h.71c.332 0 .6-.252.6-.563 0-.31-.268-.562-.6-.562h-.71c-.249-.653-.909-1.125-1.69-1.125-.781 0-1.441.472-1.69 1.125H7.09a1.769 1.769 0 00-1.378-1.095l-.285-1.606 12.039-1.24c.304-.031.534-.272.534-.559V5.062c0-.31-.268-.562-.6-.562h-1.664zm-8.743.003V4.5A3.913 3.913 0 0110.877.976a3.913 3.913 0 013.9 3.9 3.884 3.884 0 01-.073.749 3.915 3.915 0 01-3.827 3.15 3.915 3.915 0 01-3.828-3.15 3.88 3.88 0 01-.055-1.122zm8.607 11.81c0-.31-.269-.563-.6-.563-.331 0-.6.252-.6.563 0 .31.269.562.6.562.331 0 .6-.252.6-.563zm-10.2.562c.331 0 .6-.252.6-.563 0-.31-.269-.562-.6-.562-.331 0-.6.252-.6.563 0 .31.269.562.6.562zm4.992-14.438h.73v2.536l2.195 1.316-.39.585-2.535-1.511V2.436z" fill="#000"/></svg>
  <svg viewBox="0 0 24 24" id="icon-preorder-lg" class="icon-sprite icon-preorder-lg"><path fill-rule="evenodd" clip-rule="evenodd" d="M22.4 7.5h-1.477c-.485 3.105-3.188 5.5-6.423 5.5s-5.938-2.395-6.423-5.5H5.48l1.497 8.417L22.4 14.328V7.5zM20.98 6c-.257-3.344-3.073-6-6.48-6-3.407 0-6.223 2.656-6.48 6H5.21L4.79 3.626C4.724 3.265 4.391 3 4 3H.8c-.442 0-.8.336-.8.75s.358.75.8.75h2.523L6.04 19.793c-.736.384-1.24 1.113-1.24 1.957C4.8 22.99 5.877 24 7.2 24c1.042 0 1.921-.629 2.253-1.5h8.294c.332.871 1.211 1.5 2.253 1.5s1.921-.629 2.253-1.5h.947c.442 0 .8-.336.8-.75s-.358-.75-.8-.75h-.947c-.332-.871-1.212-1.5-2.253-1.5-1.041 0-1.921.629-2.253 1.5H9.453c-.286-.752-.98-1.319-1.836-1.46l-.38-2.14 16.05-1.654c.406-.042.713-.364.713-.746V6.75c0-.414-.358-.75-.8-.75h-2.22zm-11.655.004V6c.254-2.627 2.485-4.7 5.176-4.7 2.69 0 4.922 2.073 5.176 4.7a5.215 5.215 0 01-.073 1.5c-.47 2.386-2.585 4.2-5.103 4.2-2.519 0-4.634-1.814-5.103-4.2a5.175 5.175 0 01-.073-1.496zM20.8 21.75c0-.413-.359-.75-.8-.75-.441 0-.8.337-.8.75s.359.75.8.75c.441 0 .8-.337.8-.75zm-13.6.75c.441 0 .8-.337.8-.75S7.641 21 7.2 21c-.441 0-.8.337-.8.75s.359.75.8.75zm6.655-19.25h.976v3.38l2.925 1.755-.52.78-3.38-2.015v-3.9z" fill="#000"/></svg>

</svg>