<svg version="1.1" xmlns="http://www.w3.org/2000/svg" xmlns:xlink="http://www.w3.org/1999/xlink" id="icon-sprite" class="icon-sprite">
  <defs>
    <style>
      svg .icon-sprite { display: none; }
      svg .icon-sprite:target { display: inline; } 
    </style>
  </defs>

  <!-- Menu -->
  <svg viewBox="0 0 18 18" id="icon-menu-md" class="icon-sprite icon-menu-md"><path fill-rule="evenodd" clip-rule="evenodd" d="M2 8h14a1 1 0 110 2H2a1 1 0 010-2zM2 14h14a1 1 0 110 2H2a1 1 0 110-2zM2 2h14a1 1 0 110 2H2a1 1 0 010-2z" fill="#000"/></svg>
  <svg viewBox="0 0 24 24" id="icon-menu-lg" class="icon-sprite icon-menu-lg"><path fill-rule="evenodd" clip-rule="evenodd" d="M3 3h18a1 1 0 110 2H3a1 1 0 010-2zM3 11h18a1 1 0 110 2H3a1 1 0 110-2zM3 19h18a1 1 0 110 2H3a1 1 0 110-2z" fill="#000"/></svg>

  <!-- Home -->
  <svg viewBox="0 0 18 18" id="icon-home-md" class="icon-sprite icon-home-md"><path fill-rule="evenodd" clip-rule="evenodd" d="M9.497.69L17 7.34v8.206c0 .803-.651 1.454-1.454 1.454h-4.569a.727.727 0 01-.727-.727V12.5a1.25 1.25 0 00-2.5 0v3.773a.727.727 0 01-.727.727H2.455A1.455 1.455 0 011 15.546V7.34L8.503.69a.75.75 0 01.994 0zM9 2.589L2.75 8.126v7.123H6V12.5a3 3 0 012.824-2.995L9 9.5a3 3 0 012.995 2.824L12 12.5v2.749h3.25V8.127L9 2.588z" fill="#000"/></svg>
  <svg viewBox="0 0 24 24" id="icon-home-lg" class="icon-sprite icon-home-lg"><path fill-rule="evenodd" clip-rule="evenodd" d="M12.663.838L23 10v11a2 2 0 01-2 2h-6a1 1 0 01-1-1v-5a2 2 0 10-4 0v5a1 1 0 01-1 1H3a2 2 0 01-2-2V10L11.337.838a1 1 0 011.326 0zM12 2.922l-9 7.977v10.1h5v-4a4 4 0 013.8-3.994L12 13a4 4 0 013.995 3.8L16 17v3.999h5V10.9l-9-7.977z" fill="#000"/></svg>

  <!-- Settings -->
  <svg viewBox="0 0 18 18" id="icon-settings-md" class="icon-sprite icon-settings-md"><path fill-rule="evenodd" clip-rule="evenodd" d="M9 0c.777 0 1.532.098 2.252.283.371.096.644.433.62.815a1.635 1.635 0 001.634 1.744c.27 0 .537-.066.774-.192l.14-.083a.742.742 0 01.414-.125c.221 0 .443.094.607.26a8.983 8.983 0 012.245 3.875.833.833 0 01-.321.908l-.1.061a1.634 1.634 0 00-.128 2.834l.127.074a.834.834 0 01.422.969 8.983 8.983 0 01-2.245 3.875.863.863 0 01-.607.26.742.742 0 01-.415-.125 1.648 1.648 0 00-1.73-.056 1.636 1.636 0 00-.818 1.525c.025.382-.248.719-.619.815A9.043 9.043 0 019 18a9.057 9.057 0 01-2.254-.283.816.816 0 01-.619-.712v-.103a1.637 1.637 0 00-1.635-1.744 1.65 1.65 0 00-.913.275.74.74 0 01-.415.125.863.863 0 01-.607-.26 8.983 8.983 0 01-2.245-3.875.833.833 0 01.321-.908l.101-.061A1.635 1.635 0 00.861 7.62l-.128-.074a.834.834 0 01-.422-.969 8.983 8.983 0 012.245-3.875.863.863 0 01.607-.26c.109 0 .216.022.317.07l.098.055a1.65 1.65 0 001.732.056c.512-.295.805-.825.82-1.375l-.004-.15c-.025-.382.248-.719.62-.815A9.057 9.057 0 018.998 0zm0 1.75c-.397 0-.792.032-1.18.095a3.363 3.363 0 01-1.635 2.294 3.404 3.404 0 01-2.808.266 7.27 7.27 0 00-1.179 2.032A3.372 3.372 0 013.371 9a3.372 3.372 0 01-1.173 2.563 7.235 7.235 0 001.18 2.032 3.394 3.394 0 014.444 2.561 7.457 7.457 0 002.355 0 3.362 3.362 0 011.637-2.295 3.39 3.39 0 012.807-.266c.501-.61.9-1.298 1.18-2.032A3.374 3.374 0 0114.626 9c0-1.001.436-1.928 1.173-2.563a7.283 7.283 0 00-1.179-2.032 3.385 3.385 0 01-2.806-.266 3.365 3.365 0 01-1.639-2.295A7.446 7.446 0 009 1.75zM9 5a4 4 0 110 8 4 4 0 010-8zm0 1.75a2.25 2.25 0 100 4.5 2.25 2.25 0 000-4.5z" fill="#000"/></svg>
  <svg viewBox="0 0 24 24" id="icon-settings-lg" class="icon-sprite icon-settings-lg"><path fill-rule="evenodd" clip-rule="evenodd" d="M12 0c1.198 0 2.354.182 3.444.52.258.08.412.355.356.624a2.198 2.198 0 001.023 2.353 2.115 2.115 0 002.51-.271.523.523 0 01.712.002 12.04 12.04 0 013.442 6.063.55.55 0 01-.366.635A2.18 2.18 0 0021.645 12a2.18 2.18 0 001.474 2.074.55.55 0 01.367.635 12.045 12.045 0 01-3.442 6.063.524.524 0 01-.712.002 2.115 2.115 0 00-2.51-.271 2.198 2.198 0 00-1.023 2.353.537.537 0 01-.356.624A11.6 11.6 0 0112 24a11.59 11.59 0 01-3.443-.52.535.535 0 01-.356-.624 2.2 2.2 0 00-1.023-2.354 2.117 2.117 0 00-2.511.272.524.524 0 01-.712-.002 12.045 12.045 0 01-3.442-6.063.55.55 0 01.368-.635A2.18 2.18 0 002.355 12 2.18 2.18 0 00.881 9.926a.55.55 0 01-.368-.635 12.04 12.04 0 013.442-6.063.523.523 0 01.712-.002 2.117 2.117 0 002.51.271 2.2 2.2 0 001.024-2.353.535.535 0 01.356-.624A11.59 11.59 0 0112.001 0zm0 2c-.618 0-1.228.058-1.826.172a4.188 4.188 0 01-2.018 3.059 4.038 4.038 0 01-3.606.247c-.8.946-1.421 2.034-1.827 3.213A4.209 4.209 0 014.316 12a4.208 4.208 0 01-1.593 3.309 10.037 10.037 0 001.827 3.213 4.04 4.04 0 013.608.248 4.185 4.185 0 012.015 3.058 9.722 9.722 0 003.654 0 4.183 4.183 0 012.017-3.058 4.036 4.036 0 013.606-.248 10.04 10.04 0 001.827-3.214A4.208 4.208 0 0119.685 12c0-1.328.612-2.535 1.592-3.308a10.03 10.03 0 00-1.827-3.214 4.035 4.035 0 01-3.606-.247 4.185 4.185 0 01-2.018-3.059A9.718 9.718 0 0012.001 2zm0 4a6 6 0 110 12 6 6 0 010-12zm0 2a4 4 0 100 8 4 4 0 000-8z" fill="#000"/></svg>

  <!-- Search -->
  <svg viewBox="0 0 16 16" id="icon-search-sm" class="icon-sprite icon-search-sm"><path fill-rule="evenodd" clip-rule="evenodd" d="M14.744 13.508l-2.928-2.928a6 6 0 10-1.236 1.236l2.928 2.928a.874.874 0 001.236-1.236zM11.25 7a4.25 4.25 0 11-8.5 0 4.25 4.25 0 018.5 0z" fill="#000"/></svg>
  <svg viewBox="0 0 18 18" id="icon-search-md" class="icon-sprite icon-search-md"><path fill-rule="evenodd" clip-rule="evenodd" d="M16.73 15.43l-3.172-3.174a7 7 0 10-1.301 1.301l3.172 3.173a.92.92 0 001.301-1.3zM13.15 8a5.15 5.15 0 11-10.3 0 5.15 5.15 0 0110.3 0z" fill="#000"/></svg>
  <svg viewBox="0 0 24 24" id="icon-search-lg" class="icon-sprite icon-search-lg"><path fill-rule="evenodd" clip-rule="evenodd" d="M17.91 16.446l4.787 4.787a1.035 1.035 0 11-1.464 1.464l-4.787-4.787A9.46 9.46 0 0110.5 20a9.5 9.5 0 119.5-9.5 9.46 9.46 0 01-2.09 5.946zM10.5 17.9a7.4 7.4 0 100-14.8 7.4 7.4 0 000 14.8z" fill="#000"/></svg>

  <!-- Notifications -->
  <svg viewBox="0 0 18 18" id="icon-notifications-md" class="icon-sprite icon-notifications-md"><path fill-rule="evenodd" clip-rule="evenodd" d="M9 1a6 6 0 016 6v2.586c0 .905.36 1.774 1 2.414l.414.414A2 2 0 0117 13.828V14a1 1 0 01-1 1h-4.55a2.5 2.5 0 01-4.9 0H2a1 1 0 01-1-1v-.172a2 2 0 01.586-1.414L2 12c.64-.64 1-1.509 1-2.414V7a6 6 0 016-6zm0 1.75a4.25 4.25 0 00-4.245 4.044L4.75 7v2.586a5.164 5.164 0 01-1.336 3.466l-.19.198h11.551l-.012-.013a5.164 5.164 0 01-1.507-3.395l-.006-.256V7A4.25 4.25 0 009 2.75z" fill="#000"/></svg>
  <svg viewBox="0 0 24 24" id="icon-notifications-lg" class="icon-sprite icon-notifications-lg"><path fill-rule="evenodd" clip-rule="evenodd" d="M12 1a8 8 0 018 8v4.343a4 4 0 001.172 2.829l1.242 1.242A2 2 0 0123 18.828v.672a1.5 1.5 0 01-1.5 1.5h-6.671a3.001 3.001 0 01-5.658 0H2.5A1.5 1.5 0 011 19.5v-.672a2 2 0 01.586-1.414l1.242-1.242A4 4 0 004 13.343V9a8 8 0 018-8zm0 2a6 6 0 00-5.996 5.775L6 9v4.343a6 6 0 01-1.564 4.04l-.193.203L3 18.828V19h18v-.172l-1.243-1.242a6 6 0 01-1.75-3.963l-.007-.28V9a6 6 0 00-6-6z" fill="#000"/></svg>

  <!-- Print -->
  <svg viewBox="0 0 18 18" id="icon-print-md" class="icon-sprite icon-print-md"><path fill-rule="evenodd" clip-rule="evenodd" d="M14 17a1 1 0 001-1h2a1 1 0 001-1V8.5A2.5 2.5 0 0015.5 6H15V2a1 1 0 00-1-1H4a1 1 0 00-1 1v4h-.5A2.5 2.5 0 000 8.5V15a1 1 0 001 1h2a1 1 0 001 1h10zm2.25-2.75H15V13a1 1 0 00-1-1H4a1 1 0 00-1 1v1.25H1.75V8.5a.75.75 0 01.75-.75H3V9a1 1 0 001 1h10a1 1 0 001-1V7.75h.5a.75.75 0 01.75.75v5.75zM4.75 2.75v5.5h8.5v-5.5h-8.5zm0 12.5v-1.5h8.5v1.5h-8.5z" fill="#000"/></svg>
  <svg viewBox="0 0 24 24" id="icon-print-lg" class="icon-sprite icon-print-lg">><path fill-rule="evenodd" clip-rule="evenodd" d="M4 2v6h-.5A3.5 3.5 0 000 11.5V19a2 2 0 002 2h2v1a1 1 0 001 1h14a1 1 0 001-1v-1h2a2 2 0 002-2v-7.5A3.5 3.5 0 0020.5 8H20V2a1 1 0 00-1-1H5a1 1 0 00-1 1zm-.5 8H4v3a1 1 0 001 1h14a1 1 0 001-1v-3h.5a1.5 1.5 0 011.5 1.5V19h-2v-1a1 1 0 00-1-1H5a1 1 0 00-1 1v1H2v-7.5A1.5 1.5 0 013.5 10zM6 3v9h12V3H6zm0 18v-2h12v2H6z" fill="#000"/></svg>

  <!-- Delete -->
  <svg viewBox="0 0 18 18" id="icon-delete-md" class="icon-sprite icon-delete-md"><path fill-rule="evenodd" clip-rule="evenodd" d="M9.65 0a1.85 1.85 0 011.85 1.85l-.006.15h4.631a.875.875 0 010 1.75H16V15.5a2.5 2.5 0 01-2.5 2.5h-9A2.5 2.5 0 012 15.5V3.75h-.125a.875.875 0 110-1.75h4.631A1.85 1.85 0 018.35 0h1.3zm4.6 3.75H3.75V15.5c0 .414.336.75.75.75h9a.75.75 0 00.75-.75V3.75zM7 6v7.5a1 1 0 11-2 0V6h2zm3 0v7.5a1 1 0 11-2 0V6h2zm3 0v7.5a1 1 0 11-2 0V6h2z" fill="#000"/></svg>
  <svg viewBox="0 0 24 24" id="icon-delete-lg" class="icon-sprite icon-delete-lg"><path fill-rule="evenodd" clip-rule="evenodd" d="M13 0a2 2 0 012 2h7a1 1 0 110 2h-1v17a3 3 0 01-3 3H6a3 3 0 01-3-3V4H2a1 1 0 010-2h7a2 2 0 012-2h2zm6 4H5v16.778C5 21.453 5.448 22 6 22h12c.552 0 1-.547 1-1.222V4zM9 6v13a1 1 0 11-2 0V6h2zm8 0v13a1 1 0 11-2 0V6h2zm-4 0v13a1 1 0 11-2 0V6h2z" fill="#000"/></svg>

  <!-- Edit -->
  <svg viewBox="0 0 18 18" id="icon-edit-md" class="icon-sprite icon-edit-md"><path fill-rule="evenodd" clip-rule="evenodd" d="M1 12.783L12.18 1.586a1.995 1.995 0 012.823 0L16.415 3c.78.781.78 2.047 0 2.828L5.261 17H1.5A.5.5 0 011 16.5v-3.717zm9.628-7.167l1.765 1.764-7.857 7.87H2.75v-1.743l7.878-7.891zm2.79-2.794l-1.553 1.555 1.764 1.765 1.548-1.55a.252.252 0 000-.356l-1.412-1.414a.245.245 0 00-.347 0z" fill="#000"/></svg>
  <svg viewBox="0 0 24 24" id="icon-edit-lg" class="icon-sprite icon-edit-lg"><path fill-rule="evenodd" clip-rule="evenodd" d="M5.97 23.004H2a1 1 0 01-1-1V18.04L17.305 1.732a2.5 2.5 0 013.536 0l1.43 1.432a2.5 2.5 0 010 3.535L5.97 23.004zm9.62-16.727l2.138 2.137L5.14 21.004H3v-2.135L15.59 6.277zm3.13-3.13l-1.716 1.715L19.142 7l1.715-1.715a.5.5 0 000-.708l-1.43-1.43a.5.5 0 00-.708 0z" fill="#000"/></svg>

  <!-- Date -->
  <svg viewBox="0 0 18 18" id="icon-date-md" class="icon-sprite icon-date-md"><path fill-rule="evenodd" clip-rule="evenodd" d="M13 1a1.5 1.5 0 011.415 1h.46C16.049 2 17 2.951 17 4.125v10.75A2.125 2.125 0 0114.875 17H3.125A2.125 2.125 0 011 14.875V4.125C1 2.951 1.951 2 3.125 2h.46a1.5 1.5 0 012.83 0h5.17A1.5 1.5 0 0113 1zm2.25 7H2.75v6.875c0 .181.129.332.3.367l.075.008h11.75a.375.375 0 00.367-.3l.008-.075V8zm-1.75 4a.5.5 0 01.5.5v1a.5.5 0 01-.5.5h-1a.5.5 0 01-.5-.5v-1a.5.5 0 01.5-.5h1zm-3 0a.5.5 0 01.5.5v1a.5.5 0 01-.5.5h-1a.5.5 0 01-.5-.5v-1a.5.5 0 01.5-.5h1zm-3 0a.5.5 0 01.5.5v1a.5.5 0 01-.5.5h-1a.5.5 0 01-.5-.5v-1a.5.5 0 01.5-.5h1zm6-3a.5.5 0 01.5.5v1a.5.5 0 01-.5.5h-1a.5.5 0 01-.5-.5v-1a.5.5 0 01.5-.5h1zm-3 0a.5.5 0 01.5.5v1a.5.5 0 01-.5.5h-1a.5.5 0 01-.5-.5v-1a.5.5 0 01.5-.5h1zm4.375-5.25H3.125a.375.375 0 00-.367.3l-.008.075V6.25h12.5V4.125a.375.375 0 00-.375-.375z" fill="#000"/></svg>
  <svg fill="none" viewBox="0 0 24 24" id="icon-date-lg" class="icon-sprite icon-date-lg"><path fill-rule="evenodd" clip-rule="evenodd" d="M17 .5A2 2 0 0118.937 2H20.5A2.5 2.5 0 0123 4.5v16a2.5 2.5 0 01-2.5 2.5h-17A2.5 2.5 0 011 20.5v-16A2.5 2.5 0 013.5 2h1.563a2 2 0 013.874 0h6.126A2 2 0 0117 .5zM21 9H3v11.5a.5.5 0 00.41.492L3.5 21h17a.5.5 0 00.492-.41L21 20.5V9zm-2.5 7a.5.5 0 01.5.5v2a.5.5 0 01-.5.5h-2a.5.5 0 01-.5-.5v-2a.5.5 0 01.5-.5h2zm-5 0a.5.5 0 01.5.5v2a.5.5 0 01-.5.5h-2a.5.5 0 01-.5-.5v-2a.5.5 0 01.5-.5h2zm-5 0a.5.5 0 01.5.5v2a.5.5 0 01-.5.5h-2a.5.5 0 01-.5-.5v-2a.5.5 0 01.5-.5h2zm10-5a.5.5 0 01.5.5v2a.5.5 0 01-.5.5h-2a.5.5 0 01-.5-.5v-2a.5.5 0 01.5-.5h2zm-5 0a.5.5 0 01.5.5v2a.5.5 0 01-.5.5h-2a.5.5 0 01-.5-.5v-2a.5.5 0 01.5-.5h2zm7-7h-17a.5.5 0 00-.492.41L3 4.5V7h18V4.5a.5.5 0 00-.5-.5z" fill="#000"/></svg>

  <!-- Time -->
  <svg viewBox="0 0 18 18" id="icon-time-md" class="icon-sprite icon-time-md"><path fill-rule="evenodd" clip-rule="evenodd" d="M9 0a9 9 0 110 18A9 9 0 019 0zm0 1.75a7.25 7.25 0 100 14.5 7.25 7.25 0 000-14.5zM9 4a1 1 0 011 1v4.591l1.708 1.708a.996.996 0 11-1.409 1.41l-1.942-1.943A.998.998 0 018 10V5a1 1 0 011-1z" fill="#000"/></svg>
  <svg viewBox="0 0 24 24" id="icon-time-lg" class="icon-sprite icon-time-lg"><path fill-rule="evenodd" clip-rule="evenodd" d="M12 0c6.627 0 12 5.373 12 12s-5.373 12-12 12S0 18.627 0 12 5.373 0 12 0zm0 2C6.477 2 2 6.477 2 12s4.477 10 10 10 10-4.477 10-10S17.523 2 12 2zm0 3a1 1 0 011 1v6.586l3.702 3.702a1 1 0 01-1.414 1.414l-3.995-3.995A.997.997 0 0111 13V6a1 1 0 011-1z" fill="#000"/></svg>

  <!-- Zoom In -->
  <svg viewBox="0 0 18 18" id="icon-zoom-in-md" class="icon-sprite icon-zoom-in-md"><path fill-rule="evenodd" clip-rule="evenodd" d="M8 1a7 7 0 015.56 11.252l3.2 3.2a.925.925 0 11-1.308 1.308l-3.2-3.2A7 7 0 118 1zm0 1.85a5.15 5.15 0 100 10.3 5.15 5.15 0 000-10.3zm0 1.775c.483 0 .875.392.875.875v1.625h1.804a.938.938 0 010 1.875H8.875v1.5a.875.875 0 01-1.75 0V9H5.321a.937.937 0 110-1.875h1.804V5.5c0-.483.392-.875.875-.875z" fill="#000"/></svg>
  <svg viewBox="0 0 24 24" id="icon-zoom-in-lg" class="icon-sprite icon-zoom-in-lg"><path fill-rule="evenodd" clip-rule="evenodd" d="M11 1.5a9.5 9.5 0 019.5 9.5 9.46 9.46 0 01-2.08 5.934l4.322 4.323a1.05 1.05 0 01-1.485 1.485l-4.323-4.323A9.46 9.46 0 0111 20.5a9.5 9.5 0 010-19zm0 2.1a7.4 7.4 0 100 14.8 7.4 7.4 0 000-14.8zM11 6a1 1 0 011 1v3h3a1 1 0 110 2h-3v3a1 1 0 11-2 0v-3H7a1 1 0 110-2h3V7a1 1 0 011-1z" fill="#000"/></svg>

  <!-- Zoom Out -->
  <svg viewBox="0 0 18 18" id="icon-zoom-out-md" class="icon-sprite icon-zoom-out-md"><path fill-rule="evenodd" clip-rule="evenodd" d="M8 1a7 7 0 015.56 11.252l3.2 3.2a.925.925 0 11-1.308 1.308l-3.2-3.2A7 7 0 118 1zm0 1.85a5.15 5.15 0 100 10.3 5.15 5.15 0 000-10.3zm2.5 4.275a.875.875 0 010 1.75h-5a.875.875 0 110-1.75h5z" fill="#000"/></svg>
  <svg viewBox="0 0 24 24" id="icon-zoom-out-lg" class="icon-sprite icon-zoom-out-lg"><path fill-rule="evenodd" clip-rule="evenodd" d="M11 1.5a9.5 9.5 0 019.5 9.5 9.46 9.46 0 01-2.08 5.934l4.322 4.323a1.05 1.05 0 01-1.485 1.485l-4.323-4.323A9.46 9.46 0 0111 20.5a9.5 9.5 0 010-19zm0 2.1a7.4 7.4 0 100 14.8 7.4 7.4 0 000-14.8zm4 6.4a1 1 0 110 2H7a1 1 0 110-2h8z" fill="#000"/></svg>

  <!-- Refresh -->
  <svg viewBox="0 0 18 18" id="icon-refresh-md" class="icon-sprite icon-refresh-md"><path fill-rule="evenodd" clip-rule="evenodd" d="M15.129 6.275a6.75 6.75 0 10-.342 6.075.875.875 0 111.516.875 8.5 8.5 0 11-.062-8.607V1.5a.875.875 0 111.75 0v5.65a.872.872 0 01-.875.875h-5.65a.875.875 0 110-1.75h3.663z" fill="#000"/></svg>
  <svg viewBox="0 0 24 24" id="icon-refresh-lg" class="icon-sprite icon-refresh-lg"><path fill-rule="evenodd" clip-rule="evenodd" d="M20.618 8a9.454 9.454 0 00-3.868-4.227 9.5 9.5 0 103.477 12.977 1 1 0 111.732 1c-3.175 5.5-10.209 7.385-15.709 4.21-5.5-3.176-7.385-10.21-4.21-15.71C5.217.75 12.25-1.135 17.75 2.04A11.458 11.458 0 0122 6.318V1.5a1 1 0 112 0V9a.997.997 0 01-1 1h-7.5a1 1 0 110-2h5.118z" fill="#000"/></svg>

  <!-- More Menu -->
  <svg viewBox="0 0 16 16" id="icon-more-menu-sm" class="icon-sprite icon-more-menu-sm"><path fill-rule="evenodd" clip-rule="evenodd" d="M8 11.45a1.25 1.25 0 110 2.5 1.25 1.25 0 010-2.5zm0-4.7a1.25 1.25 0 110 2.5 1.25 1.25 0 010-2.5zM8 2a1.25 1.25 0 110 2.5A1.25 1.25 0 018 2z" fill="#000"/></svg>
  <svg viewBox="0 0 18 18" id="icon-more-menu-md" class="icon-sprite icon-more-menu-md"><path fill-rule="evenodd" clip-rule="evenodd" d="M9 13a1.5 1.5 0 110 3 1.5 1.5 0 010-3zm0-5.5a1.5 1.5 0 110 3 1.5 1.5 0 010-3zM9 2a1.5 1.5 0 110 3 1.5 1.5 0 010-3z" fill="#000"/></svg>
  <svg viewBox="0 0 24 24" id="icon-more-menu-lg" class="icon-sprite icon-more-menu-lg"><path fill-rule="evenodd" clip-rule="evenodd" d="M12 18a2 2 0 110 4 2 2 0 010-4zm0-8a2 2 0 110 4 2 2 0 010-4zm0-8a2 2 0 110 4 2 2 0 010-4z" fill="#000"/></svg>

  <!-- View (Grid | Default) -->
  <svg viewBox="0 0 18 18" id="icon-view-grid-md" class="icon-sprite icon-view-grid-md"><path fill-rule="evenodd" clip-rule="evenodd" d="M7.5 10a.5.5 0 01.5.5v5a.5.5 0 01-.5.5h-5a.5.5 0 01-.5-.5v-5a.5.5 0 01.5-.5h5zm8 0a.5.5 0 01.5.5v5a.5.5 0 01-.5.5h-5a.5.5 0 01-.5-.5v-5a.5.5 0 01.5-.5h5zm-9.25 1.75h-2.5v2.5h2.5v-2.5zm8 0h-2.5v2.5h2.5v-2.5zM7.5 2a.5.5 0 01.5.5v5a.5.5 0 01-.5.5h-5a.5.5 0 01-.5-.5v-5a.5.5 0 01.5-.5h5zm8 0a.5.5 0 01.5.5v5a.5.5 0 01-.5.5h-5a.5.5 0 01-.5-.5v-5a.5.5 0 01.5-.5h5zM6.25 3.75h-2.5v2.5h2.5v-2.5zm8 0h-2.5v2.5h2.5v-2.5z" fill="#000"/></svg>
  <svg viewBox="0 0 24 24" id="icon-view-grid-lg" class="icon-sprite icon-view-grid-lg"><path fill-rule="evenodd" clip-rule="evenodd" d="M10.5 13a.5.5 0 01.5.5v8a.5.5 0 01-.5.5h-8a.5.5 0 01-.5-.5v-8a.5.5 0 01.5-.5h8zm11 0a.5.5 0 01.5.5v8a.5.5 0 01-.5.5h-8a.5.5 0 01-.5-.5v-8a.5.5 0 01.5-.5h8zM9 15H4v5h5v-5zm11 0h-5v5h5v-5zM10.5 2a.5.5 0 01.5.5v8a.5.5 0 01-.5.5h-8a.5.5 0 01-.5-.5v-8a.5.5 0 01.5-.5h8zm11 0a.5.5 0 01.5.5v8a.5.5 0 01-.5.5h-8a.5.5 0 01-.5-.5v-8a.5.5 0 01.5-.5h8zM9 4H4v5h5V4zm11 0h-5v5h5V4z" fill="#000"/></svg>

  <!-- View (Grid | Solid) -->
  <svg viewBox="0 0 18 18" id="icon-view-grid-solid-md" class="icon-sprite icon-view-grid-solid-md"><path fill-rule="evenodd" clip-rule="evenodd" d="M7.5 10C7.77614 10 8 10.2239 8 10.5V15.5C8 15.7761 7.77614 16 7.5 16H2.5C2.22386 16 2 15.7761 2 15.5V10.5C2 10.2239 2.22386 10 2.5 10H7.5ZM15.5 10C15.7761 10 16 10.2239 16 10.5V15.5C16 15.7761 15.7761 16 15.5 16H10.5C10.2239 16 10 15.7761 10 15.5V10.5C10 10.2239 10.2239 10 10.5 10H15.5ZM7.5 2C7.77614 2 8 2.22386 8 2.5V7.5C8 7.77614 7.77614 8 7.5 8H2.5C2.22386 8 2 7.77614 2 7.5V2.5C2 2.22386 2.22386 2 2.5 2H7.5ZM15.5 2C15.7761 2 16 2.22386 16 2.5V7.5C16 7.77614 15.7761 8 15.5 8H10.5C10.2239 8 10 7.77614 10 7.5V2.5C10 2.22386 10.2239 2 10.5 2H15.5Z" fill="#000"/></svg>
  <svg viewBox="0 0 24 24" id="icon-view-grid-solid-lg" class="icon-sprite icon-view-grid-solid-lg"><path fill-rule="evenodd" clip-rule="evenodd" d="M10.5 13C10.7761 13 11 13.2239 11 13.5V21.5C11 21.7761 10.7761 22 10.5 22H2.5C2.22386 22 2 21.7761 2 21.5V13.5C2 13.2239 2.22386 13 2.5 13H10.5ZM21.5 13C21.7761 13 22 13.2239 22 13.5V21.5C22 21.7761 21.7761 22 21.5 22H13.5C13.2239 22 13 21.7761 13 21.5V13.5C13 13.2239 13.2239 13 13.5 13H21.5ZM10.5 2C10.7761 2 11 2.22386 11 2.5V10.5C11 10.7761 10.7761 11 10.5 11H2.5C2.22386 11 2 10.7761 2 10.5V2.5C2 2.22386 2.22386 2 2.5 2H10.5ZM21.5 2C21.7761 2 22 2.22386 22 2.5V10.5C22 10.7761 21.7761 11 21.5 11H13.5C13.2239 11 13 10.7761 13 10.5V2.5C13 2.22386 13.2239 2 13.5 2H21.5Z" fill="#000"/></svg>

  <!-- View (List | Default) -->
  <svg viewBox="0 0 18 18" fill="none" id="icon-view-list-md" class="icon-sprite icon-view-list-md"><rect x="2.25" y="4.5" width="13.5" height="3" rx="0.75" stroke="#000" stroke-width="1.5"/><rect x="2.25" y="10.4999" width="13.5" height="3" rx="0.75" stroke="#000" stroke-width="1.5"/></svg>
  <svg viewBox="0 0 24 24" fill="none" id="icon-view-list-lg" class="icon-sprite icon-view-list-lg"><rect x="3" y="6" width="18" height="4" rx="1" stroke="#000" stroke-width="1.5"/><rect x="3" y="14" width="18" height="4" rx="1" stroke="#000" stroke-width="1.5"/></svg>

  <!-- View (List | Solid) -->
  <svg viewBox="0 0 18 18" id="icon-view-list-solid-md" class="icon-sprite icon-view-list-solid-md"><rect x="2.25" y="4.5" width="13.5" height="3" rx=".75" stroke="#000" stroke-width="1.5"/><rect x="2.25" y="10.5" width="13.5" height="3" rx=".75" stroke="#000" stroke-width="1.5"/></svg>
  <svg viewBox="0 0 24 24" id="icon-view-list-solid-lg" class="icon-sprite icon-view-list-solid-lg"><rect x="3" y="6" width="18" height="4" rx="1" stroke="#000" stroke-width="1.5"/><rect x="3" y="14" width="18" height="4" rx="1" stroke="#000" stroke-width="1.5"/></svg>

  <!-- Drawer (Left/Right) -->
  <svg viewBox="0 0 18 18" id="icon-drawer-left-md" class="icon-sprite icon-drawer-left-md"><path fill-rule="evenodd" clip-rule="evenodd" d="M15 1a2 2 0 012 2v12a2 2 0 01-2 2H3a2 2 0 01-2-2V3a2 2 0 012-2h12zM7.25 2.75H3a.25.25 0 00-.25.25v12c0 .138.112.25.25.25h4.25V2.75zm7.75 0H9v12.5h6a.25.25 0 00.25-.25V3a.25.25 0 00-.25-.25zM5.5 11a.5.5 0 01.5.5v1a.5.5 0 01-.5.5h-1a.5.5 0 01-.5-.5v-1a.5.5 0 01.5-.5h1zm0-3a.5.5 0 01.5.5v1a.5.5 0 01-.5.5h-1a.5.5 0 01-.5-.5v-1a.5.5 0 01.5-.5h1zm0-3a.5.5 0 01.5.5v1a.5.5 0 01-.5.5h-1a.5.5 0 01-.5-.5v-1a.5.5 0 01.5-.5h1z" fill="#000"/></svg>
  <svg viewBox="0 0 24 24" id="icon-drawer-left-lg" class="icon-sprite icon-drawer-left-lg"><path fill-rule="evenodd" clip-rule="evenodd" d="M20.5 1A2.5 2.5 0 0123 3.5v17a2.5 2.5 0 01-2.5 2.5h-17A2.5 2.5 0 011 20.5v-17A2.5 2.5 0 013.5 1h17zM9 3H3.833C3.373 3 3 3.224 3 3.5v17c0 .276.373.5.833.5H9V3zm11.583 0H11v18h9.583c.23 0 .417-.224.417-.5v-17c0-.276-.186-.5-.417-.5zM6.5 15a.5.5 0 01.5.5v1a.5.5 0 01-.5.5h-1a.5.5 0 01-.5-.5v-1a.5.5 0 01.5-.5h1zm0-4a.5.5 0 01.5.5v1a.5.5 0 01-.5.5h-1a.5.5 0 01-.5-.5v-1a.5.5 0 01.5-.5h1zm0-4a.5.5 0 01.5.5v1a.5.5 0 01-.5.5h-1a.5.5 0 01-.5-.5v-1a.5.5 0 01.5-.5h1z" fill="#000"/></svg>

  <!-- Maximize -->
  <svg viewBox="0 0 18 18" id="icon-maximize-md" class="icon-sprite icon-maximize-md"><path fill-rule="evenodd" clip-rule="evenodd" d="M3 1h12a2 2 0 012 2v12a2 2 0 01-2 2H3a2 2 0 01-2-2V3a2 2 0 012-2zm12.25 4.25H2.75V3A.25.25 0 013 2.75h12a.25.25 0 01.25.25v2.25zm0 9.75V7H2.75v8c0 .138.112.25.25.25h12a.25.25 0 00.25-.25z" fill="#000"/></svg>
  <svg viewBox="0 0 24 24" id="icon-maximize-lg" class="icon-sprite icon-maximize-lg"><path fill-rule="evenodd" clip-rule="evenodd" d="M3.5 1h17A2.5 2.5 0 0123 3.5v16a2.5 2.5 0 01-2.5 2.5h-17A2.5 2.5 0 011 19.5v-16A2.5 2.5 0 013.5 1zM21 6H3V3.5a.5.5 0 01.5-.5h17a.5.5 0 01.5.5V6zm0 13.5V8H3v11.5a.5.5 0 00.5.5h17a.5.5 0 00.5-.5z" fill="#000"/></svg>

  <!-- Minimize -->
  <svg viewBox="0 0 18 18" id="icon-minimize-md" class="icon-sprite icon-minimize-md"><path fill-rule="evenodd" clip-rule="evenodd" d="M3 7.75a.25.25 0 00-.25.25v2c0 .138.112.25.25.25h12a.25.25 0 00.25-.25V8a.25.25 0 00-.25-.25H3zM3 6h12a2 2 0 012 2v2a2 2 0 01-2 2H3a2 2 0 01-2-2V8a2 2 0 012-2z" fill="#000"/></svg>
  <svg viewBox="0 0 24 24" id="icon-minimize-lg" class="icon-sprite icon-minimize-lg"><path fill-rule="evenodd" clip-rule="evenodd" d="M3.5 10a.5.5 0 00-.5.5v2a.5.5 0 00.5.5h17a.5.5 0 00.5-.5v-2a.5.5 0 00-.5-.5h-17zm0-2h17a2.5 2.5 0 012.5 2.5v2a2.5 2.5 0 01-2.5 2.5h-17A2.5 2.5 0 011 12.5v-2A2.5 2.5 0 013.5 8z" fill="#000"/></svg>

  <!-- Drag -->
  <svg viewBox="0 0 18 18" id="icon-drag-md" class="icon-sprite icon-drag-md"><path fill-rule="evenodd" clip-rule="evenodd" d="M6.3 15.4a1.3 1.3 0 110 2.6 1.3 1.3 0 010-2.6zm5.4 0a1.3 1.3 0 110 2.6 1.3 1.3 0 010-2.6zm-5.4-5.133a1.3 1.3 0 110 2.6 1.3 1.3 0 010-2.6zm5.4 0a1.3 1.3 0 110 2.6 1.3 1.3 0 010-2.6zM6.3 5.133a1.3 1.3 0 110 2.6 1.3 1.3 0 010-2.6zm5.4 0a1.3 1.3 0 110 2.6 1.3 1.3 0 010-2.6zM6.3 0a1.3 1.3 0 110 2.6 1.3 1.3 0 010-2.6zm5.4 0a1.3 1.3 0 110 2.6 1.3 1.3 0 010-2.6z" fill="#000"/></svg>
  <svg viewBox="0 0 24 24" id="icon-drag-lg" class="icon-sprite icon-drag-lg"><path fill-rule="evenodd" clip-rule="evenodd" d="M15.5 21a1.5 1.5 0 110 3 1.5 1.5 0 010-3zm-7 0a1.5 1.5 0 110 3 1.5 1.5 0 010-3zm7-7a1.5 1.5 0 110 3 1.5 1.5 0 010-3zm-7 0a1.5 1.5 0 110 3 1.5 1.5 0 010-3zm7-7a1.5 1.5 0 110 3 1.5 1.5 0 010-3zm-7 0a1.5 1.5 0 110 3 1.5 1.5 0 010-3zm7-7a1.5 1.5 0 110 3 1.5 1.5 0 010-3zm-7 0a1.5 1.5 0 110 3 1.5 1.5 0 010-3z" fill="#000"/></svg>

  <!-- Filter -->
  <svg viewBox="0 0 18 18" id="icon-filter-md" class="icon-sprite icon-filter-md"><path fill-rule="evenodd" clip-rule="evenodd" d="M2 3a1 1 0 000 2h14a1 1 0 100-2H2zm3 5a1 1 0 000 2h8a1 1 0 100-2H5zm2 6a1 1 0 011-1h2a1 1 0 110 2H8a1 1 0 01-1-1z" fill="#000"/></svg>
  <svg viewBox="0 0 24 24" id="icon-filter-lg" class="icon-sprite icon-filter-lg"><path fill-rule="evenodd" clip-rule="evenodd" d="M1 5a1 1 0 011-1h20a1 1 0 110 2H2a1 1 0 01-1-1zm3 5a1 1 0 011-1h14a1 1 0 110 2H5a1 1 0 01-1-1zm4 4a1 1 0 100 2h8a1 1 0 100-2H8zm2 6a1 1 0 011-1h2a1 1 0 110 2h-2a1 1 0 01-1-1z" fill="#000"/></svg>

  <!-- Sort (Ascending/Descending) -->
  <svg viewBox="0 0 18 18" id="icon-sort-ascending-md" class="icon-sprite icon-sort-ascending-md"><path fill-rule="evenodd" clip-rule="evenodd" d="M10 6.328V14a1 1 0 11-2 0V6.328l-2.372 2.39a.949.949 0 01-1.349 0 .966.966 0 010-1.359l4.047-4.077a.949.949 0 011.348 0l4.047 4.077a.967.967 0 010 1.36.949.949 0 01-1.35 0L10 6.328z" fill="#000"/></svg>
  <svg viewBox="0 0 24 24" id="icon-sort-ascending-lg" class="icon-sprite icon-sort-ascending-lg"><path fill-rule="evenodd" clip-rule="evenodd" d="M13 7.414V19a1 1 0 11-2 0V7.414l-3.293 3.293a1 1 0 01-1.414-1.414l5-5a1 1 0 011.414 0l5 5a1 1 0 01-1.414 1.414L13 7.414z" fill="#000"/></svg>

  <!-- Expand/Collape -->
  <svg viewBox="0 0 16 16" id="icon-expand-sm" class="icon-sprite icon-expand-sm"><path fill-rule="evenodd" clip-rule="evenodd" d="M4.25 7.496a.892.892 0 010-1.24.84.84 0 011.21 0L8 8.886l2.54-2.628a.84.84 0 011.21 0 .891.891 0 010 1.239l-3.145 3.247a.84.84 0 01-1.21 0L4.25 7.496z" fill="#000"/></svg>
  <svg viewBox="0 0 18 18" id="icon-expand-md" class="icon-sprite icon-expand-md"><path fill-rule="evenodd" clip-rule="evenodd" d="M9.622 12.762a.93.93 0 01-1.284-.039l-5.064-5.11a.951.951 0 010-1.336.93.93 0 011.325 0L9 10.718l4.4-4.441a.93.93 0 011.326 0 .951.951 0 010 1.337l-5.064 5.11a.854.854 0 01-.04.038z" fill="#000"/></svg>
  <svg viewBox="0 0 24 24" id="icon-expand-lg" class="icon-sprite icon-expand-lg"><path fill-rule="evenodd" clip-rule="evenodd" d="M12.677 16.736a1 1 0 01-1.384-.029l-7-7a1 1 0 011.414-1.414L12 14.586l6.293-6.293a1 1 0 111.414 1.414l-7 7-.03.029z" fill="#000"/></svg>

  <!-- Custom expand/collapse for background image of selects in AEM Form component -->
  <!-- Note that here we must use actual fill color hex since these icons are applied 
  as background-image to actual select due to the inability to use pseudo elements
  such as ::after and ::before on select tag. -->
  <svg viewBox="0 0 18 18" id="icon-collapse-md" class="icon-sprite icon-collapse-md"><path fill-rule="evenodd" clip-rule="evenodd" d="M9.622 5.238a.911.911 0 01.04.039l5.064 5.11a.951.951 0 010 1.336.93.93 0 01-1.325 0L9 7.282l-4.4 4.441a.93.93 0 01-1.326 0 .951.951 0 010-1.337l5.064-5.11a.93.93 0 011.284-.038z" fill="#151515"/></svg>
  <!-- When control is [disabled] -->
  <!-- Fill (#919191) matches interactive-disabled-02 -->
  <svg viewBox="0 0 18 18" id="icon-expand-disabled-md" class="icon-sprite icon-expand-disabled-md"><path fill-rule="evenodd" clip-rule="evenodd" d="M9.622 12.762a.93.93 0 01-1.284-.039l-5.064-5.11a.951.951 0 010-1.336.93.93 0 011.325 0L9 10.718l4.4-4.441a.93.93 0 011.326 0 .951.951 0 010 1.337l-5.064 5.11a.854.854 0 01-.04.038z" fill="#919191"/></svg>
  <!-- When used inside .form-inverse AND control is [disabled] -->
  <!-- Fill (#e6e6e6) matches interactive-disabled-01 -->
  <svg viewBox="0 0 18 18" id="icon-expand-disabled-inverse-md" class="icon-sprite icon-expand-disabled-inverse-md"><path fill-rule="evenodd" clip-rule="evenodd" d="M9.622 12.762a.93.93 0 01-1.284-.039l-5.064-5.11a.951.951 0 010-1.336.93.93 0 011.325 0L9 10.718l4.4-4.441a.93.93 0 011.326 0 .951.951 0 010 1.337l-5.064 5.11a.854.854 0 01-.04.038z" fill="#e6e6e6"/></svg>

  <!-- Scale -->
  <svg viewBox="0 0 18 18" id="icon-scale-md" class="icon-sprite icon-scale-md"><path fill-rule="evenodd" clip-rule="evenodd" d="M13 16a1 1 0 110 2H5a1 1 0 110-2h8zM9.423 3.199l1.94 1.948a.5.5 0 01-.354.853H9.75v6h1.258a.5.5 0 01.355.853L9.423 14.8a.6.6 0 01-.848-.002l-1.938-1.946A.5.5 0 016.991 12H8.25V6H6.991a.5.5 0 01-.354-.853l1.938-1.946a.6.6 0 01.848-.002zM13 0a1 1 0 110 2H5a1 1 0 010-2h8z" fill="#000"/></svg>
  <svg viewBox="0 0 24 24" id="icon-scale-lg" class="icon-sprite icon-scale-lg"><path fill-rule="evenodd" clip-rule="evenodd" d="M18 22a1 1 0 110 2H6a1 1 0 110-2h12zM12.494 3.291L15.1 5.89A.65.65 0 0114.64 7H13v10h1.64a.65.65 0 01.46 1.11l-2.606 2.599a.7.7 0 01-.988 0L8.9 18.11A.65.65 0 019.36 17H11V7H9.36a.65.65 0 01-.46-1.11l2.606-2.599a.7.7 0 01.988 0zM18 0a1 1 0 110 2H6a1 1 0 010-2h12z" fill="#000"/></svg>

  <!-- Drop (down/up) -->
  <svg viewBox="0 0 18 18" id="icon-drop-down-md" class="icon-sprite icon-drop-down-md"><path fill-rule="evenodd" clip-rule="evenodd" d="M5.994 7h6.012c.549 0 .994.448.994 1.001 0 .267-.106.524-.295.712L9.7 11.71a.99.99 0 01-1.4 0L5.295 8.713a1.006 1.006 0 01-.007-1.416A.99.99 0 015.994 7z" fill="#000"/></svg>
  <svg viewBox="0 0 24 24" id="icon-drop-down-lg" class="icon-sprite icon-drop-down-lg"><path fill-rule="evenodd" clip-rule="evenodd" d="M8.097 10h7.801a1.098 1.098 0 01.77 1.88l-3.901 3.807a1.102 1.102 0 01-1.539 0l-3.9-3.808A1.094 1.094 0 018.097 10z" fill="#000"/></svg>

  <!-- Sortable -->
  <svg viewBox="0 0 16 16" id="icon-sortable-sm" class="icon-sprite icon-sortable-sm"><path fill-rule="evenodd" clip-rule="evenodd" d="M11.316 9.459a.822.822 0 010 1.162l-2.734 2.734a.822.822 0 01-1.163 0l-2.734-2.734A.822.822 0 015.847 9.46L8 11.61l2.153-2.152a.822.822 0 011.163 0zM8.582 2.645l2.734 2.734a.822.822 0 11-1.163 1.163L8 4.39 5.847 6.542A.822.822 0 014.685 5.38l2.734-2.734a.822.822 0 011.163 0z" fill="#000"/></svg>
  <svg viewBox="0 0 18 18" id="icon-sortable-md" class="icon-sprite icon-sortable-md"><path fill-rule="evenodd" clip-rule="evenodd" d="M12.73 10.64a.925.925 0 010 1.309l-3.076 3.076a.925.925 0 01-1.308 0L5.27 11.949a.925.925 0 111.308-1.308L9 13.063l2.422-2.422a.925.925 0 011.308 0zM9.654 2.977l3.076 3.076a.925.925 0 11-1.308 1.308L9 4.938 6.578 7.36A.925.925 0 115.27 6.052l3.076-3.076a.925.925 0 011.308 0z" fill="#000"/></svg>
  <svg viewBox="0 0 24 24" id="icon-sortable-lg" class="icon-sprite icon-sortable-lg"><path fill-rule="evenodd" clip-rule="evenodd" d="M8.747 14.293L12 17.546l3.252-3.253a1 1 0 011.415 1.414l-3.96 3.96a1 1 0 01-1.414 0l-3.96-3.96a1 1 0 111.414-1.414zm3.96-10l3.96 3.96a1 1 0 11-1.415 1.414L12 6.414 8.747 9.667a1 1 0 01-1.414-1.414l3.96-3.96a1 1 0 011.414 0z" fill="#000"/></svg>

  <!-- Show -->
  <svg viewBox="0 0 18 18" id="icon-show-md" class="icon-sprite icon-show-md"><path fill-rule="evenodd" clip-rule="evenodd" d="M9 3c4.01 0 7.448 2.476 8.9 5.998-1.452 3.523-4.89 5.998-8.9 5.998-4.01 0-7.447-2.476-8.9-5.998C1.553 5.476 4.99 3 9 3zm0 1.75c-2.96 0-5.62 1.67-6.97 4.248 1.35 2.58 4.01 4.248 6.97 4.248s5.62-1.669 6.97-4.248C14.62 6.42 11.96 4.75 9 4.75zm0 .75a3.5 3.5 0 110 7 3.5 3.5 0 010-7zm0 1.75a1.75 1.75 0 100 3.5 1.75 1.75 0 000-3.5z" fill="#000"/></svg>
  <svg viewBox="0 0 24 24" id="icon-show-lg" class="icon-sprite icon-show-lg"><path fill-rule="evenodd" clip-rule="evenodd" d="M12 4c5.361 0 9.958 3.301 11.9 7.998-1.942 4.696-6.539 7.997-11.9 7.997-5.361 0-9.958-3.301-11.9-7.997C2.042 7.3 6.64 4 12 4zm0 2C7.853 6 4.136 8.364 2.3 11.998 4.136 15.63 7.853 17.995 12 17.995s7.864-2.364 9.701-5.997C19.864 8.364 16.147 6 12.001 6zm0 1a5 5 0 110 10 5 5 0 010-10zm0 2a3 3 0 100 6 3 3 0 000-6z" fill="#000"/></svg>

  <!-- Hide -->
  <svg viewBox="0 0 18 18" id="icon-hide-md" class="icon-sprite icon-hide-md"><path fill-rule="evenodd" clip-rule="evenodd" d="M3.499 2.261l12.233 12.233a.875.875 0 01-1.238 1.238l-1.575-1.575a9.515 9.515 0 01-3.919.84c-4.01 0-7.447-2.476-8.9-5.999A9.761 9.761 0 013.503 4.74L2.26 3.499A.875.875 0 113.5 2.26zm1.264 3.74a7.963 7.963 0 00-2.734 2.997C3.38 11.578 6.04 13.246 9 13.246c.894 0 1.761-.152 2.573-.436l-1.162-1.162A3 3 0 016.352 7.59L4.762 6zM9 3c4.01 0 7.448 2.476 8.9 5.998a9.769 9.769 0 01-2.078 3.137l-1.236-1.237a7.988 7.988 0 001.385-1.9C14.62 6.42 11.96 4.75 9 4.75c-.183 0-.365.006-.545.019l-1.54-1.54A9.57 9.57 0 019 3z" fill="#000"/></svg>
  <svg viewBox="0 0 24 24" id="icon-hide-lg" class="icon-sprite icon-hide-lg"><path fill-rule="evenodd" clip-rule="evenodd" d="M3.707 2.293l18.031 18.031a1 1 0 11-1.414 1.414l-2.932-2.932A12.751 12.751 0 0112 19.996c-5.361 0-9.958-3.302-11.9-7.998a13.02 13.02 0 014.701-5.783L2.293 3.707a1 1 0 011.414-1.414zM6.246 7.66a10.965 10.965 0 00-3.947 4.338C4.136 15.63 7.853 17.995 12 17.995c1.351 0 2.657-.25 3.866-.715l-1.108-1.108a5 5 0 01-6.929-6.929L6.245 7.66zM12 4c5.361 0 9.958 3.301 11.9 7.998a13.026 13.026 0 01-3.147 4.54l-1.414-1.414c.955-.88 1.76-1.935 2.362-3.126C19.864 8.364 16.147 6 12.001 6c-.563 0-1.117.043-1.66.127L8.657 4.442A12.804 12.804 0 0112 4zm0 3a5 5 0 014.947 5.732l-5.68-5.679c.24-.035.484-.053.733-.053z" fill="#000"/></svg>

  <!-- Unlock -->
  <svg viewBox="0 0 16 16" id="icon-unlock-sm" class="icon-sprite icon-unlock-sm"><path fill-rule="evenodd" clip-rule="evenodd" d="M8 1a4.002 4.002 0 013.874 3h-1.802A2.3 2.3 0 005.7 5v1h6.8A1.5 1.5 0 0114 7.5v6a1.5 1.5 0 01-1.5 1.5h-9A1.5 1.5 0 012 13.5v-6A1.5 1.5 0 013.5 6H4V5a4 4 0 014-4zm4.3 6.7H3.7v5.6h8.6V7.7zM8.5 9a.5.5 0 01.5.5v2a.5.5 0 01-.5.5h-1a.5.5 0 01-.5-.5v-2a.5.5 0 01.5-.5h1z" fill="#000"/></svg>
  <svg viewBox="0 0 18 18" id="icon-unlock-md" class="icon-sprite icon-unlock-md"><path fill-rule="evenodd" clip-rule="evenodd" d="M9 0a5.002 5.002 0 014.9 4h-2.07A3.001 3.001 0 006 5v1h8.25c.966 0 1.75.784 1.75 1.75v7.5A1.75 1.75 0 0114.25 17H3.75A1.75 1.75 0 012 15.25v-7.5C2 6.784 2.784 6 3.75 6H4V5a5 5 0 015-5zm5.25 7.75H3.75v7.5h10.5v-7.5zM8.998 9c.916 0 1.667.705 1.74 1.602l.005.152c0 .591-.293 1.114-.743 1.43V13.7a.3.3 0 01-.3.3H8.3a.3.3 0 01-.3-.3v-1.513a1.744 1.744 0 01-.74-1.273l-.008-.168C7.252 9.782 8.034 9 8.998 9z" fill="#000"/></svg>
  <svg viewBox="0 0 24 24" id="icon-unlock-lg" class="icon-sprite icon-unlock-lg"><path fill-rule="evenodd" clip-rule="evenodd" d="M12 0a7.003 7.003 0 016.71 5h-2.126A5.001 5.001 0 007 7v1h13a2 2 0 012 2v11a2 2 0 01-2 2H4a2 2 0 01-2-2V10a2 2 0 012-2h1V7a7 7 0 017-7zm8 10H4v11h16V10zm-8.004 2c1.237 0 2.249.96 2.33 2.176l.006.188c0 .785-.388 1.48-.982 1.904V18.5a.5.5 0 01-.5.5h-1.7a.5.5 0 01-.5-.5v-2.227a2.334 2.334 0 01-.983-1.729l-.007-.208A2.336 2.336 0 0111.996 12z" fill="#000"/></svg>

  <!-- Locked -->
  <svg viewBox="0 0 16 16" id="icon-locked-sm" class="icon-sprite icon-locked-sm"><path fill-rule="evenodd" clip-rule="evenodd" d="M4 6V5a4 4 0 118 0v1h.5A1.5 1.5 0 0114 7.5v6a1.5 1.5 0 01-1.5 1.5h-9A1.5 1.5 0 012 13.5v-6A1.5 1.5 0 013.5 6H4zm1.75 0h4.5V5a2.25 2.25 0 00-4.5 0v1zM7.5 9a.5.5 0 00-.5.5v2a.5.5 0 00.5.5h1a.5.5 0 00.5-.5v-2a.5.5 0 00-.5-.5h-1z" fill="#000"/></svg>
  <svg viewBox="0 0 18 18" id="icon-locked-md" class="icon-sprite icon-locked-md"><path fill-rule="evenodd" clip-rule="evenodd" d="M4 6V5a5 5 0 0110 0v1h.25c.966 0 1.75.784 1.75 1.75v7.5A1.75 1.75 0 0114.25 17H3.75A1.75 1.75 0 012 15.25v-7.5C2 6.784 2.784 6 3.75 6H4zm1.75 0h6.5V5a3.25 3.25 0 00-6.5 0v1zM10 12.184c.45-.316.743-.839.743-1.43v-.008a1.746 1.746 0 10-3.491 0v.008c0 .594.296 1.118.748 1.433V13.7a.3.3 0 00.3.3h1.4a.3.3 0 00.3-.3v-1.516z" fill="#000"/></svg>
  <svg viewBox="0 0 24 24" id="icon-locked-lg" class="icon-sprite icon-locked-lg"><path fill-rule="evenodd" clip-rule="evenodd" d="M5 8V7a7 7 0 0114 0v1h1a2 2 0 012 2v11a2 2 0 01-2 2H4a2 2 0 01-2-2V10a2 2 0 012-2h1zm2 0h10V7A5 5 0 007 7v1zm6.35 8.268a2.333 2.333 0 00.982-1.904v-.028a2.336 2.336 0 10-4.672 0v.028c0 .789.391 1.486.99 1.91V18.5a.5.5 0 00.5.5h1.7a.5.5 0 00.5-.5v-2.232z" fill="#000"/></svg>

  <!-- Add item -->
  <svg viewBox="0 0 16 16" id="icon-item-add-sm" class="icon-sprite icon-item-add-sm"><path fill-rule="evenodd" clip-rule="evenodd" d="M8 0a8 8 0 110 16A8 8 0 018 0zm0 1.65a6.35 6.35 0 100 12.7 6.35 6.35 0 000-12.7zM8 4a1 1 0 011 1v2h2a1 1 0 110 2H9v2a1 1 0 11-2 0V9H5a1 1 0 110-2h2V5a1 1 0 011-1z" fill="#000"/></svg>
  <svg viewBox="0 0 18 18" id="icon-item-add-md" class="icon-sprite icon-item-add-md"><path fill-rule="evenodd" clip-rule="evenodd" d="M9 0a9 9 0 110 18A9 9 0 019 0zm0 1.75a7.25 7.25 0 100 14.5 7.25 7.25 0 000-14.5zM9 5a1 1 0 011 1v2h2a1 1 0 110 2h-2v2a1 1 0 11-2 0v-2H6a1 1 0 110-2h2V6a1 1 0 011-1z" fill="#000"/></svg>
  <svg viewBox="0 0 24 24" id="icon-item-add-lg" class="icon-sprite icon-item-add-lg"><path fill-rule="evenodd" clip-rule="evenodd" d="M12 0c6.627 0 12 5.373 12 12s-5.373 12-12 12S0 18.627 0 12 5.373 0 12 0zm0 2C6.477 2 2 6.477 2 12s4.477 10 10 10 10-4.477 10-10S17.523 2 12 2zm0 4a1 1 0 011 1v4h4a1 1 0 110 2h-4v4a1 1 0 11-2 0v-4H7a1 1 0 110-2h4V7a1 1 0 011-1z" fill="#000"/></svg>

  <!-- Remove item -->
  <svg viewBox="0 0 16 16" id="icon-item-remove-sm" class="icon-sprite icon-item-remove-sm"><path fill-rule="evenodd" clip-rule="evenodd" d="M8 0a8 8 0 110 16A8 8 0 018 0zm0 1.65a6.35 6.35 0 100 12.7 6.35 6.35 0 000-12.7zM11 7a1 1 0 110 2H5a1 1 0 110-2h6z" fill="#000"/></svg>
  <svg viewBox="0 0 18 18" id="icon-item-remove-md" class="icon-sprite icon-item-remove-md"><path fill-rule="evenodd" clip-rule="evenodd" d="M9 0a9 9 0 110 18A9 9 0 019 0zm0 1.75a7.25 7.25 0 100 14.5 7.25 7.25 0 000-14.5zM12 8a1 1 0 110 2H6a1 1 0 110-2h6z" fill="#000"/></svg>
  <svg viewBox="0 0 24 24" id="icon-item-remove-lg" class="icon-sprite icon-item-remove-lg"><path fill-rule="evenodd" clip-rule="evenodd" d="M12 0c6.627 0 12 5.373 12 12s-5.373 12-12 12S0 18.627 0 12 5.373 0 12 0zm0 2C6.477 2 2 6.477 2 12s4.477 10 10 10 10-4.477 10-10S17.523 2 12 2zm5 9a1 1 0 110 2H7a1 1 0 110-2h10z" fill="#000"/></svg>

  <!-- Flip Card -->
  <svg viewBox="0 0 18 18" id="icon-card-flip-md" class="icon-sprite icon-card-flip-md"><path fill-rule="evenodd" clip-rule="evenodd" d="M6.75 9.875v5.48l8.5.895V1.75l-8.5.895v4.36H5v-4.36A1.75 1.75 0 016.567.905l8.5-.895A1.75 1.75 0 0117 1.75v14.5a1.75 1.75 0 01-1.933 1.74l-8.5-.894A1.75 1.75 0 015 15.356V9.874H2.875a1.125 1.125 0 100 2.25h1v1.75h-1a2.875 2.875 0 010-5.75h8.138L9.39 6.499a.88.88 0 010-1.242.874.874 0 011.24 0l3.113 3.122a.88.88 0 010 1.242l-3.114 3.122a.874.874 0 01-1.239 0 .88.88 0 010-1.242l1.623-1.626H6.75z" fill="#000"/></svg>
  <svg viewBox="0 0 24 24" id="icon-card-flip-lg" class="icon-sprite icon-card-flip-lg"><path fill-rule="evenodd" clip-rule="evenodd" d="M14.586 11l-2.293-2.293a1 1 0 011.414-1.414l4 4a1 1 0 010 1.414l-4 4a1 1 0 01-1.414-1.414L14.586 13H9v7.28L21 22V2L9 3.72v5.203H7V3.721a2 2 0 011.716-1.98l12-1.72A2 2 0 0123 2V22a2 2 0 01-2.284 1.98l-12-1.721A2 2 0 017 20.279V13H3.5a1.5 1.5 0 100 3H6v2H3.5a3.5 3.5 0 110-7h11.086z" fill="#000"/></svg>

  <!-- Play -->
  <svg viewBox="0 0 18 18" id="icon-play-md" class="icon-sprite icon-play-md"><path fill-rule="evenodd" clip-rule="evenodd" d="M5.842 2.148L16.207 7.68a1.495 1.495 0 010 2.64L5.842 15.852A1.254 1.254 0 014 14.752V3.248a1.25 1.25 0 011.842-1.1z" fill="#000"/></svg>
  <svg viewBox="0 0 24 24" id="icon-play-lg" class="icon-sprite icon-play-lg"><path fill-rule="evenodd" clip-rule="evenodd" d="M6.196 2.169l15.863 8.28a1.75 1.75 0 010 3.102l-15.863 8.28A1.501 1.501 0 014 20.501V3.498a1.5 1.5 0 012.196-1.33z" fill="#000"/></svg>

  <!-- Pause -->
  <svg viewBox="0 0 18 18" id="icon-pause-md" class="icon-sprite icon-pause-md"><path fill-rule="evenodd" clip-rule="evenodd" d="M13.7 3A1.3 1.3 0 0115 4.3v9.4a1.3 1.3 0 01-1.3 1.3h-2.4a1.3 1.3 0 01-1.3-1.3V4.3A1.3 1.3 0 0111.3 3h2.4zm-7 0A1.3 1.3 0 018 4.3v9.4A1.3 1.3 0 016.7 15H4.3A1.3 1.3 0 013 13.7V4.3A1.3 1.3 0 014.3 3h2.4z" fill="#000"/></svg>
  <svg viewBox="0 0 24 24" id="icon-pause-lg" class="icon-sprite icon-pause-lg"><path fill-rule="evenodd" clip-rule="evenodd" d="M19.5 3A1.5 1.5 0 0121 4.5v15a1.5 1.5 0 01-1.5 1.5h-4a1.5 1.5 0 01-1.5-1.5v-15A1.5 1.5 0 0115.5 3h4zm-11 0A1.5 1.5 0 0110 4.5v15A1.5 1.5 0 018.5 21h-4A1.5 1.5 0 013 19.5v-15A1.5 1.5 0 014.5 3h4z" fill="#000"/></svg>

  <!-- Fast Forward -->
  <svg viewBox="0 0 18 18" id="icon-fast-forward-md" class="icon-sprite icon-past-forward-md"><path fill-rule="evenodd" clip-rule="evenodd" d="M8.022 11.02l-4.156 2.309c-.605.336-1.37.12-1.707-.482A1.244 1.244 0 012 12.24V5.76c0-.69.562-1.249 1.255-1.249.214 0 .424.055.611.159L8.022 6.98V5.249a1.252 1.252 0 011.8-1.124L17.15 7.65a1.495 1.495 0 010 2.698l-7.328 3.526c-.623.3-1.373.04-1.675-.58a1.244 1.244 0 01-.125-.544V11.02z" fill="#000"/></svg>
  <svg viewBox="0 0 24 24" id="icon-fast-forward-lg" class="icon-sprite icon-fast-forward-lg"><path fill-rule="evenodd" clip-rule="evenodd" d="M10.013 15.137l-5.776 3.228A1.504 1.504 0 012 17.057V6.936a1.5 1.5 0 012.237-1.308l5.776 3.228v-2.36a1.5 1.5 0 012.16-1.348l10.842 5.276a1.747 1.747 0 010 3.145l-10.841 5.275a1.504 1.504 0 01-2.161-1.347v-2.36z" fill="#000"/></svg>

  <!-- Rewind -->
  <svg viewBox="0 0 18 18" id="icon-fast-rewind-md" class="icon-sprite icon-past-rewind-md"><path fill-rule="evenodd" clip-rule="evenodd" d="M9.978 11.02v1.731c0 .188-.043.374-.125.544-.302.62-1.052.88-1.675.58L.85 10.35a1.495 1.495 0 010-2.698l7.328-3.526a1.252 1.252 0 011.8 1.124v1.73l4.156-2.308A1.252 1.252 0 0116 5.76v6.478a1.258 1.258 0 01-1.866 1.09l-4.156-2.31z" fill="#000"/></svg>
  <svg viewBox="0 0 24 24" id="icon-fast-rewind-lg" class="icon-sprite icon-past-rewind-lg"><path fill-rule="evenodd" clip-rule="evenodd" d="M13.987 15.137v2.36a1.504 1.504 0 01-2.16 1.348L.984 13.569a1.747 1.747 0 010-3.144l10.841-5.277a1.505 1.505 0 012.161 1.348v2.36l5.776-3.228A1.505 1.505 0 0122 6.936v10.121a1.504 1.504 0 01-2.237 1.308l-5.776-3.228z" fill="#000"/></svg>

  <!-- Forward 10 -->
  <svg viewBox="0 0 18 18" id="icon-forward-10-md" class="icon-sprite icon-forward-10-md"><path fill-rule="evenodd" clip-rule="evenodd" d="M9.031 0c1.788 0 3.494.52 4.941 1.465L15.317.12A.4.4 0 0116 .403v4.189a.4.4 0 01-.4.4l-4.198.01a.4.4 0 01-.284-.683l1.565-1.565a7.253 7.253 0 00-3.652-.98C5.023 1.775 1.775 5.01 1.775 9c0 3.99 3.248 7.225 7.256 7.225 3.671 0 6.751-2.728 7.201-6.321a.887.887 0 011.761.22C17.433 14.604 13.599 18 9.031 18 4.044 18 0 13.971 0 9s4.044-9 9.031-9zm2.045 5.749c.824 0 1.446.313 1.868.938.421.625.632 1.54.632 2.744 0 1.246-.204 2.17-.613 2.768-.408.6-1.037.899-1.887.899-.823 0-1.444-.31-1.863-.928-.418-.619-.627-1.532-.627-2.74 0-1.26.203-2.188.61-2.785s1.034-.896 1.88-.896zm-3.645.112V13H5.922V8.87l.015-.68.024-.742-.355.345c-.046.044-.087.08-.12.11l-.868.698-.727-.909 2.3-1.83h1.24zm3.645 1.109c-.355 0-.609.191-.761.573-.153.383-.23 1.012-.23 1.888 0 .875.076 1.503.227 1.882.151.38.406.569.764.569.352 0 .606-.192.762-.576.156-.384.234-1.01.234-1.875 0-.876-.079-1.505-.236-1.888-.158-.382-.412-.573-.76-.573z" fill="#000"/></svg>
  <svg viewBox="0 0 24 24" id="icon-forward-10-lg" class="icon-sprite icon-forward-10-lg"><path fill-rule="evenodd" clip-rule="evenodd" d="M12.022 0c2.315 0 4.528.657 6.42 1.851L20.146.146A.5.5 0 0121 .5v4.99a.5.5 0 01-.499.5l-5.002.012a.5.5 0 01-.354-.854l1.838-1.839A9.996 9.996 0 0012.023 2C6.488 2 2.002 6.477 2.002 12s4.486 10 10.02 10c5.193 0 9.514-3.962 9.977-9.09a1.001 1.001 0 011.996.18C23.44 19.246 18.256 24 12.022 24 5.382 24 0 18.627 0 12S5.383 0 12.022 0zm2.587 7.574c1.07 0 1.88.406 2.428 1.218.548.813.822 2.002.822 3.568 0 1.62-.265 2.82-.797 3.599-.53.779-1.348 1.168-2.453 1.168-1.07 0-1.878-.402-2.421-1.206-.544-.804-.816-1.991-.816-3.561 0-1.638.264-2.845.793-3.621.53-.777 1.344-1.165 2.444-1.165zM9.87 7.72V17H7.91v-5.37l.019-.882.031-.965-.364.357a5.337 5.337 0 01-.315.284l-1.066.857-.946-1.18 2.99-2.381H9.87zm4.74 1.44c-.462 0-.792.25-.991.746-.199.498-.299 1.316-.299 2.454 0 1.138.099 1.954.296 2.447.197.493.528.74.993.74.457 0 .787-.25.99-.75.204-.499.305-1.312.305-2.437 0-1.138-.103-1.956-.308-2.454-.205-.497-.534-.745-.987-.745z" fill="#000"/></svg>

  <!-- Backward 10 -->
  <svg viewBox="0 0 18 18" id="icon-backward-10-md" class="icon-sprite icon-backward-10-md"><path fill-rule="evenodd" clip-rule="evenodd" d="M8.969 0C13.956 0 18 4.029 18 9s-4.044 9-9.031 9C4.402 18 .568 14.604.007 10.124a.887.887 0 111.76-.22c.45 3.593 3.53 6.321 7.202 6.321 4.008 0 7.256-3.235 7.256-7.225 0-3.99-3.248-7.225-7.256-7.225-1.309 0-2.561.345-3.652.98l1.565 1.564a.4.4 0 01-.284.683l-4.199-.01a.4.4 0 01-.399-.4V.402A.4.4 0 012.683.12l1.345 1.345A9.022 9.022 0 018.968 0zm2.107 5.749c.824 0 1.446.313 1.868.938.421.625.632 1.54.632 2.744 0 1.246-.204 2.17-.613 2.768-.408.6-1.037.899-1.887.899-.823 0-1.444-.31-1.863-.928-.418-.619-.627-1.532-.627-2.74 0-1.26.203-2.188.61-2.785s1.034-.896 1.88-.896zm-3.645.112V13H5.922V8.87l.015-.68.024-.742-.355.345c-.046.044-.087.08-.12.11l-.868.698-.727-.909 2.3-1.83h1.24zm3.645 1.109c-.355 0-.609.191-.761.573-.153.383-.23 1.012-.23 1.888 0 .875.076 1.503.227 1.882.151.38.406.569.764.569.352 0 .606-.192.762-.576.156-.384.234-1.01.234-1.875 0-.876-.079-1.505-.236-1.888-.158-.382-.412-.573-.76-.573z" fill="#000"/></svg>
  <svg viewBox="0 0 24 24" id="icon-backward-10-lg" class="icon-sprite icon-backward-10-lg"><path fill-rule="evenodd" clip-rule="evenodd" d="M11.978 0C18.618 0 24 5.373 24 12s-5.383 12-12.022 12C5.744 24 .56 19.246.004 13.09A1.001 1.001 0 012 12.91C2.463 18.038 6.784 22 11.978 22c5.533 0 10.018-4.477 10.018-10S17.511 2 11.978 2a9.996 9.996 0 00-4.961 1.31l1.838 1.838a.5.5 0 01-.354.854L3.499 5.99A.5.5 0 013 5.49V.5a.5.5 0 01.854-.354l1.705 1.705A11.997 11.997 0 0111.977 0zm2.631 7.574c1.07 0 1.88.406 2.428 1.218.548.813.822 2.002.822 3.568 0 1.62-.265 2.82-.797 3.599-.53.779-1.348 1.168-2.453 1.168-1.07 0-1.878-.402-2.421-1.206-.544-.804-.816-1.991-.816-3.561 0-1.638.264-2.845.793-3.621.53-.777 1.344-1.165 2.444-1.165zM9.87 7.72V17H7.91v-5.37l.019-.882.031-.965-.364.357a5.337 5.337 0 01-.315.284l-1.066.857-.946-1.18 2.99-2.381H9.87zm4.74 1.44c-.462 0-.792.25-.991.746-.199.498-.299 1.316-.299 2.454 0 1.138.099 1.954.296 2.447.197.493.528.74.993.74.457 0 .787-.25.99-.75.204-.499.305-1.312.305-2.437 0-1.138-.103-1.956-.308-2.454-.205-.497-.534-.745-.987-.745z" fill="#000"/></svg>

  <!-- Fullscreen (On) -->
  <svg viewBox="0 0 18 18" id="icon-fullscreen-on-md" class="icon-sprite icon-fullscreen-on-md"><path fill-rule="evenodd" clip-rule="evenodd" d="M2 11a1 1 0 011 1v3h3a1 1 0 110 2H3a2 2 0 01-2-2v-3a1 1 0 011-1zm14 0a1 1 0 011 1v3a2 2 0 01-2 2h-3a1 1 0 110-2h3v-3a1 1 0 011-1zM6 1a1 1 0 010 2H3v3a1 1 0 01-2 0V3a2 2 0 012-2h3zm9 0a2 2 0 012 2v3a1 1 0 11-2 0V3h-3a1 1 0 110-2h3z" fill="#000"/></svg>
  <svg viewBox="0 0 24 24" id="icon-fullscreen-on-lg" class="icon-sprite icon-fullscreen-on-lg"><path fill-rule="evenodd" clip-rule="evenodd" d="M2 14a1 1 0 011 1v5a1 1 0 001 1h5a1 1 0 110 2H4a3 3 0 01-3-3v-5a1 1 0 011-1zm20 0a1 1 0 011 1v5a3 3 0 01-3 3h-5a1 1 0 110-2h5a1 1 0 001-1v-5a1 1 0 011-1zM9 1a1 1 0 110 2H4a1 1 0 00-1 1v5a1 1 0 11-2 0V4a3 3 0 013-3h5zm11 0a3 3 0 013 3v5a1 1 0 11-2 0V4a1 1 0 00-1-1h-5a1 1 0 110-2h5z" fill="#000"/></svg>

  <!-- Video -->
  <svg viewBox="0 0 18 18" id="icon-video-md" class="icon-sprite icon-video-md"><path fill-rule="evenodd" clip-rule="evenodd" d="M3.12 2h11.76C16.05 2 17 2.95 17 4.12v9.76c0 1.17-.95 2.12-2.12 2.12H3.12A2.12 2.12 0 011 13.88V4.12C1 2.95 1.95 2 3.12 2zm0 1.75a.37.37 0 00-.37.37v9.76c0 .204.166.37.37.37h11.76a.37.37 0 00.37-.37V4.12a.37.37 0 00-.37-.37H3.12zm3.939 2.756A.4.4 0 007 6.715v4.57a.4.4 0 00.609.341l3.453-2.114a.6.6 0 000-1.024L7.609 6.374a.4.4 0 00-.55.132z" fill="#000"/></svg>
  <svg viewBox="0 0 24 24" id="icon-video-lg" class="icon-sprite icon-video-lg"><path fill-rule="evenodd" clip-rule="evenodd" d="M3.5 2h17A2.5 2.5 0 0123 4.5v15a2.5 2.5 0 01-2.5 2.5h-17A2.5 2.5 0 011 19.5v-15A2.5 2.5 0 013.5 2zm0 2a.5.5 0 00-.5.5v15a.5.5 0 00.5.5h17a.5.5 0 00.5-.5v-15a.5.5 0 00-.5-.5h-17zm6.576 4.483a.5.5 0 00-.076.265v6.504a.5.5 0 00.765.423l4.923-3.082a.7.7 0 000-1.186l-4.923-3.082a.5.5 0 00-.689.158z" fill="#000"/></svg>

  <!-- Fullscreen (Off) -->
  <svg viewBox="0 0 18 18" id="icon-fullscreen-off-md" class="icon-sprite icon-fullscreen-off-md"><path fill-rule="evenodd" clip-rule="evenodd" d="M5 11a2 2 0 012 2v3a1 1 0 11-2 0v-3H2a1 1 0 110-2h3zm11 0a1 1 0 110 2h-3v3a1 1 0 11-2 0v-3a2 2 0 012-2h3zM6 1a1 1 0 011 1v3a2 2 0 01-2 2H2a1 1 0 010-2h3V2a1 1 0 011-1zm6 0a1 1 0 011 1v3h3a1 1 0 110 2h-3a2 2 0 01-2-2V2a1 1 0 011-1z" fill="#000"/></svg>
  <svg viewBox="0 0 24 24" id="icon-fullscreen-off-lg" class="icon-sprite icon-fullscreen-off-lg"><path fill-rule="evenodd" clip-rule="evenodd" d="M22 14a1 1 0 110 2h-5a1 1 0 00-1 1v5a1 1 0 11-2 0v-5a3 3 0 013-3h5zM7 14a3 3 0 013 3v5a1 1 0 11-2 0v-5a1 1 0 00-1-1H2a1 1 0 110-2h5zm8-13a1 1 0 011 1v5a1 1 0 001 1h5a1 1 0 110 2h-5a3 3 0 01-3-3V2a1 1 0 011-1zM9 1a1 1 0 011 1v5a3 3 0 01-3 3H2a1 1 0 110-2h5a1 1 0 001-1V2a1 1 0 011-1z" fill="#000"/></svg>

  <!-- Enlarge -->
  <svg viewBox="0 0 16 16" id="icon-enlarge-sm" class="icon-sprite icon-enlarge-sm"><path fill-rule="evenodd" clip-rule="evenodd" d="M11.333 1.083a.806.806 0 000 1.611h.833l-3.76 3.76a.806.806 0 101.14 1.14l3.76-3.761v.834a.806.806 0 001.61 0V1.889a.806.806 0 00-.805-.806h-2.778zm-3.74 7.324a.806.806 0 00-1.14 0l-3.759 3.76v-.834a.806.806 0 10-1.611 0v2.778c0 .445.36.806.806.806h2.777a.806.806 0 000-1.611h-.832l3.759-3.76a.806.806 0 000-1.14z" fill="#000"/></svg>
  <svg viewBox="0 0 18 18" id="icon-enlarge-md" class="icon-sprite icon-enlarge-md"><path fill-rule="evenodd" clip-rule="evenodd" d="M12.75 1.25a.875.875 0 000 1.75h1.012L9.48 7.283a.875.875 0 101.237 1.237L15 4.237V5.25a.875.875 0 001.75 0V2.125a.875.875 0 00-.875-.875H12.75zM8.52 9.48a.875.875 0 00-1.237 0L3 13.763V12.75a.875.875 0 00-1.75 0v3.125c0 .483.392.875.875.875H5.25a.875.875 0 000-1.75H4.238l4.282-4.283a.875.875 0 000-1.237z" fill="#000"/></svg>
  <svg viewBox="0 0 24 24" id="icon-enlarge-lg" class="icon-sprite icon-enlarge-lg"><path fill-rule="evenodd" clip-rule="evenodd" d="M17 1.75a1.083 1.083 0 000 2.167h1.55L12.699 9.77a1.083 1.083 0 101.532 1.532l5.853-5.854V7a1.083 1.083 0 002.167 0V2.833c0-.598-.485-1.083-1.083-1.083H17zm-5.698 10.948a1.083 1.083 0 00-1.532 0l-5.853 5.854V17a1.083 1.083 0 00-2.167 0v4.167c0 .598.485 1.083 1.083 1.083H7a1.083 1.083 0 100-2.167H5.45l5.852-5.852a1.083 1.083 0 000-1.533z" fill="#000"/></svg>
  
  <!-- Enlage finer -->
  <svg viewBox="0 0 16 16" id="icon-enlarge-finer-sm" class="icon-sprite icon-enlarge-finer-sm"><path d="M7.2125 8.60938L7.39062 8.7875C7.5375 8.93438 7.5375 9.17188 7.39062 9.31875L2.70625 14H4.625C4.83125 14 5 14.1688 5 14.375V14.625C5 14.8313 4.83125 15 4.625 15H1.375C1.16875 15 1 14.8313 1 14.625V11.375C1 11.1688 1.16875 11 1.375 11H1.625C1.83125 11 2 11.1688 2 11.375V13.2937L6.68437 8.60938C6.82812 8.4625 7.06563 8.4625 7.2125 8.60938ZM14.625 1H11.375C11.1688 1 11 1.16875 11 1.375V1.625C11 1.83125 11.1688 2 11.375 2H13.2937L8.60938 6.68437C8.4625 6.83125 8.4625 7.06875 8.60938 7.21562L8.7875 7.39375C8.93437 7.54063 9.17188 7.54063 9.31875 7.39375L14 2.70625V4.625C14 4.83125 14.1688 5 14.375 5H14.625C14.8313 5 15 4.83125 15 4.625V1.375C15 1.16875 14.8313 1 14.625 1Z" fill="currentColor"/></svg>
  <svg viewBox="0 0 18 18" id="icon-enlarge-finer-md" class="icon-sprite icon-enlarge-finer-md"><path d="M8.1 9.69643L8.30357 9.9C8.47143 10.0679 8.47143 10.3393 8.30357 10.5071L2.95 15.8571H5.14286C5.37857 15.8571 5.57143 16.05 5.57143 16.2857V16.5714C5.57143 16.8071 5.37857 17 5.14286 17H1.42857C1.19286 17 1 16.8071 1 16.5714V12.8571C1 12.6214 1.19286 12.4286 1.42857 12.4286H1.71429C1.95 12.4286 2.14286 12.6214 2.14286 12.8571V15.05L7.49643 9.69643C7.66071 9.52857 7.93214 9.52857 8.1 9.69643ZM16.5714 1H12.8571C12.6214 1 12.4286 1.19286 12.4286 1.42857V1.71429C12.4286 1.95 12.6214 2.14286 12.8571 2.14286H15.05L9.69643 7.49643C9.52857 7.66429 9.52857 7.93571 9.69643 8.10357L9.9 8.30714C10.0679 8.475 10.3393 8.475 10.5071 8.30714L15.8571 2.95V5.14286C15.8571 5.37857 16.05 5.57143 16.2857 5.57143H16.5714C16.8071 5.57143 17 5.37857 17 5.14286V1.42857C17 1.19286 16.8071 1 16.5714 1Z" fill="currentColor"/></svg>
  <svg viewBox="0 0 24 24" id="icon-enlarge-finer-lg" class="icon-sprite icon-enlarge-finer-lg"><path d="M10.875 12.8705L11.1295 13.125C11.3393 13.3348 11.3393 13.6741 11.1295 13.8839L4.4375 20.5714H7.17857C7.47321 20.5714 7.71429 20.8125 7.71429 21.1071V21.4643C7.71429 21.7589 7.47321 22 7.17857 22H2.53571C2.24107 22 2 21.7589 2 21.4643V16.8214C2 16.5268 2.24107 16.2857 2.53571 16.2857H2.89286C3.1875 16.2857 3.42857 16.5268 3.42857 16.8214V19.5625L10.1205 12.8705C10.3259 12.6607 10.6652 12.6607 10.875 12.8705ZM21.4643 2H16.8214C16.5268 2 16.2857 2.24107 16.2857 2.53571V2.89286C16.2857 3.1875 16.5268 3.42857 16.8214 3.42857H19.5625L12.8705 10.1205C12.6607 10.3304 12.6607 10.6696 12.8705 10.8795L13.125 11.1339C13.3348 11.3438 13.6741 11.3438 13.8839 11.1339L20.5714 4.4375V7.17857C20.5714 7.47321 20.8125 7.71429 21.1071 7.71429H21.4643C21.7589 7.71429 22 7.47321 22 7.17857V2.53571C22 2.24107 21.7589 2 21.4643 2Z" fill="currentColor"/></svg>

  <!-- Mic (On) -->
  <svg viewBox="0 0 18 18" id="icon-mic-on-md" class="icon-sprite icon-mic-on-md"><path fill-rule="evenodd" clip-rule="evenodd" d="M15.125 8c.483 0 .875.392.875.875V9a7.001 7.001 0 01-6 6.93v1.57a.5.5 0 01-.5.5h-1a.5.5 0 01-.5-.5v-1.57a7.002 7.002 0 01-5.996-6.685L2 8.875a.875.875 0 111.75 0V9a5.25 5.25 0 1010.5 0v-.125c0-.483.392-.875.875-.875zM9 0a4 4 0 014 4v5a4 4 0 01-8 0V4a4 4 0 014-4z" fill="#000"/></svg>
  <svg viewBox="0 0 24 24" id="icon-mic-on-lg" class="icon-sprite icon-mic-on-lg"><path fill-rule="evenodd" clip-rule="evenodd" d="M20 11a1 1 0 011 1v1c0 4.633-3.5 8.448-8 8.945V23.5a.5.5 0 01-.5.5h-1a.5.5 0 01-.5-.5v-1.555C6.5 21.448 3 17.633 3 13v-1a1 1 0 112 0v1a7 7 0 1014 0v-1a1 1 0 011-1zM12 0a5 5 0 015 5v8a5 5 0 01-10 0V5a5 5 0 015-5z" fill="#000"/></svg>

  <!-- Mic (Off) -->
  <svg viewBox="0 0 18 18" id="icon-mic-off-md" class="icon-sprite icon-mic-off-md"><path fill-rule="evenodd" clip-rule="evenodd" d="M3.619 2.381l12 12a.875.875 0 11-1.238 1.238l-1.089-1.09A6.966 6.966 0 0110 15.93V17.5a.5.5 0 01-.5.5h-1a.5.5 0 01-.5-.5v-1.57a7.002 7.002 0 01-5.996-6.685L2 8.875a.875.875 0 111.75 0V9a5.25 5.25 0 008.292 4.28l-.9-.901A4 4 0 015 9V6.237L2.381 3.62A.875.875 0 113.62 2.38zM15.125 8c.483 0 .875.392.875.875V9c0 1.05-.231 2.046-.646 2.94l-1.35-1.35c.16-.501.246-1.036.246-1.59v-.125c0-.483.392-.875.875-.875zM9 0a4 4 0 014 4v5c0 .186-.013.37-.037.548l-7.471-7.47A4 4 0 019 0z" fill="#000"/></svg>
  <svg viewBox="0 0 24 24" id="icon-mic-off-lg" class="icon-sprite icon-mic-off-lg"><path fill-rule="evenodd" clip-rule="evenodd" d="M3.707 2.293l18 18a1 1 0 01-1.414 1.414l-2.14-2.14A8.968 8.968 0 0113 21.946V23.5a.5.5 0 01-.5.5h-1a.5.5 0 01-.5-.5v-1.555C6.5 21.448 3 17.633 3 13v-1a1 1 0 112 0v1a7 7 0 0011.738 5.152l-1.416-1.415A5 5 0 017 13V8.414L2.293 3.707a1 1 0 011.414-1.414zM20 11a1 1 0 011 1v1a8.972 8.972 0 01-.714 3.518l-1.563-1.563c.18-.62.277-1.276.277-1.955v-1a1 1 0 011-1zM12 0a5 5 0 015 5v8l-.005.227L7.238 3.47A5.002 5.002 0 0112 0z" fill="#000"/></svg>

  <!-- Volume (Up) -->
  <svg viewBox="0 0 18 18" id="icon-volume-up-md" class="icon-sprite icon-volume-up-md"><path fill-rule="evenodd" clip-rule="evenodd" d="M12.328.77a8.877 8.877 0 010 16.46.875.875 0 01-.656-1.623 7.127 7.127 0 000-13.214.875.875 0 11.656-1.623zm-4.078.887a.75.75 0 01.75.75V15.59a.75.75 0 01-1.285.525L3.673 12H1.5A1.5 1.5 0 010 10.5v-3A1.5 1.5 0 011.5 6h2.084L7.72 1.876a.75.75 0 01.53-.219zm4.334 3.337A5.363 5.363 0 0114.375 9c0 1.549-.66 2.993-1.791 4.006a.875.875 0 11-1.168-1.304A3.613 3.613 0 0012.625 9a3.613 3.613 0 00-1.209-2.702.875.875 0 111.168-1.304z" fill="#000"/></svg>
  <svg viewBox="0 0 24 24" id="icon-volume-up-lg" class="icon-sprite icon-volume-up-lg"><path fill-rule="evenodd" clip-rule="evenodd" d="M15.272.452a12.004 12.004 0 010 23.096 1 1 0 01-.544-1.924 10.004 10.004 0 000-19.248 1 1 0 01.544-1.924zM11 1.662a1 1 0 011 1v18.671a1 1 0 01-1.72.694L4.484 16H2a2 2 0 01-2-2v-4a2 2 0 012-2h2.36l5.926-6.038a1 1 0 01.714-.3zm4.462 3.683A7.498 7.498 0 0119.5 12a7.498 7.498 0 01-4.038 6.655 1 1 0 01-.924-1.774A5.498 5.498 0 0017.5 12a5.499 5.499 0 00-2.962-4.881 1 1 0 01.924-1.774z" fill="#000"/></svg>

  <!-- Volume (Down) -->
  <svg viewBox="0 0 18 18" id="icon-volume-down-md" class="icon-sprite icon-volume-down-md"><path fill-rule="evenodd" clip-rule="evenodd" d="M8.25 1.657a.75.75 0 01.75.75V15.59a.75.75 0 01-1.285.525L3.673 12H1.5A1.5 1.5 0 010 10.5v-3A1.5 1.5 0 011.5 6h2.084L7.72 1.876a.75.75 0 01.53-.219zm4.334 3.337A5.363 5.363 0 0114.375 9c0 1.549-.66 2.993-1.791 4.006a.875.875 0 11-1.168-1.304A3.613 3.613 0 0012.625 9a3.613 3.613 0 00-1.209-2.702.875.875 0 111.168-1.304z" fill="#000"/></svg>
  <svg viewBox="0 0 24 24" id="icon-volume-down-lg" class="icon-sprite icon-volume-down-lg"><path fill-rule="evenodd" clip-rule="evenodd" d="M11 1.662a1 1 0 011 1v18.672a1 1 0 01-1.72.692L4.484 16H2a2 2 0 01-2-2v-4a2 2 0 012-2h2.36l5.926-6.038a1 1 0 01.714-.3zm4.462 3.683A7.498 7.498 0 0119.5 12a7.498 7.498 0 01-4.038 6.655 1 1 0 11-.924-1.774A5.499 5.499 0 0017.5 12a5.498 5.498 0 00-2.962-4.881 1 1 0 01.924-1.774z" fill="#000"/></svg>

  <!-- Mute -->
  <svg viewBox="0 0 18 18" id="icon-mute-md" class="icon-sprite icon-mute-md"><path fill-rule="evenodd" clip-rule="evenodd" d="M8.25 1.657a.75.75 0 01.75.75V15.59a.75.75 0 01-1.285.525L3.673 12H1.5A1.5 1.5 0 010 10.5v-3A1.5 1.5 0 011.5 6h2.084L7.72 1.876a.75.75 0 01.53-.219zm4.116 4.577L14 7.87l1.634-1.635a.8.8 0 011.132 1.132L15.13 9l1.635 1.634a.8.8 0 01-1.132 1.132L14 10.13l-1.634 1.635a.8.8 0 01-1.132-1.132L12.87 9l-1.635-1.634a.8.8 0 011.132-1.132z" fill="#000"/></svg>
  <svg viewBox="0 0 24 24" id="icon-mute-lg" class="icon-sprite icon-mute-lg"><path fill-rule="evenodd" clip-rule="evenodd" d="M11 1.662a1 1 0 011 1v18.672a1 1 0 01-1.72.692L4.484 16H2a2 2 0 01-2-2v-4a2 2 0 012-2h2.36l5.926-6.038a1 1 0 01.714-.3zm4.707 5.63L19 10.587l3.293-3.293a1 1 0 111.414 1.414L20.414 12l3.293 3.293a1 1 0 01-1.414 1.414L19 13.414l-3.293 3.293a1 1 0 01-1.414-1.414L17.586 12l-3.293-3.293a1 1 0 011.414-1.414z" fill="#000"/></svg>

  <!-- Active section -->
  <svg viewBox="0 0 16 16" id="icon-active-section-sm" class="icon-sprite icon-active-section-sm"><path fill-rule="evenodd" clip-rule="evenodd" d="M8 2a6 6 0 100 12A6 6 0 008 2zM0 8a8 8 0 1116 0A8 8 0 010 8z" fill="#000"/><path fill-rule="evenodd" clip-rule="evenodd" d="M8 5a3 3 0 100 6 3 3 0 000-6zM3 8a5 5 0 1110 0A5 5 0 013 8z" fill="#000"/><path d="M8 10a2 2 0 100-4 2 2 0 000 4z" fill="#000"/></svg>
  <svg viewBox="0 0 18 18" id="icon-active-section-md" class="icon-sprite icon-active-section-md"><path fill-rule="evenodd" clip-rule="evenodd" d="M9 2.25a6.75 6.75 0 100 13.5 6.75 6.75 0 000-13.5zM0 9a9 9 0 1118 0A9 9 0 010 9z" fill="#000"/><path fill-rule="evenodd" clip-rule="evenodd" d="M9 5.625a3.375 3.375 0 100 6.75 3.375 3.375 0 000-6.75zM3.375 9a5.625 5.625 0 1111.25 0 5.625 5.625 0 01-11.25 0z" fill="#000"/><path d="M9 11.25a2.25 2.25 0 100-4.5 2.25 2.25 0 000 4.5z" fill="#000"/></svg>
  <svg viewBox="0 0 24 24" id="icon-active-section-lg" class="icon-sprite icon-active-section-lg"><path fill-rule="evenodd" clip-rule="evenodd" d="M12 3a9 9 0 100 18 9 9 0 000-18zM0 12C0 5.373 5.373 0 12 0s12 5.373 12 12-5.373 12-12 12S0 18.627 0 12z" fill="#000"/><path fill-rule="evenodd" clip-rule="evenodd" d="M12 7.5a4.5 4.5 0 100 9 4.5 4.5 0 000-9zM4.5 12a7.5 7.5 0 1115 0 7.5 7.5 0 01-15 0z" fill="#000"/><path d="M12 15a3 3 0 100-6 3 3 0 000 6z" fill="#000"/></svg>

  <!-- View Picture -->
  <svg viewBox="0 0 18 18" id="icon-view-picture-md" class="icon-sprite icon-view-picture-md"><path fill-rule="evenodd" clip-rule="evenodd" d="M3.125 2h11.75C16.049 2 17 2.951 17 4.125v9.75A2.125 2.125 0 0114.875 16H3.125A2.125 2.125 0 011 13.875v-9.75C1 2.951 1.951 2 3.125 2zm12.125 8.473V4.125a.375.375 0 00-.375-.375H3.125a.375.375 0 00-.375.375v8.765L5.406 9.44a1.375 1.375 0 011.929-.251c.055.044.055.044.108.092l.896.85 2.106-3.2a1.375 1.375 0 012.271-.038l2.534 3.58zM11.605 8.35l3.645 5.151v.373a.375.375 0 01-.375.375H3.912l2.628-3.414 1.135 1.078c.45.428 1.163.41 1.59-.041.067-.074.067-.074.125-.156l2.215-3.366z" fill="#000"/><circle cx="5.5" cy="6.5" r="1.5" fill="#000"/></svg>
  <svg viewBox="0 0 24 24" id="icon-view-picture-lg" class="icon-sprite icon-view-picture-lg"><path fill-rule="evenodd" clip-rule="evenodd" d="M20.5 2h-17A2.5 2.5 0 001 4.5v15A2.5 2.5 0 003.5 22h17a2.5 2.5 0 002.5-2.5v-15A2.5 2.5 0 0020.5 2zm.5 2.5v10.09L17.286 9.86a2 2 0 00-3.188.055l-2.99 4.097-1.376-1.178a2 2 0 00-2.788.18L3 17.396V4.5a.5.5 0 01.5-.5h17a.5.5 0 01.5.5zm-5.287 6.593L21 17.831V19.5a.5.5 0 01-.5.5h-17a.497.497 0 01-.137-.02l5.068-5.628 1.991 1.705a1.25 1.25 0 001.823-.213l3.468-4.75zM9 8a2 2 0 11-4 0 2 2 0 014 0z" fill="#000"/></svg>

  <!-- Listen -->
  <svg viewBox="0 0 18 18" id="icon-listen-md" class="icon-sprite icon-listen-md"><path fill-rule="evenodd" clip-rule="evenodd" d="M2.25 8.513V7a6 6 0 016-6h1.5a6 6 0 016 6v1.513A4.285 4.285 0 0118 12.286v.428A4.286 4.286 0 0113.714 17H13.5a1.5 1.5 0 01-1.5-1.5v-6A1.5 1.5 0 0113.5 8h.214c.096 0 .192.003.286.01V7a4.25 4.25 0 00-4.25-4.25h-1.5A4.25 4.25 0 004 7v1.01c.094-.007.19-.01.286-.01H4.5A1.5 1.5 0 016 9.5v6A1.5 1.5 0 014.5 17h-.214A4.286 4.286 0 010 12.714v-.428c0-1.63.91-3.048 2.25-3.773zm-.5 3.773v.428a2.536 2.536 0 002.5 2.536v-5.5a2.536 2.536 0 00-2.5 2.536zm12-2.536a2.536 2.536 0 012.5 2.536v.428a2.536 2.536 0 01-2.5 2.536v-5.5z" fill="#000"/></svg>
  <svg viewBox="0 0 24 24" id="icon-listen-lg" class="icon-sprite icon-listen-lg"><path fill-rule="evenodd" clip-rule="evenodd" d="M21 11.684c1.787.967 3 2.857 3 5.03v.572A5.714 5.714 0 0118.286 23H18a2 2 0 01-2-2v-8a2 2 0 012-2h.286c.242 0 .48.015.714.044V9a6 6 0 00-6-6h-2a6 6 0 00-6 6v2.044c.234-.029.472-.044.714-.044H6a2 2 0 012 2v8a2 2 0 01-2 2h-.286A5.714 5.714 0 010 17.286v-.572a5.713 5.713 0 013-5.03V9a8 8 0 018-8h2a8 8 0 018 8v2.684zM18.286 13H18v8h.286A3.714 3.714 0 0022 17.286v-.572A3.714 3.714 0 0018.286 13zM2 16.714A3.714 3.714 0 015.714 13H6v8h-.286A3.714 3.714 0 012 17.286v-.572z" fill="#000"/></svg>

  <!-- Virtual Reality -->
  <svg viewBox="0 0 18 18" id="icon-virtual-reality-md" class="icon-sprite icon-virtual-reality-md"><path fill-rule="evenodd" clip-rule="evenodd" d="M15 2a3 3 0 013 3v8a3 3 0 01-3 3h-2.728a2 2 0 01-1.62-.828l-.572-.79.095-.131a1.443 1.443 0 01-.1.123l-.832-1.149a.3.3 0 00-.486 0l-.832 1.15a1.45 1.45 0 01-.1-.124l.095.131-.571.79a2 2 0 01-1.62.828H3a3 3 0 01-3-3V5a3 3 0 013-3h12zm0 1.75H3c-.69 0-1.25.56-1.25 1.25v8c0 .69.56 1.25 1.25 1.25h2.728a.25.25 0 00.203-.104L7.339 12.2a2.048 2.048 0 013.322 0l1.408 1.947a.25.25 0 00.203.104H15c.69 0 1.25-.56 1.25-1.25V5c0-.69-.56-1.25-1.25-1.25zM5.5 6a2.5 2.5 0 110 5 2.5 2.5 0 010-5zm7 0a2.5 2.5 0 110 5 2.5 2.5 0 010-5zm-7 1.6a.9.9 0 100 1.8.9.9 0 000-1.8zm7 0a.9.9 0 100 1.8.9.9 0 000-1.8z" fill="#000"/></svg>
  <svg viewBox="0 0 24 24" id="icon-virtual-reality-lg" class="icon-sprite icon-virtual-reality-lg"><path fill-rule="evenodd" clip-rule="evenodd" d="M20 3a4 4 0 014 4v10a4 4 0 01-4 4h-3.5a3 3 0 01-2.4-1.2l-1.7-2.267a.5.5 0 00-.8 0L9.9 19.8A3 3 0 017.5 21H4a4 4 0 01-4-4V7a4 4 0 014-4h16zm0 2H4a2 2 0 00-2 2v10a2 2 0 002 2h3.5a1 1 0 00.8-.4l1.7-2.267a2.501 2.501 0 014 0l1.7 2.267a1 1 0 00.8.4H20a2 2 0 002-2V7a2 2 0 00-2-2zM7.5 8a3.5 3.5 0 110 7 3.5 3.5 0 010-7zm9 0a3.5 3.5 0 110 7 3.5 3.5 0 010-7zm-9 2a1.5 1.5 0 100 3 1.5 1.5 0 000-3zm9 0a1.5 1.5 0 100 3 1.5 1.5 0 000-3z" fill="#000"/></svg>

  <!-- Share -->
  <svg viewBox="0 0 16 16" id="icon-share-sm" class="icon-sprite icon-share-sm"><path fill-rule="evenodd" clip-rule="evenodd" d="M12.083 9.167c.809 0 1.497.284 2.065.852.568.568.852 1.256.852 2.064 0 .809-.284 1.497-.852 2.065a2.812 2.812 0 01-2.065.852 2.812 2.812 0 01-2.064-.852 2.812 2.812 0 01-.852-2.065c0-.073.006-.176.018-.31l-3.281-1.64a2.812 2.812 0 01-1.987.784 2.812 2.812 0 01-2.065-.852A2.812 2.812 0 011 8c0-.808.284-1.496.852-2.064a2.812 2.812 0 012.065-.853c.765 0 1.428.262 1.987.784l3.28-1.64a3.667 3.667 0 01-.017-.31c0-.808.284-1.497.852-2.065A2.812 2.812 0 0112.083 1c.809 0 1.497.284 2.065.852.568.568.852 1.256.852 2.065 0 .808-.284 1.496-.852 2.064a2.812 2.812 0 01-2.065.852 2.812 2.812 0 01-1.987-.784L6.816 7.69c.011.134.017.237.017.31 0 .073-.006.176-.018.31l3.281 1.64a2.812 2.812 0 011.987-.783z" fill="#000"/></svg>
  <svg viewBox="0 0 18 18" id="icon-share-md" class="icon-sprite icon-share-md"><path fill-rule="evenodd" clip-rule="evenodd" d="M13.667 10.333c.923 0 1.71.325 2.359.974.65.65.974 1.436.974 2.36 0 .923-.325 1.71-.974 2.359-.65.65-1.436.974-2.36.974-.923 0-1.71-.325-2.359-.974a3.213 3.213 0 01-.974-2.36c0-.083.007-.2.021-.354l-3.75-1.874a3.214 3.214 0 01-2.27.895c-.924 0-1.71-.324-2.36-.974A3.213 3.213 0 011 9c0-.924.325-1.71.974-2.36a3.213 3.213 0 012.36-.973c.874 0 1.631.298 2.27.896l3.75-1.875a4.196 4.196 0 01-.02-.355c0-.923.324-1.71.973-2.359A3.213 3.213 0 0113.667 1c.923 0 1.71.325 2.359.974.65.65.974 1.436.974 2.36 0 .923-.325 1.71-.974 2.359-.65.649-1.436.974-2.36.974a3.214 3.214 0 01-2.27-.896l-3.75 1.875c.014.153.02.27.02.354 0 .083-.006.201-.02.354l3.75 1.875a3.213 3.213 0 012.27-.896z" fill="#000"/></svg>
  <svg viewBox="0 0 24 24" id="icon-share-lg" class="icon-sprite icon-share-lg"><path fill-rule="evenodd" clip-rule="evenodd" d="M17.833 13.667c1.155 0 2.138.405 2.95 1.217.811.812 1.217 1.795 1.217 2.95 0 1.154-.406 2.137-1.217 2.949-.812.811-1.795 1.217-2.95 1.217-1.154 0-2.137-.406-2.949-1.217-.812-.812-1.217-1.795-1.217-2.95 0-.104.008-.251.026-.442l-4.688-2.344a4.017 4.017 0 01-2.838 1.12c-1.155 0-2.138-.406-2.95-1.218C2.406 14.138 2 13.155 2 12c0-1.155.406-2.138 1.217-2.95.812-.81 1.795-1.217 2.95-1.217 1.093 0 2.04.374 2.838 1.12l4.688-2.344a5.223 5.223 0 01-.026-.442c0-1.155.405-2.138 1.217-2.95C15.696 2.406 16.68 2 17.834 2c1.154 0 2.137.406 2.949 1.217C21.594 4.03 22 5.012 22 6.167c0 1.154-.406 2.137-1.217 2.949-.812.812-1.795 1.217-2.95 1.217a4.017 4.017 0 01-2.838-1.12l-4.688 2.344c.018.191.026.339.026.443 0 .104-.008.252-.026.443l4.688 2.344a4.017 4.017 0 012.838-1.12z" fill="#000"/></svg>

  <!-- Copy -->
  <svg viewBox="0 0 16 16" id="icon-copy-sm" class="icon-sprite icon-copy-sm"><path fill-rule="evenodd" clip-rule="evenodd" d="M13 3.502a.5.5 0 01-.5.5h-6a.5.5 0 01-.5-.5V3h-.5a.5.5 0 00-.5.5V5h3.286C9.232 5 10 5.746 10 6.667V14h3.5a.5.5 0 00.5-.5v-10a.5.5 0 00-.5-.5H13v.502zM13.5 15H9.857c-.264.589-.868 1-1.571 1H2.714C1.768 16 1 15.254 1 14.333V6.667C1 5.747 1.768 5 2.714 5H4V3.5A1.5 1.5 0 015.5 2h.586A1.5 1.5 0 017.5 1.002h.585a1.5 1.5 0 012.83 0h.585A1.5 1.5 0 0112.914 2h.586A1.5 1.5 0 0115 3.5v10a1.5 1.5 0 01-1.5 1.5zm-9-9h3.9c.331 0 .6.256.6.571v7.858c0 .315-.269.571-.6.571H2.6c-.331 0-.6-.256-.6-.571V6.57C2 6.256 2.269 6 2.6 6h1.9zM7 2.502v.5h5v-.5a.5.5 0 00-.5-.5h-1a.5.5 0 01-.5-.5.5.5 0 00-1 0 .5.5 0 01-.5.5h-1a.5.5 0 00-.5.5zM3 8.5a.5.5 0 00.5.5h4a.5.5 0 000-1h-4a.5.5 0 00-.5.5zm.5 2.5a.5.5 0 010-1h4a.5.5 0 010 1h-4zM3 12.5a.5.5 0 00.5.5h3a.5.5 0 000-1h-3a.5.5 0 00-.5.5z" fill="#000"/></svg>
  <svg viewBox="0 0 18 18" id="icon-copy-md" class="icon-sprite icon-copy-md"><path fill-rule="evenodd" clip-rule="evenodd" d="M14.75 3.94c0 .31-.252.563-.563.563h-6.75a.563.563 0 01-.562-.563v-.565h-.563a.563.563 0 00-.562.563v1.687h3.696c1.066 0 1.929.84 1.929 1.875v8.25h3.938c.31 0 .562-.252.562-.563V3.938a.562.562 0 00-.563-.562h-.562v.565zM9.446 18c.791 0 1.47-.463 1.768-1.125h4.098c.932 0 1.688-.756 1.688-1.688V3.938c0-.931-.756-1.687-1.688-1.687h-.659a1.688 1.688 0 00-1.59-1.122h-.659a1.688 1.688 0 00-3.183 0h-.659c-.733 0-1.358.468-1.59 1.122h-.66c-.931 0-1.687.756-1.687 1.688v1.687H3.179c-1.066 0-1.929.84-1.929 1.875v8.625C1.25 17.16 2.113 18 3.179 18h6.267zM5.188 6.75h4.387c.373 0 .675.288.675.643v8.84c0 .354-.302.642-.675.642H3.05c-.373 0-.675-.288-.675-.643v-8.84c0-.354.302-.642.675-.642h2.138zM8 2.815v.563h5.625v-.563a.562.562 0 00-.563-.562h-1.124a.562.562 0 01-.563-.563.562.562 0 10-1.125 0c0 .31-.252.563-.563.563H8.563A.563.563 0 008 2.815zM3.5 9.563c0 .31.252.562.563.562h4.5a.563.563 0 000-1.125h-4.5a.563.563 0 00-.563.563zm.563 2.812a.562.562 0 110-1.125h4.5a.562.562 0 110 1.125h-4.5zM3.5 14.063c0 .31.252.562.563.562h3.375a.562.562 0 100-1.125H4.063a.562.562 0 00-.563.563z" fill="#000"/></svg>
  <svg viewBox="0 0 24 24" id="icon-copy-lg" class="icon-sprite icon-copy-lg"><path fill-rule="evenodd" clip-rule="evenodd" d="M19.5 5.253a.75.75 0 01-.75.75h-9a.75.75 0 01-.75-.75V4.5h-.75a.75.75 0 00-.75.75V7.5h4.929C13.849 7.5 15 8.62 15 10v11h5.25a.75.75 0 00.75-.75v-15a.75.75 0 00-.75-.75h-.75v.753zM12.429 24c1.054 0 1.96-.617 2.357-1.5h5.464a2.25 2.25 0 002.25-2.25v-15A2.25 2.25 0 0020.25 3h-.88a2.25 2.25 0 00-2.12-1.497h-.878a2.25 2.25 0 00-4.245 0h-.877A2.25 2.25 0 009.13 3h-.88A2.25 2.25 0 006 5.25V7.5H4.071C2.651 7.5 1.5 8.62 1.5 10v11.5c0 1.38 1.151 2.5 2.571 2.5h8.358zM6.75 9h5.85c.497 0 .9.384.9.857v11.786c0 .473-.403.857-.9.857H3.9c-.497 0-.9-.384-.9-.857V9.857C3 9.384 3.403 9 3.9 9h2.85zm3.75-5.247v.75H18v-.75a.75.75 0 00-.75-.75h-1.5a.75.75 0 01-.75-.75.75.75 0 00-1.5 0 .75.75 0 01-.75.75h-1.5a.75.75 0 00-.75.75zm-6 8.997c0 .414.336.75.75.75h6a.75.75 0 000-1.5h-6a.75.75 0 00-.75.75zm.75 3.75a.75.75 0 010-1.5h6a.75.75 0 010 1.5h-6zm-.75 2.25c0 .414.336.75.75.75h4.5a.75.75 0 000-1.5h-4.5a.75.75 0 00-.75.75z" fill="#000"/></svg>

  <!-- File -->
  <svg viewBox="0 0 16 16" id="icon-file-sm" class="icon-sprite icon-file-sm"><path fill-rule="evenodd" clip-rule="evenodd" d="M3.556.889h6.743c.235 0 .461.094.628.26l3.035 3.035c.167.167.26.393.26.629v8.52c0 .982-.796 1.778-1.777 1.778h-8.89a1.778 1.778 0 0 1-1.777-1.778V2.667c0-.982.796-1.778 1.778-1.778Zm9.11 4.444h-2a.889.889 0 0 1-.888-.889v-2H3.556c-.123 0-.223.1-.223.223v10.666c0 .123.1.223.223.223h8.889c.122 0 .222-.1.222-.223v-8Z" fill="#000"/></svg>
  <svg viewBox="0 0 18 18" id="icon-file-md" class="icon-sprite icon-file-md"><path fill-rule="evenodd" clip-rule="evenodd" d="M4 1h7.586a1 1 0 0 1 .707.293l3.414 3.414a1 1 0 0 1 .293.707V15a2 2 0 0 1-2 2H4a2 2 0 0 1-2-2V3a2 2 0 0 1 2-2Zm10.25 5H12a1 1 0 0 1-1-1V2.75H4a.25.25 0 0 0-.25.25v12c0 .138.112.25.25.25h10a.25.25 0 0 0 .25-.25V6Z" fill="#000"/></svg>
  <svg viewBox="0 0 24 24" id="icon-file-lg" class="icon-sprite icon-file-lg"><path fill-rule="evenodd" clip-rule="evenodd" d="M4.5 1h12.086a1 1 0 0 1 .707.293l4.414 4.414a1 1 0 0 1 .293.707V20.5a2.5 2.5 0 0 1-2.5 2.5h-15A2.5 2.5 0 0 1 2 20.5v-17A2.5 2.5 0 0 1 4.5 1ZM20 7h-3a1 1 0 0 1-1-1V3H4.5a.5.5 0 0 0-.5.5v17a.5.5 0 0 0 .5.5h15a.5.5 0 0 0 .5-.5V7Z" fill="#000"/></svg>

  <!-- Download -->
  <svg viewBox="0 0 16 16" id="icon-download-sm" class="icon-sprite icon-download-sm"><path fill-rule="evenodd" clip-rule="evenodd" d="M14.222 9.778c.49 0 .889.398.889.889v2.222a2.222 2.222 0 0 1-2.222 2.222H3.11A2.222 2.222 0 0 1 .889 12.89v-2.222a.889.889 0 1 1 1.777 0v2.222c0 .245.2.444.445.444h9.778a.444.444 0 0 0 .444-.444v-2.222c0-.491.398-.89.889-.89ZM8 0c.49 0 .889.398.889.889v6.846l2.13-2.153a.829.829 0 0 1 1.18 0 .849.849 0 0 1 0 1.192L8.592 10.42a.829.829 0 0 1-1.18 0L3.8 6.772a.849.849 0 0 1 0-1.192.829.829 0 0 1 1.18 0l2.13 2.153V.889C7.11.398 7.51 0 8 0Z" fill="#000"/></svg>
  <svg viewBox="0 0 18 18" id="icon-download-md" class="icon-sprite icon-download-md"><path fill-rule="evenodd" clip-rule="evenodd" d="M16 11a1 1 0 0 1 1 1v2.5a2.5 2.5 0 0 1-2.5 2.5h-11A2.5 2.5 0 0 1 1 14.5V12a1 1 0 1 1 2 0v2.5a.5.5 0 0 0 .5.5h11a.5.5 0 0 0 .5-.5V12a1 1 0 0 1 1-1ZM9 0a1 1 0 0 1 1 1v7.701l2.397-2.421a.932.932 0 0 1 1.328 0c.367.37.367.97 0 1.341l-4.06 4.101a.932.932 0 0 1-1.328 0L4.275 7.62a.955.955 0 0 1 0-1.341.932.932 0 0 1 1.328 0L8 8.699V1a1 1 0 0 1 1-1Z" fill="#000"/></svg>
  <svg viewBox="0 0 24 24" id="icon-download-lg" class="icon-sprite icon-download-lg"><path fill-rule="evenodd" clip-rule="evenodd" d="M22 15a1 1 0 0 1 1 1v4a3 3 0 0 1-3 3H4a3 3 0 0 1-3-3v-4a1 1 0 1 1 2 0v4a1 1 0 0 0 1 1h16a1 1 0 0 0 1-1v-4a1 1 0 0 1 1-1ZM12 0a1 1 0 0 1 1 1v11.586l3.293-3.293a1 1 0 1 1 1.414 1.414l-5 5a.997.997 0 0 1-1.414 0l-5-5a1 1 0 0 1 1.414-1.414L11 12.586V1a1 1 0 0 1 1-1Z" fill="#000"/></svg>

  <!-- Checkmark (not official; brought over from legacy assets b/c none in Figma kit )-->
  <svg viewBox="0 0 28 28" id="icon-check" class="icon-sprite icon-check"><path d="M26.109 8.844c0 .391-.156.781-.438 1.062L12.233 23.344c-.281.281-.672.438-1.062.438s-.781-.156-1.062-.438l-7.781-7.781c-.281-.281-.438-.672-.438-1.062s.156-.781.438-1.062l2.125-2.125c.281-.281.672-.438 1.062-.438s.781.156 1.062.438l4.594 4.609 10.25-10.266c.281-.281.672-.438 1.062-.438s.781.156 1.062.438l2.125 2.125c.281.281.438.672.438 1.062z"/></svg>
  
  <svg viewBox="0 0 16 17" id="icon-check-thin" class="icon-sprite icon-check"><path d="M6.34834 12.65C6.1142 12.65 5.88005 12.5329 5.70445 12.3573L3.1874 9.13768C2.89472 8.78645 2.95325 8.31815 3.30447 8.02546C3.65569 7.73277 4.12397 7.79131 4.41665 8.14253L6.34834 10.6011L11.6166 4.63024C11.9093 4.27901 12.3776 4.27901 12.7288 4.51317C13.08 4.80586 13.08 5.27416 12.7873 5.62539L6.9337 12.3573C6.75809 12.5329 6.58249 12.65 6.34834 12.65Z" fill="currentColor"/></svg>

  <!-- BroadCast (In Live) -->
  <svg viewBox="0 0 18 14" id="icon-broadcast-md" class="icon-sprite icon-broadcast-md"><path d="M15.75 0.25H2.25C1.425 0.25 0.75 0.925 0.75 1.75V4H2.25V1.75H15.75V12.25H10.5V13.75H15.75C16.575 13.75 17.25 13.075 17.25 12.25V1.75C17.25 0.925 16.575 0.25 15.75 0.25ZM0.75 11.5V13.75H3C3 12.475 2.025 11.5 0.75 11.5ZM0.75 8.5V10C2.85 10 4.5 11.65 4.5 13.75H6C6 10.825 3.675 8.5 0.75 8.5ZM0.75 5.5V7C4.5 7 7.5 10 7.5 13.75H9C9 9.175 5.325 5.5 0.75 5.5Z" fill="#000"/></svg>

  <!-- Arrow left -->
  <svg viewBox="0 0 16 16" id="icon-arrow-left" class="icon-sprite icon-arrow-left">
  <path fill-rule="evenodd" clip-rule="evenodd" d="M5.23191 7H13C13.5523 7 14 7.44772 14 8C14 8.55228 13.5523 9 13 9H5.23191L8.63891 12.4159C9.00036 12.7783 9.00036 13.3658 8.63891 13.7282C8.27746 14.0906 7.69142 14.0906 7.32997 13.7282L2.27109 8.65617C1.90964 8.29378 1.90964 7.70622 2.27109 7.34383L7.32997 2.2718C7.69142 1.9094 8.27746 1.9094 8.63891 2.2718C9.00036 2.63419 9.00036 3.22175 8.63891 3.58414L5.23191 7Z" fill="#000"/>
  </svg>

  <!-- Arrow right -->
  <svg viewBox="0 0 16 16" id="icon-arrow-right" class="icon-sprite icon-arrow-right">
  <path fill-rule="evenodd" clip-rule="evenodd" d="M10.7681 7H3C2.44771 7 2 7.44772 2 8C2 8.55228 2.44771 9 3 9H10.7681L7.36109 12.4159C6.99964 12.7783 6.99964 13.3658 7.36109 13.7282C7.72254 14.0906 8.30858 14.0906 8.67003 13.7282L13.7289 8.65617C14.0904 8.29378 14.0904 7.70622 13.7289 7.34383L8.67003 2.2718C8.30858 1.9094 7.72254 1.9094 7.36109 2.2718C6.99964 2.63419 6.99964 3.22175 7.36109 3.58414L10.7681 7Z" fill="#000"/>
  </svg>

  <!-- Play button -->
  <svg viewBox="0 0 18 18" id="icon-play-button-md" class="icon-sprite icon-play-button-md">
  <path fill-rule="evenodd" clip-rule="evenodd" d="M4.34239 2.14773L14.7066 7.67967C15.4379 8.07001 15.7134 8.97756 15.3219 9.70672C15.182 9.96727 14.9679 10.1807 14.7066 10.3202L4.34238 15.852C3.73294 16.1773 2.97441 15.9484 2.64817 15.3408C2.5509 15.1596 2.5 14.9573 2.5 14.7518L2.5 3.24796C2.5 2.55873 3.06038 2 3.75165 2C3.95776 2 4.16068 2.05075 4.34239 2.14773Z" fill="#000"/>
  </svg>

  <!-- Pause button -->
  <svg viewBox="0 0 18 18" id="icon-pause-button-md" class="icon-sprite icon-pause-button-md">
  <path fill-rule="evenodd" clip-rule="evenodd" d="M13.7 3C14.418 3 15 3.58203 15 4.3V13.7C15 14.418 14.418 15 13.7 15H11.3C10.582 15 10 14.418 10 13.7V4.3C10 3.58203 10.582 3 11.3 3H13.7ZM6.7 3C7.41797 3 8 3.58203 8 4.3V13.7C8 14.418 7.41797 15 6.7 15H4.3C3.58203 15 3 14.418 3 13.7V4.3C3 3.58203 3.58203 3 4.3 3H6.7Z" fill="#000"/>
  </svg>
</svg>
