<svg version="1.1" xmlns="http://www.w3.org/2000/svg" xmlns:xlink="http://www.w3.org/1999/xlink" id="icon-sprite" class="icon-sprite">
  <defs>
    <style>
      svg .icon-sprite { display: none; }
      svg .icon-sprite:target { display: inline; } 
    </style>
  </defs>

  <!-- Error (Inline) -->
  <svg viewBox="0 0 16 16" id="icon-error-inline-sm" class="icon-sprite icon-error-inline-sm"><path fill-rule="evenodd" clip-rule="evenodd" d="M11.582 2.639A6.448 6.448 0 008 1.552 6.4 6.4 0 001.552 8a6.448 6.448 0 1010.03-5.361zm-8.027-1.29a8 8 0 118.89 13.303 8 8 0 01-8.89-13.304zm6.318 3.844L8 7.066 6.127 5.193a.66.66 0 00-.934.934L7.066 8 5.193 9.873a.66.66 0 00.934.934L8 8.934l1.873 1.873a.66.66 0 10.934-.934L8.934 8l1.873-1.873a.66.66 0 10-.934-.934z" fill="#000"/></svg>
  <svg viewBox="0 0 18 18" id="icon-error-inline-md" class="icon-sprite icon-error-inline-md"><path fill-rule="evenodd" clip-rule="evenodd" d="M13.03 2.969A7.254 7.254 0 009 1.746 7.2 7.2 0 001.746 9 7.254 7.254 0 1013.03 2.969zM4 1.517a9 9 0 1110 14.966A9 9 0 014 1.517zm7.107 4.326L9 7.949 6.893 5.843a.743.743 0 10-1.05 1.05L7.949 9l-2.106 2.107a.743.743 0 001.05 1.05L9 10.051l2.107 2.106a.743.743 0 001.05-1.05L10.051 9l2.106-2.107a.743.743 0 00-1.05-1.05z" fill="#000"/></svg>
  <svg viewBox="0 0 24 24" id="icon-error-inline-lg" class="icon-sprite icon-error-inline-lg"><path fill-rule="evenodd" clip-rule="evenodd" d="M17.373 3.958A9.672 9.672 0 0012 2.328 9.6 9.6 0 002.328 12a9.672 9.672 0 1015.046-8.042zM5.334 2.022a12 12 0 1113.334 19.956A12 12 0 015.333 2.022zM14.81 7.79L12 10.6 9.191 7.79a.99.99 0 10-1.4 1.401L10.598 12 7.79 14.809a.99.99 0 001.401 1.4L12 13.402l2.809 2.809a.99.99 0 001.4-1.401L13.402 12l2.809-2.809a.99.99 0 00-1.401-1.4z" fill="#000"/></svg>

  <!-- Warning (Inline) -->
  <svg viewBox="0 0 16 16" id="icon-warning-inline-sm" class="icon-sprite icon-warning-inline-sm"><path fill-rule="evenodd" clip-rule="evenodd" d="M8 1.552A6.448 6.448 0 111.552 8 6.4 6.4 0 018 1.552zM8 0a8 8 0 100 16A8 8 0 008 0zm1.125 11.742v-1.484a.257.257 0 00-.07-.184.228.228 0 00-.172-.074h-1.5a.247.247 0 00-.18.078.247.247 0 00-.078.18v1.484c0 .068.026.128.078.18a.247.247 0 00.18.078h1.5a.228.228 0 00.172-.074c.047-.05.07-.11.07-.184zm.125-7.539l-.14 4.852a.198.198 0 01-.083.136.287.287 0 01-.183.059H7.398a.304.304 0 01-.187-.059c-.052-.039-.078-.084-.078-.136L7 4.203c0-.062.026-.11.078-.14A.29.29 0 017.266 4h1.718a.29.29 0 01.188.063.153.153 0 01.078.14z" fill="#000"/></svg>
  <svg viewBox="0 0 18 18" id="icon-warning-inline-md" class="icon-sprite icon-warning-inline-md"><path fill-rule="evenodd" clip-rule="evenodd" d="M9 1.746A7.254 7.254 0 111.746 9 7.2 7.2 0 019 1.746zM9 0a9 9 0 100 18A9 9 0 009 0zm1.266 13.21v-1.67a.289.289 0 00-.08-.206.256.256 0 00-.193-.084H8.306a.278.278 0 00-.202.088.278.278 0 00-.088.202v1.67c0 .076.029.143.088.202a.278.278 0 00.202.088h1.687c.076 0 .14-.028.194-.084a.289.289 0 00.079-.206zm.14-8.481l-.158 5.458a.222.222 0 01-.092.153.323.323 0 01-.207.066H8.323a.341.341 0 01-.21-.066c-.06-.044-.089-.095-.089-.153l-.149-5.458c0-.07.03-.124.088-.159a.327.327 0 01.21-.07h1.934c.082 0 .153.023.211.07a.173.173 0 01.088.159z" fill="#000"/></svg>
  <svg viewBox="0 0 24 24" id="icon-warning-inline-lg" class="icon-sprite icon-warning-inline-lg"><path fill-rule="evenodd" clip-rule="evenodd" d="M12 2.328A9.672 9.672 0 112.328 12 9.6 9.6 0 0112 2.328zM12 0a12 12 0 100 24 12 12 0 000-24zm1.688 17.613v-2.226a.385.385 0 00-.106-.276.341.341 0 00-.258-.111h-2.25a.37.37 0 00-.27.117.37.37 0 00-.117.27v2.226c0 .102.04.192.118.27a.37.37 0 00.27.117h2.25a.341.341 0 00.257-.111.385.385 0 00.105-.276zm.187-11.308l-.21 7.277a.297.297 0 01-.124.205.43.43 0 01-.275.088h-2.168a.455.455 0 01-.282-.088c-.078-.059-.117-.127-.117-.205L10.5 6.305a.23.23 0 01.117-.211.436.436 0 01.281-.094h2.579c.109 0 .203.031.28.094a.23.23 0 01.118.21z" fill="#000"/></svg>

  <!-- Success (Inline) -->
  <svg viewBox="0 0 16 16" id="icon-success-inline-sm" class="icon-sprite icon-success-inline-sm"><path fill-rule="evenodd" clip-rule="evenodd" d="M8 0a8 8 0 110 16A8 8 0 018 0zm0 1.556a6.444 6.444 0 100 12.888A6.444 6.444 0 008 1.556zm3.649 2.692c.372.26.462.773.202 1.145l-4.323 6.176a.823.823 0 01-1.282.106l-2.193-2.33A.822.822 0 015.25 8.216l1.5 1.595 3.754-5.362a.822.822 0 011.145-.202z" fill="#000"/></svg>
  <svg viewBox="0 0 18 18" id="icon-success-inline-md" class="icon-sprite icon-success-inline-md"><path fill-rule="evenodd" clip-rule="evenodd" d="M9 0a9 9 0 110 18A9 9 0 019 0zm0 1.75a7.25 7.25 0 100 14.5 7.25 7.25 0 000-14.5zm4.105 3.029c.418.293.52.87.227 1.288L8.47 13.015a.925.925 0 01-1.443.12L4.56 10.511a.925.925 0 011.347-1.267l1.688 1.793 4.223-6.032a.925.925 0 011.288-.227z" fill="#000"/></svg>
  <svg viewBox="0 0 24 24" id="icon-success-inline-lg" class="icon-sprite icon-success-inline-lg"><path fill-rule="evenodd" clip-rule="evenodd" d="M12 0c6.627 0 12 5.373 12 12s-5.373 12-12 12S0 18.627 0 12 5.373 0 12 0zm0 2.333c-5.339 0-9.667 4.328-9.667 9.667 0 5.339 4.328 9.667 9.667 9.667 5.339 0 9.667-4.328 9.667-9.667 0-5.339-4.328-9.667-9.667-9.667zm5.473 4.039c.558.39.694 1.16.303 1.717l-6.484 9.264a1.234 1.234 0 01-1.923.159l-3.29-3.495a1.233 1.233 0 011.796-1.691l2.25 2.391 5.63-8.042a1.233 1.233 0 011.718-.303z" fill="#000"/></svg>

  <!-- Information (Inline) -->
  <svg viewBox="0 0 16 16" id="icon-information-inline-sm" class="icon-sprite icon-information-inline-sm"><path fill-rule="evenodd" clip-rule="evenodd" d="M8 0a8 8 0 110 16A8 8 0 018 0zm0 1.556a6.444 6.444 0 100 12.888A6.444 6.444 0 008 1.556zm.444 4.666c.246 0 .445.2.445.445V12a.444.444 0 01-.445.444h-.888A.444.444 0 017.11 12V6.667c0-.246.2-.445.445-.445h.888zm0-2.666c.246 0 .445.199.445.444v.889a.444.444 0 01-.445.444h-.888a.444.444 0 01-.445-.444V4c0-.245.2-.444.445-.444h.888z" fill="#000"/></svg>
  <svg viewBox="0 0 18 18" id="icon-information-inline-md" class="icon-sprite icon-information-inline-md"><path fill-rule="evenodd" clip-rule="evenodd" d="M9 0a9 9 0 110 18A9 9 0 019 0zm0 1.75a7.25 7.25 0 100 14.5 7.25 7.25 0 000-14.5zM9.5 7a.5.5 0 01.5.5v6a.5.5 0 01-.5.5h-1a.5.5 0 01-.5-.5v-6a.5.5 0 01.5-.5h1zm0-3a.5.5 0 01.5.5v1a.5.5 0 01-.5.5h-1a.5.5 0 01-.5-.5v-1a.5.5 0 01.5-.5h1z" fill="#000"/></svg>
  <svg viewBox="0 0 24 24" id="icon-information-inline-lg" class="icon-sprite icon-information-inline-lg"><path fill-rule="evenodd" clip-rule="evenodd" d="M12 0c6.627 0 12 5.373 12 12s-5.373 12-12 12S0 18.627 0 12 5.373 0 12 0zm0 2.333c-5.339 0-9.667 4.328-9.667 9.667 0 5.339 4.328 9.667 9.667 9.667 5.339 0 9.667-4.328 9.667-9.667 0-5.339-4.328-9.667-9.667-9.667zm.667 7c.368 0 .666.299.666.667v8a.667.667 0 01-.666.667h-1.334a.667.667 0 01-.666-.667v-8c0-.368.298-.667.666-.667h1.334zm0-4c.368 0 .666.299.666.667v1.333a.667.667 0 01-.666.667h-1.334a.667.667 0 01-.666-.667V6c0-.368.298-.667.666-.667h1.334z" fill="#000"/></svg>

  <!-- Alert (Banner) -->
  <svg viewBox="0 0 16 16" id="icon-alert-banner-sm" class="icon-sprite icon-alert-banner-sm"><path fill-rule="evenodd" clip-rule="evenodd" d="M9.104 1.63l6.722 11.459c.355.606.15 1.384-.46 1.738a1.284 1.284 0 01-.644.173H1.278A1.275 1.275 0 010 13.73c0-.226.06-.447.174-.641L6.896 1.63a1.282 1.282 0 012.208 0zM7.5 6a.5.5 0 00-.5.5v3a.5.5 0 00.5.5h1a.5.5 0 00.5-.5v-3a.5.5 0 00-.5-.5h-1zm0 5a.5.5 0 00-.5.5v1a.5.5 0 00.5.5h1a.5.5 0 00.5-.5v-1a.5.5 0 00-.5-.5h-1z" fill="#000"/></svg>
  <svg viewBox="0 0 18 18" id="icon-alert-banner-md" class="icon-sprite icon-alert-banner-md"><path fill-rule="evenodd" clip-rule="evenodd" d="M10.242 1.835l7.562 12.89c.4.682.168 1.557-.518 1.955-.22.128-.47.195-.724.195H1.438c-.794 0-1.438-.64-1.438-1.43 0-.253.068-.502.196-.72l7.562-12.89a1.442 1.442 0 012.484 0zM8.437 6.75a.563.563 0 00-.562.563v3.375c0 .31.252.562.563.562h1.124c.311 0 .563-.252.563-.563V7.313a.563.563 0 00-.563-.563H8.438zm0 5.625a.562.562 0 00-.562.563v1.124c0 .311.252.563.563.563h1.124c.311 0 .563-.252.563-.563v-1.124a.562.562 0 00-.563-.563H8.438z" fill="#000"/></svg>
  <svg viewBox="0 0 24 24" id="icon-alert-banner-lg" class="icon-sprite icon-alert-banner-lg"><path fill-rule="evenodd" clip-rule="evenodd" d="M13.656 2.446l10.082 17.187a1.9 1.9 0 01-.69 2.607c-.293.17-.626.26-.965.26H1.916A1.912 1.912 0 010 20.594c0-.338.09-.67.261-.961L10.344 2.446a1.923 1.923 0 013.312 0zM11.25 9a.75.75 0 00-.75.75v4.5c0 .414.336.75.75.75h1.5a.75.75 0 00.75-.75v-4.5a.75.75 0 00-.75-.75h-1.5zm0 7.5a.75.75 0 00-.75.75v1.5c0 .414.336.75.75.75h1.5a.75.75 0 00.75-.75v-1.5a.75.75 0 00-.75-.75h-1.5z" fill="#000"/></svg>

  <!-- Warning (Banner) -->
  <svg viewBox="0 0 16 16" id="icon-warning-banner-sm" class="icon-sprite icon-warning-banner-sm"><path fill-rule="evenodd" clip-rule="evenodd" d="M3.555 1.348a8 8 0 118.89 13.304 8 8 0 01-8.89-13.304zM9.11 9.055l.141-4.852a.153.153 0 00-.078-.14A.29.29 0 008.984 4H7.266a.29.29 0 00-.188.063.153.153 0 00-.078.14l.133 4.852c0 .052.026.097.078.136.052.04.115.059.187.059h1.446c.073 0 .134-.02.183-.059a.198.198 0 00.082-.136zm.016 2.687v-1.484a.257.257 0 00-.07-.184.228.228 0 00-.172-.074h-1.5a.247.247 0 00-.18.078.247.247 0 00-.078.18v1.484c0 .068.026.128.078.18a.247.247 0 00.18.078h1.5a.228.228 0 00.172-.074c.047-.05.07-.11.07-.184z" fill="#000"/></svg>
  <svg viewBox="0 0 18 18" id="icon-warning-banner-md" class="icon-sprite icon-warning-banner-md"><path fill-rule="evenodd" clip-rule="evenodd" d="M4 1.517a9 9 0 1110 14.966A9 9 0 014 1.517zm6.248 8.67l.158-5.458c0-.07-.03-.124-.088-.159a.327.327 0 00-.21-.07H8.173a.327.327 0 00-.211.07.173.173 0 00-.088.159l.15 5.458c0 .058.029.11.087.153a.341.341 0 00.211.066H9.95c.082 0 .151-.022.207-.066a.222.222 0 00.092-.153zm.018 3.023v-1.67a.289.289 0 00-.08-.206.256.256 0 00-.193-.084H8.306a.278.278 0 00-.202.088.278.278 0 00-.088.202v1.67c0 .076.029.143.088.202a.278.278 0 00.202.088h1.687c.076 0 .14-.028.194-.084a.289.289 0 00.079-.206z" fill="#000"/></svg>
  <svg viewBox="0 0 24 24" id="icon-warning-banner-lg" class="icon-sprite icon-warning-banner-lg"><path fill-rule="evenodd" clip-rule="evenodd" d="M5.333 2.022a12 12 0 1113.334 19.956A12 12 0 015.333 2.022zm8.331 11.56l.211-7.277a.23.23 0 00-.117-.211.436.436 0 00-.281-.094h-2.579a.436.436 0 00-.28.094.23.23 0 00-.118.21l.2 7.278c0 .078.038.146.116.205a.455.455 0 00.282.088h2.168a.43.43 0 00.275-.088.297.297 0 00.123-.205zm.024 4.031v-2.226a.385.385 0 00-.106-.276.341.341 0 00-.258-.111h-2.25a.37.37 0 00-.27.117.37.37 0 00-.117.27v2.226c0 .102.04.192.118.27a.37.37 0 00.27.117h2.25a.341.341 0 00.257-.111.385.385 0 00.105-.276z" fill="#000"/></svg>

  <!-- Success (Banner) -->
  <svg viewBox="0 0 16 16" id="icon-success-banner-sm" class="icon-sprite icon-success-banner-sm"><path fill-rule="evenodd" clip-rule="evenodd" d="M8 16A8 8 0 118 0a8 8 0 010 16zm-.472-4.431l4.323-6.176a.822.822 0 00-1.347-.943L6.75 9.812l-1.5-1.595a.822.822 0 10-1.197 1.127l2.193 2.33a.822.822 0 001.085.1.634.634 0 00.197-.205z" fill="#000"/></svg>
  <svg viewBox="0 0 18 18" id="icon-success-banner-md" class="icon-sprite icon-success-banner-md"><path fill-rule="evenodd" clip-rule="evenodd" d="M9 18A9 9 0 119 0a9 9 0 010 18zm-.531-4.986l4.863-6.947a.925.925 0 10-1.515-1.06l-4.223 6.031-1.688-1.793a.925.925 0 00-1.347 1.267l2.467 2.622a.925.925 0 001.221.112.714.714 0 00.194-.192.861.861 0 00.028-.04z" fill="#000"/></svg>
  <svg viewBox="0 0 24 24" id="icon-success-banner-lg" class="icon-sprite icon-success-banner-lg"><path fill-rule="evenodd" clip-rule="evenodd" d="M12 24C5.373 24 0 18.627 0 12S5.373 0 12 0s12 5.373 12 12-5.373 12-12 12zm-.708-6.647l6.484-9.264a1.233 1.233 0 00-2.02-1.414l-5.63 8.042-2.25-2.391a1.233 1.233 0 00-1.797 1.69l3.29 3.496a1.234 1.234 0 001.627.15.952.952 0 00.258-.256l.038-.053z" fill="#000"/></svg>

  <!-- Information (Banner) -->
  <svg viewBox="0 0 16 16" id="icon-information-banner-sm" class="icon-sprite icon-information-banner-sm"><path fill-rule="evenodd" clip-rule="evenodd" d="M16 8A8 8 0 100 8a8 8 0 0016 0zM8.445 3.556c.245 0 .444.199.444.444v.889a.444.444 0 01-.444.444h-.89a.444.444 0 01-.444-.444V4c0-.245.2-.444.445-.444h.889zm0 2.666c.245 0 .444.2.444.445V12a.444.444 0 01-.444.444h-.89A.444.444 0 017.112 12V6.667c0-.246.2-.445.445-.445h.889z" fill="#000"/></svg>
  <svg viewBox="0 0 18 18" id="icon-information-banner-md" class="icon-sprite icon-information-banner-md"><path fill-rule="evenodd" clip-rule="evenodd" d="M18 9A9 9 0 100 9a9 9 0 0018 0zM9.5 4a.5.5 0 01.5.5v1a.5.5 0 01-.5.5h-1a.5.5 0 01-.5-.5v-1a.5.5 0 01.5-.5h1zm0 3a.5.5 0 01.5.5v6a.5.5 0 01-.5.5h-1a.5.5 0 01-.5-.5v-6a.5.5 0 01.5-.5h1z" fill="#000"/></svg>
  <svg viewBox="0 0 24 24" id="icon-information-banner-lg" class="icon-sprite icon-information-banner-lg"><path fill-rule="evenodd" clip-rule="evenodd" d="M24 12c0-6.627-5.373-12-12-12S0 5.373 0 12s5.373 12 12 12 12-5.373 12-12zM12.667 5.333c.368 0 .667.299.667.667v1.333a.667.667 0 01-.667.667h-1.333a.667.667 0 01-.667-.667V6c0-.368.299-.667.667-.667h1.333zm0 4c.368 0 .667.299.667.667v8a.667.667 0 01-.667.667h-1.333a.667.667 0 01-.667-.667v-8c0-.368.299-.667.667-.667h1.333z" fill="#000"/></svg>

</svg>