<svg version="1.1" xmlns="http://www.w3.org/2000/svg" xmlns:xlink="http://www.w3.org/1999/xlink" id="icon-sprite" class="icon-sprite">
  <defs>
    <style>
      svg .icon-sprite { display: none; }
      svg .icon-sprite:target { display: inline; } 
    </style>
  </defs>

  <!-- Mastercard -->
  <svg viewBox="0 0 27 18" id="icon-mastercard-md" class="icon-sprite icon-cc-md icon-mastercard-md"><path fill-rule="evenodd" clip-rule="evenodd" d="M.435 3a3 3 0 013-3H23.26a3 3 0 013 3v12a3 3 0 01-3 3H3.435a3 3 0 01-3-3V3z" fill="#262626"/><path fill="#fff" d="M5.521 3.913h15.58v10.162H5.521z" opacity=".01"/><path fill="#FF5F00" d="M11.257 5.683h4.11v6.62h-4.11z"/><path fill-rule="evenodd" clip-rule="evenodd" d="M11.68 8.994a4.182 4.182 0 011.63-3.31 4.312 4.312 0 00-5.773.454 4.167 4.167 0 000 5.713 4.312 4.312 0 005.774.453 4.182 4.182 0 01-1.63-3.31z" fill="#EB001B"/><path fill-rule="evenodd" clip-rule="evenodd" d="M20.479 11.44v.374h-.063v-.284l-.097.244h-.068l-.097-.244v.284h-.065v-.375h.09l.105.268.105-.268h.09zm-.578.064v.31h-.055v-.31h-.117v-.065h.297v.065h-.125zM20.218 8.994a4.205 4.205 0 01-2.403 3.787 4.318 4.318 0 01-4.504-.478 4.189 4.189 0 001.631-3.31 4.189 4.189 0 00-1.631-3.31 4.318 4.318 0 014.504-.477 4.205 4.205 0 012.403 3.787v.001z" fill="#F79E1B"/></svg>
  <svg viewBox="0 0 35 24" id="icon-mastercard-lg" class="icon-sprite icon-creditcard-lg icon-mastercard-lg"><path fill-rule="evenodd" clip-rule="evenodd" d="M0 3a3 3 0 013-3h28.435a3 3 0 013 3v18a3 3 0 01-3 3H3a3 3 0 01-3-3V3z" fill="#262626"/><path fill="#fff" d="M6.783 5.217h20.773v13.55H6.783z" opacity=".01"/><path fill="#FF5F00" d="M14.43 7.578h5.48v8.827h-5.48z"/><path fill-rule="evenodd" clip-rule="evenodd" d="M14.995 11.992a5.576 5.576 0 012.174-4.412c-2.334-1.81-5.685-1.546-7.699.605a5.556 5.556 0 000 7.616c2.014 2.15 5.365 2.414 7.699.605a5.576 5.576 0 01-2.174-4.414z" fill="#EB001B"/><path fill-rule="evenodd" clip-rule="evenodd" d="M25.955 15.338v.415h-.073v-.415h-.157v-.085h.397v.085h-.167zm.77-.085v.5h-.083v-.379l-.13.325h-.09l-.13-.325v.379h-.087v-.5h.12l.14.357.14-.357h.12zM26.378 11.992c0 2.15-1.244 4.11-3.204 5.05a5.757 5.757 0 01-6.005-.637 5.585 5.585 0 002.174-4.414c0-1.722-.802-3.349-2.174-4.413a5.757 5.757 0 016.005-.636c1.96.94 3.204 2.9 3.204 5.049v.001z" fill="#F79E1B"/></svg>

  <!-- Visa -->
  <svg viewBox="0 0 27 18" id="icon-visa-md" class="icon-sprite icon-cc-md icon-visa-md"><path fill-rule="evenodd" clip-rule="evenodd" d="M.435 3a3 3 0 013-3H23.26a3 3 0 013 3v12a3 3 0 01-3 3H3.435a3 3 0 01-3-3V3z" fill="#0742A6"/><path fill-rule="evenodd" clip-rule="evenodd" d="M12.183 11.64h-1.385l.866-5.218h1.385l-.866 5.217zM17.204 6.55a3.494 3.494 0 00-1.243-.222c-1.367 0-2.33.71-2.337 1.726-.01.75.69 1.165 1.214 1.415.536.255.718.422.718.65-.005.35-.433.51-.831.51-.553 0-.85-.083-1.3-.277l-.182-.084-.194 1.171c.325.145.923.272 1.545.278 1.453 0 2.4-.7 2.41-1.782.006-.593-.364-1.048-1.162-1.42-.485-.239-.782-.4-.782-.644.006-.222.252-.45.798-.45.45-.01.782.095 1.032.2l.125.056.189-1.127zM19.683 6.422h1.071l1.117 5.217H20.59s-.125-.6-.165-.782h-1.779l-.29.782H16.9l2.058-4.784c.142-.338.393-.433.724-.433zm-.086 1.91l-.553 1.459h1.151c-.057-.26-.319-1.51-.319-1.51l-.097-.45a28.383 28.383 0 01-.182.5zM9.64 6.422L8.285 9.98l-.148-.722c-.25-.832-1.037-1.737-1.915-2.186l1.243 4.562h1.464l2.177-5.212H9.641z" fill="#fff"/><path fill-rule="evenodd" clip-rule="evenodd" d="M7.025 6.422H4.796l-.023.106c1.739.433 2.89 1.476 3.363 2.73l-.484-2.397c-.08-.333-.325-.428-.627-.439z" fill="#fff"/></svg>
  <svg viewBox="0 0 35 24" id="icon-visa-lg" class="icon-sprite icon-creditcard-lg icon-visa-lg"><path fill-rule="evenodd" clip-rule="evenodd" d="M0 3a3 3 0 013-3h28.435a3 3 0 013 3v18a3 3 0 01-3 3H3a3 3 0 01-3-3V3z" fill="#0742A6"/><path fill-rule="evenodd" clip-rule="evenodd" d="M15.664 15.519h-1.847l1.155-6.956h1.847l-1.155 6.956zM22.359 8.733a4.658 4.658 0 00-1.657-.296c-1.824 0-3.108.947-3.116 2.301-.015 1 .92 1.554 1.619 1.887.714.34.957.563.957.866-.007.466-.577.681-1.109.681-.737 0-1.132-.11-1.733-.37l-.243-.111-.258 1.561c.433.193 1.231.363 2.06.37 1.937 0 3.199-.932 3.214-2.375.007-.792-.486-1.399-1.55-1.894-.646-.319-1.042-.533-1.042-.859.008-.296.335-.6 1.064-.6.6-.014 1.041.127 1.375.267l.168.074.25-1.502zM25.664 8.563h1.428l1.49 6.956h-1.71s-.167-.8-.22-1.044h-2.371l-.388 1.044h-1.937l2.743-6.379c.19-.451.524-.577.965-.577zm-.114 2.545l-.737 1.947h1.535c-.076-.348-.426-2.013-.426-2.013l-.129-.6c-.054.155-.133.367-.186.51l-.057.156zM12.274 8.563l-1.808 4.743-.198-.962c-.334-1.11-1.383-2.316-2.553-2.915l1.656 6.083h1.953l2.903-6.949h-1.953z" fill="#fff"/><path fill-rule="evenodd" clip-rule="evenodd" d="M8.786 8.563h-2.97l-.031.14c2.317.578 3.853 1.97 4.483 3.642l-.646-3.197c-.106-.444-.433-.57-.836-.585z" fill="#fff"/></svg>

  <!-- Discover (will be replaced with new from Design Team) -->
  <svg viewBox="0 0 27 18" id="icon-discover-md" class="icon-sprite icon-cc-md icon-discover-md"><path fill-rule="evenodd" clip-rule="evenodd" d="M1.435 4a3 3 0 013-3H24.26a3 3 0 013 3v12a3 3 0 01-3 3H4.435a3 3 0 01-3-3V4z" fill="#fff" stroke="#E6E7E8"/><mask id="mask0" maskUnits="userSpaceOnUse" x="4" y="8" width="21" height="6"><path fill-rule="evenodd" clip-rule="evenodd" d="M4.63 13.857h19.462V8.48H4.631v5.377z" fill="#fff"/></mask><g mask="url(#mask0)" fill-rule="evenodd" clip-rule="evenodd" fill="#000"><path d="M4.652 8.569h.881c.973 0 1.651.644 1.651 1.57 0 .46-.207.907-.558 1.202-.295.25-.632.362-1.098.362h-.876V8.57zm.761 2.604c.388 0 .633-.076.821-.25.208-.188.332-.488.332-.79 0-.3-.124-.591-.332-.78-.198-.182-.433-.253-.82-.253h-.162v2.073h.161zM7.461 11.703h.6V8.57h-.6v3.134zM9.528 9.772c-.36-.136-.466-.225-.466-.395 0-.197.189-.347.447-.347.18 0 .328.075.484.254l.314-.42a1.332 1.332 0 00-.904-.347c-.544 0-.959.385-.959.898 0 .432.193.653.757.86.235.084.354.14.415.178.12.08.18.193.18.325 0 .254-.199.442-.466.442-.287 0-.517-.146-.655-.418l-.388.38c.277.414.609.597 1.065.597.624 0 1.061-.422 1.061-1.03 0-.497-.202-.723-.885-.977zM10.602 10.138c0 .922.71 1.636 1.624 1.636.258 0 .48-.052.752-.183v-.72c-.24.245-.452.344-.724.344-.604 0-1.033-.447-1.033-1.081 0-.602.442-1.077 1.005-1.077.286 0 .503.104.752.353v-.72a1.509 1.509 0 00-.738-.192c-.909 0-1.638.729-1.638 1.64zM17.735 10.674l-.82-2.105h-.655l1.305 3.215h.323l1.329-3.215h-.65l-.832 2.105zM19.489 11.703h1.701v-.53h-1.102v-.847h1.062v-.53h-1.062V9.1h1.102v-.531H19.49v3.134M22.477 8.569c.692 0 1.089.338 1.089.925 0 .48-.25.795-.701.889l.968 1.32h-.738l-.83-1.259h-.078v1.26h-.6V8.568h.89zm-.29 1.443h.175c.383 0 .586-.17.586-.485 0-.305-.203-.464-.577-.464h-.185v.949z"/></g><mask id="mask1" maskUnits="userSpaceOnUse" x="13" y="8" width="4" height="4"><path fill-rule="evenodd" clip-rule="evenodd" d="M13.174 10.148v-.001c0-.92.733-1.667 1.636-1.667.904 0 1.637.746 1.637 1.667s-.732 1.668-1.637 1.668c-.903 0-1.636-.747-1.636-1.667z" fill="#fff"/></mask><g mask="url(#mask1)"><path fill="#F47216" d="M13.134 8.445h3.351v3.404h-3.351z"/></g><path d="M23.934 8.697c0-.036.008-.069.025-.1a.186.186 0 01.163-.097.183.183 0 01.163.098c.016.03.024.063.024.099 0 .036-.008.07-.025.1a.187.187 0 01-.162.098.18.18 0 01-.095-.027.189.189 0 01-.068-.072.205.205 0 01-.025-.1zm.343 0a.172.172 0 00-.02-.081.154.154 0 00-.135-.083.154.154 0 00-.135.081.172.172 0 00-.02.083c0 .03.006.058.02.083a.158.158 0 00.056.06.149.149 0 00.157 0 .155.155 0 00.056-.06.173.173 0 00.02-.083zm-.193.02v.089h-.04v-.224h.074c.027 0 .047.006.063.018a.061.061 0 01.023.051c0 .02-.01.035-.03.046.01.005.018.013.022.023.005.01.007.022.007.036v.03l.004.016v.004h-.04a.208.208 0 01-.004-.051c0-.014-.003-.023-.009-.029-.006-.006-.015-.009-.029-.009h-.041zm0-.035h.035a.056.056 0 00.032-.009.026.026 0 00.013-.022c0-.012-.003-.021-.01-.026-.006-.005-.017-.008-.033-.008h-.037v.065z" fill="#000"/></svg>
  <svg viewBox="0 0 35 24" id="icon-discover-lg" class="icon-sprite icon-cc-md icon-discover-lg"><path d="M3 .5h28.435a2.5 2.5 0 012.5 2.5v18a2.5 2.5 0 01-2.5 2.5H3A2.5 2.5 0 01.5 21V3A2.5 2.5 0 013 .5z" fill="#fff" stroke="#E6E7E8"/><mask id="mask0" maskUnits="userSpaceOnUse" x="4" y="9" width="27" height="9"><path fill-rule="evenodd" clip-rule="evenodd" d="M4.261 17.143H30.21v-7.17H4.26v7.17z" fill="#fff"/></mask><g mask="url(#mask0)" fill-rule="evenodd" clip-rule="evenodd" fill="#000"><path d="M4.29 10.093h1.175c1.297 0 2.202.859 2.202 2.092 0 .615-.277 1.21-.745 1.604-.394.334-.842.483-1.463.483H4.29v-4.18zm1.015 3.472c.516 0 .843-.101 1.094-.332.277-.252.443-.652.443-1.054 0-.4-.166-.789-.443-1.04-.264-.244-.578-.338-1.094-.338H5.09v2.764h.215zM8.035 14.272h.8v-4.18h-.8v4.18zM10.791 11.696c-.48-.18-.62-.3-.62-.526 0-.263.25-.463.595-.463.24 0 .437.1.645.338l.419-.558a1.776 1.776 0 00-1.206-.463c-.725 0-1.279.513-1.279 1.197 0 .576.258.87 1.01 1.146.313.113.472.188.553.238.16.107.24.257.24.433 0 .338-.265.59-.622.59-.381 0-.689-.195-.873-.558l-.517.507c.369.551.812.796 1.42.796.832 0 1.415-.564 1.415-1.373 0-.664-.27-.964-1.18-1.304zM12.223 12.185c0 1.229.947 2.181 2.165 2.181.344 0 .64-.069 1.003-.243v-.96c-.32.326-.603.458-.966.458-.806 0-1.377-.596-1.377-1.442 0-.802.59-1.435 1.34-1.435.382 0 .67.139 1.003.47v-.96c-.351-.18-.64-.256-.984-.256a2.177 2.177 0 00-2.184 2.187zM21.734 12.9l-1.093-2.807h-.874l1.74 4.286h.43l1.772-4.286h-.867L21.734 12.9zM24.071 14.272h2.27v-.708h-1.47v-1.128h1.415v-.708H24.87v-.927h1.47v-.708h-2.27v4.179M28.056 10.093c.923 0 1.452.451 1.452 1.233 0 .64-.332 1.06-.934 1.185l1.29 1.76h-.983l-1.108-1.678h-.104v1.679h-.799v-4.18h1.186zm-.387 1.924h.234c.51 0 .782-.226.782-.647 0-.406-.271-.62-.77-.62h-.246v1.267z"/></g><mask id="mask1" maskUnits="userSpaceOnUse" x="15" y="9" width="6" height="6"><path fill-rule="evenodd" clip-rule="evenodd" d="M15.652 12.197c0-1.228.977-2.224 2.182-2.224s2.182.996 2.182 2.223v.002c0 1.227-.977 2.222-2.182 2.222s-2.182-.995-2.182-2.223z" fill="#fff"/></mask><g mask="url(#mask1)"><path fill="#F47216" d="M15.6 9.927h4.468v4.538H15.6z"/></g><path d="M30 10.263c0-.047.01-.091.033-.132A.248.248 0 0130.25 10a.244.244 0 01.217.131c.022.04.033.085.033.132a.273.273 0 01-.034.133.25.25 0 01-.216.13.25.25 0 01-.217-.131.272.272 0 01-.033-.132zm.457 0a.229.229 0 00-.027-.108.204.204 0 00-.284-.082.204.204 0 00-.076.08.228.228 0 00-.027.11c0 .04.009.077.027.11a.21.21 0 00.075.08.198.198 0 00.21 0 .206.206 0 00.075-.08.23.23 0 00.027-.11zm-.258.027v.119h-.053v-.3h.1c.035 0 .063.008.083.024.02.016.03.04.03.069 0 .026-.013.046-.04.061a.061.061 0 01.03.03.116.116 0 01.01.049v.04c.001.009.003.015.005.02v.007h-.054a.278.278 0 01-.005-.069c0-.018-.004-.03-.011-.038-.008-.008-.021-.012-.04-.012H30.2zm0-.047h.048a.074.074 0 00.043-.012.034.034 0 00.017-.03c0-.016-.005-.027-.013-.034-.008-.007-.023-.01-.045-.011h-.05v.087z" fill="#000"/></svg>

  <!-- Amex -->
  <svg viewBox="0 0 27 18" id="icon-amex-md" class="icon-sprite icon-cc-md icon-amex-md"><path fill-rule="evenodd" clip-rule="evenodd" d="M.435 3a3 3 0 013-3H23.26a3 3 0 013 3v12a3 3 0 01-3 3H3.435a3 3 0 01-3-3V3z" fill="#016FD0"/><path fill-rule="evenodd" clip-rule="evenodd" d="M5.451 13.614V9.599h4.274l.459.594.473-.594h15.514v3.738s-.406.273-.875.277h-8.59l-.517-.633v.633h-1.694v-1.08s-.232.15-.732.15h-.577v.93h-2.565l-.458-.608-.465.608H5.451zM.46 6.572l.964-2.235H3.09l.546 1.252V4.337H5.71l.326.905.316-.905h9.3v.455s.49-.455 1.293-.455l3.018.01.538 1.236V4.337h1.733l.478.71v-.71h1.75v4.015h-1.75l-.458-.712v.712h-2.547l-.256-.633h-.685l-.252.633h-1.728c-.691 0-1.133-.445-1.133-.445v.445h-2.605l-.517-.633v.633H2.844l-.256-.633h-.683l-.254.633H.46v-1.78z" fill="#fff"/><path fill-rule="evenodd" clip-rule="evenodd" d="M.465 7.839l1.3-3.007h.986L4.05 7.84h-.865l-.24-.602H1.553l-.24.602H.465zm2.206-1.255l-.425-1.052-.426 1.052h.851zM4.139 7.838V4.832l1.202.004.7 1.938.683-1.942h1.193v3.006H7.16V5.623l-.8 2.215h-.664l-.803-2.215v2.215H4.14zM8.434 7.838V4.832H10.9v.672H9.198v.514h1.662v.633H9.198v.534H10.9v.653H8.434zM11.337 7.839V4.832h1.681c.557 0 1.057.343 1.057.976 0 .54-.421.889-.83.923l.995 1.108h-.923L12.41 6.77h-.319v1.068h-.755zm1.62-2.334h-.864v.633h.875c.151 0 .347-.117.347-.317 0-.155-.151-.316-.358-.316zM15.155 7.838h-.771V4.832h.771v3.006zM16.985 7.838h-.167c-.806 0-1.295-.631-1.295-1.49 0-.882.484-1.516 1.501-1.516h.835v.712h-.865c-.413 0-.706.32-.706.81 0 .583.334.827.816.827h.199l-.319.657zM17.329 7.839l1.3-3.007h.985l1.299 3.007h-.865l-.239-.602h-1.394l-.24.602h-.846zm2.206-1.255l-.425-1.052-.427 1.052h.852zM21.001 7.838V4.832h.96l1.227 1.888V4.832h.756v3.006h-.93L21.757 5.9v1.938H21zM5.968 13.1v-3.007h2.466v.672H6.732v.515h1.662v.633H6.732v.534h1.702v.652H5.968zM18.05 13.1v-3.007h2.465v.672h-1.702v.515h1.655v.633h-1.655v.534h1.703v.652H18.05zM8.53 13.1l1.2-1.485-1.229-1.522h.952l.732.94.734-.94h.915l-1.213 1.503 1.203 1.503h-.952l-.71-.926-.694.926H8.53zM11.914 13.1v-3.007h1.67c.684 0 1.084.44 1.084 1.011 0 .691-.51 1.046-1.183 1.046h-.795v.95h-.776zm1.613-2.327h-.837v.693h.835c.22 0 .375-.146.375-.347 0-.213-.155-.346-.373-.346zM14.996 13.1v-3.007h1.682c.557 0 1.056.343 1.056.975 0 .541-.421.89-.829.924l.994 1.107h-.923l-.906-1.068h-.318V13.1h-.756zm1.62-2.335h-.864v.633h.875c.151 0 .346-.117.346-.316 0-.155-.15-.317-.358-.317zM20.866 13.1v-.653h1.512c.224 0 .32-.12.32-.253 0-.126-.096-.254-.32-.254h-.683c-.594 0-.925-.36-.925-.9 0-.482.303-.947 1.186-.947h1.471l-.318.676h-1.273c-.243 0-.318.127-.318.249 0 .124.093.262.279.262h.715c.662 0 .95.373.95.863 0 .525-.32.956-.986.956h-1.61zM23.639 13.1v-.653h1.512c.224 0 .32-.12.32-.253 0-.126-.096-.254-.32-.254h-.683c-.594 0-.925-.36-.925-.9 0-.482.303-.947 1.186-.947H26.2l-.318.676h-1.273c-.243 0-.318.127-.318.249 0 .124.093.262.279.262h.715c.663 0 .95.373.95.863 0 .525-.32.956-.986.956h-1.61z" fill="#016FD0"/></svg>
  <svg viewBox="0 0 35 24" id="icon-amex-lg" class="icon-sprite icon-cc-lg icon-amex-lg"><path fill-rule="evenodd" clip-rule="evenodd" d="M0 3a3 3 0 013-3h28.435a3 3 0 013 3v18a3 3 0 01-3 3H3a3 3 0 01-3-3V3z" fill="#016FD0"/><path fill-rule="evenodd" clip-rule="evenodd" d="M6.689 18.151v-5.353h5.699l.61.792.633-.792h20.684v4.984s-.54.364-1.166.37H21.694l-.69-.845v.844h-2.258v-1.44s-.309.2-.976.2h-.769v1.24h-3.42l-.61-.81-.62.81H6.689zM.034 8.763l1.285-2.98h2.223l.729 1.669v-1.67h2.762l.435 1.207.42-1.206H20.29v.606s.652-.606 1.723-.606l4.024.014.716 1.647V5.783h2.312l.637.946v-.946h2.333v5.353h-2.333l-.61-.95v.95h-3.397l-.341-.844h-.913l-.336.844H21.8c-.922 0-1.511-.594-1.511-.594v.594h-3.473l-.69-.844v.844H3.212l-.341-.844h-.91l-.34.844H.035V8.763z" fill="#fff"/><path fill-rule="evenodd" clip-rule="evenodd" d="M.041 10.451l1.733-4.008h1.314L4.82 10.45H3.667l-.319-.802H1.49l-.32.802H.041zm2.941-1.673l-.566-1.402-.569 1.402h1.135zM4.939 10.45V6.443l1.604.006.932 2.584.91-2.59h1.591v4.009H8.97V7.497L7.9 10.45h-.884l-1.07-2.954v2.954H4.938zM10.666 10.45V6.443h3.288v.897h-2.27v.685H13.9v.844h-2.216v.712h2.27v.87h-3.288zM14.537 10.451V6.443h2.242c.742 0 1.408.457 1.408 1.3 0 .721-.561 1.186-1.105 1.232l1.325 1.476h-1.23l-1.209-1.424h-.424v1.424h-1.007zm2.16-3.112h-1.153v.844h1.167c.202 0 .462-.155.462-.422 0-.207-.2-.422-.477-.422zM19.627 10.45H18.6V6.443h1.028v4.009zM22.066 10.45h-.222c-1.074 0-1.726-.841-1.726-1.987 0-1.174.645-2.021 2.001-2.021h1.114v.95h-1.154c-.551 0-.94.427-.94 1.08 0 .777.445 1.103 1.086 1.103h.265l-.424.876zM22.525 10.451l1.734-4.008h1.314l1.731 4.008h-1.153l-.318-.802h-1.86l-.32.802h-1.128zm2.942-1.673L24.9 7.376l-.569 1.402h1.136zM27.422 10.45V6.443h1.28l1.636 2.519V6.442h1.008v4.009h-1.24L28.43 7.866v2.585h-1.007zM7.378 17.465v-4.008h3.288v.897h-2.27v.685h2.217v.844H8.397v.712h2.269v.87H7.378zM23.487 17.465v-4.008h3.288v.897h-2.27v.685h2.206v.844h-2.206v.712h2.27v.87h-3.288zM10.793 17.465l1.601-1.98-1.639-2.028h1.27L13 14.71l.979-1.254h1.22l-1.618 2.004 1.604 2.004h-1.27l-.947-1.234-.925 1.234h-1.25zM15.306 17.466v-4.008h2.225c.913 0 1.447.585 1.447 1.348 0 .92-.68 1.394-1.578 1.394h-1.06v1.266h-1.034zm2.15-3.101H16.34v.923h1.113c.294 0 .5-.194.5-.462 0-.285-.206-.461-.496-.461zM19.415 17.465v-4.008h2.242c.743 0 1.409.457 1.409 1.3 0 .722-.562 1.186-1.106 1.232l1.326 1.476h-1.231l-1.208-1.424h-.425v1.424h-1.007zm2.16-3.111h-1.152v.844h1.166c.202 0 .463-.156.463-.423 0-.207-.201-.421-.478-.421zM27.242 17.465v-.87h2.016c.298 0 .428-.16.428-.336 0-.169-.13-.339-.428-.339h-.911c-.792 0-1.233-.48-1.233-1.2 0-.643.404-1.263 1.58-1.263h1.963l-.425.902h-1.697c-.324 0-.424.17-.424.33 0 .167.124.35.372.35h.954c.883 0 1.266.498 1.266 1.15 0 .702-.427 1.276-1.314 1.276h-2.147zM30.94 17.465v-.87h2.016c.298 0 .427-.16.427-.336 0-.169-.129-.339-.427-.339h-.911c-.792 0-1.234-.48-1.234-1.2 0-.643.404-1.263 1.581-1.263h1.962l-.424.902h-1.697c-.324 0-.424.17-.424.33 0 .167.123.35.371.35h.955c.883 0 1.266.498 1.266 1.15 0 .702-.427 1.276-1.314 1.276h-2.148z" fill="#016FD0"/></svg>

  <!-- Paypal -->
  <svg viewBox="0 0 27 18" id="icon-paypal-md" class="icon-sprite icon-cc-md icon-paypal-md"><path fill-rule="evenodd" clip-rule="evenodd" d="M.435 3a3 3 0 013-3H23.26a3 3 0 013 3v12a3 3 0 01-3 3H3.435a3 3 0 01-3-3V3z" fill="#1B3D92"/><path opacity=".68" fill-rule="evenodd" clip-rule="evenodd" d="M16.77 6.77c.117-.755-.001-1.269-.405-1.734-.445-.512-1.249-.732-2.277-.732h-2.985c-.21 0-.39.155-.422.365L9.438 12.63c-.025.157.096.3.253.3h1.843l-.128.814a.226.226 0 00.222.262h1.553c.184 0 .34-.135.37-.319l.014-.08.293-1.874.019-.104a.375.375 0 01.369-.318h.232c1.505 0 2.684-.618 3.028-2.404.144-.746.07-1.369-.311-1.807a1.483 1.483 0 00-.425-.33z" fill="#fff"/><path opacity=".7" fill-rule="evenodd" clip-rule="evenodd" d="M16.77 6.77c.117-.755-.001-1.269-.405-1.734-.445-.512-1.249-.732-2.277-.732h-2.985c-.21 0-.39.155-.422.365L9.438 12.63c-.025.157.096.3.253.3h1.843l.463-2.966-.015.093a.427.427 0 01.42-.364h.877c1.72 0 3.067-.706 3.46-2.747a4.67 4.67 0 00.03-.177z" fill="#fff"/><path fill-rule="evenodd" clip-rule="evenodd" d="M12.494 6.78a.377.377 0 01.369-.32h2.34c.277 0 .536.02.772.057a3.375 3.375 0 01.471.114c.116.04.224.085.324.138.117-.754-.001-1.268-.405-1.733-.445-.512-1.249-.732-2.277-.732h-2.985c-.21 0-.39.155-.422.365L9.438 12.63c-.025.157.096.3.253.3h1.843l.463-2.966.497-3.185z" fill="#fff"/></svg>
  <svg viewBox="0 0 35 24" id="icon-paypal-lg" class="icon-sprite icon-cc-lg icon-paypal-lg"><path fill-rule="evenodd" clip-rule="evenodd" d="M0 3a3 3 0 013-3h28.435a3 3 0 013 3v18a3 3 0 01-3 3H3a3 3 0 01-3-3V3z" fill="#1B3D92"/><path opacity=".68" fill-rule="evenodd" clip-rule="evenodd" d="M21.78 9.026c.156-1.007-.001-1.691-.54-2.312-.593-.682-1.665-.975-3.036-.975h-3.98a.571.571 0 00-.562.486L12.004 16.84a.344.344 0 00.338.4h2.457l-.17 1.085a.3.3 0 00.295.35h2.072a.5.5 0 00.492-.425l.02-.107.39-2.499.025-.138a.5.5 0 01.492-.425h.31c2.006 0 3.578-.823 4.037-3.205.191-.995.092-1.825-.415-2.41a1.976 1.976 0 00-.567-.44z" fill="#fff"/><path opacity=".7" fill-rule="evenodd" clip-rule="evenodd" d="M21.78 9.026c.156-1.007-.001-1.691-.54-2.312-.593-.682-1.665-.975-3.036-.975h-3.98a.571.571 0 00-.562.486L12.004 16.84a.344.344 0 00.338.4h2.457l.617-3.954-.02.124a.57.57 0 01.561-.486h1.168c2.294 0 4.09-.941 4.614-3.663.016-.08.03-.159.041-.235z" fill="#fff"/><path fill-rule="evenodd" clip-rule="evenodd" d="M16.08 9.039a.503.503 0 01.491-.425h3.12c.37 0 .714.025 1.03.076a4.483 4.483 0 01.51.114l.118.038c.155.052.299.113.431.184.157-1.007 0-1.691-.54-2.311-.593-.683-1.665-.976-3.036-.976h-3.98a.571.571 0 00-.562.486L12.004 16.84a.344.344 0 00.338.4h2.457l.617-3.954.663-4.247z" fill="#fff"/></svg>

  <!-- Apple Pay -->
  <svg viewBox="0 0 27 18" id="icon-applepay-md" class="icon-sprite icon-cc-md icon-applepay-md"><path fill-rule="evenodd" clip-rule="evenodd" d="M.435 3a3 3 0 013-3H23.26a3 3 0 013 3v12a3 3 0 01-3 3H3.435a3 3 0 01-3-3V3z" fill="#E6E7E8"/><path fill-rule="evenodd" clip-rule="evenodd" d="M8.88 7.015c-.166.197-.43.353-.694.33-.033-.266.096-.55.247-.725a1.03 1.03 0 01.688-.359c.028.278-.08.55-.242.754zm.239.384c-.233-.014-.445.07-.617.139-.11.043-.204.08-.275.08a.87.87 0 01-.286-.082c-.143-.058-.307-.124-.479-.12-.393.005-.759.23-.96.59-.413.717-.107 1.78.292 2.364.195.289.429.606.737.595.136-.005.233-.047.334-.09.116-.05.237-.102.426-.102.181 0 .297.05.408.099.105.046.206.09.356.088.32-.006.52-.29.716-.58.21-.31.303-.613.317-.659l.002-.005-.008-.004c-.07-.032-.609-.282-.614-.95-.005-.561.427-.846.495-.89l.009-.006c-.276-.412-.705-.456-.853-.467zm2.209 3.53V6.592h1.61c.83 0 1.41.579 1.41 1.424 0 .846-.59 1.43-1.433 1.43h-.921v1.483h-.666zm.666-3.77h.768c.577 0 .908.312.908.86s-.33.863-.911.863h-.765V7.16zm4.553 3.25c-.176.339-.564.553-.982.553-.62 0-1.051-.373-1.051-.934 0-.557.418-.877 1.191-.924l.831-.05v-.24c0-.353-.228-.545-.635-.545-.336 0-.58.176-.63.443h-.6c.019-.562.542-.971 1.249-.971.762 0 1.257.403 1.257 1.03v2.158h-.616v-.52h-.014zm-.803.039c-.355 0-.58-.173-.58-.437 0-.273.217-.431.632-.456l.74-.048v.245c0 .406-.34.696-.792.696zm3.477.65c-.266.76-.572 1.01-1.221 1.01-.05 0-.215-.005-.253-.016v-.52c.041.005.143.01.195.01.295 0 .46-.125.561-.45l.061-.192-1.128-3.157h.696l.784 2.562h.014l.784-2.562h.677l-1.17 3.315z" fill="#000"/></svg>
  <svg viewBox="0 0 35 24" id="icon-applepay-lg" class="icon-sprite icon-cc-lg icon-applepay-lg"><path fill-rule="evenodd" clip-rule="evenodd" d="M0 3a3 3 0 013-3h28.435a3 3 0 013 3v18a3 3 0 01-3 3H3a3 3 0 01-3-3V3z" fill="#E6E7E8"/><path fill-rule="evenodd" clip-rule="evenodd" d="M11.26 9.353c-.22.263-.573.471-.925.442-.044-.357.129-.735.33-.969.22-.27.606-.463.918-.478.036.37-.107.734-.323 1.005zm.319.512c-.31-.018-.594.094-.822.185-.147.058-.272.108-.367.108-.106 0-.236-.052-.382-.11-.19-.077-.409-.165-.638-.16a1.505 1.505 0 00-1.28.786c-.55.957-.143 2.373.389 3.152.26.386.572.809.983.794.18-.007.31-.063.445-.12.155-.067.316-.136.568-.136.242 0 .396.067.544.132.14.061.275.12.476.117.425-.008.693-.386.953-.772.281-.414.405-.818.424-.88l.002-.006-.01-.005c-.094-.044-.812-.376-.82-1.268-.006-.748.57-1.127.661-1.187a.346.346 0 00.011-.007c-.367-.549-.94-.608-1.137-.623zm2.946 4.707V8.789h2.146c1.108 0 1.882.772 1.882 1.9 0 1.127-.79 1.906-1.912 1.906h-1.229v1.977h-.887zm.887-5.026h1.024c.77 0 1.21.416 1.21 1.146s-.44 1.15-1.214 1.15h-1.02V9.546zm6.072 4.332c-.235.453-.752.738-1.31.738-.825 0-1.401-.497-1.401-1.246 0-.742.557-1.168 1.588-1.231l1.108-.067v-.319c0-.471-.305-.727-.847-.727-.448 0-.774.234-.84.59h-.8c.026-.75.723-1.295 1.665-1.295 1.016 0 1.677.538 1.677 1.373v2.878h-.822v-.694h-.018zm-1.071.052c-.474 0-.774-.23-.774-.582 0-.364.29-.575.843-.608l.987-.063v.326c0 .541-.455.927-1.056.927zm4.636.868c-.355 1.013-.763 1.346-1.628 1.346-.066 0-.287-.007-.338-.022v-.693c.055.007.19.014.26.014.393 0 .613-.166.749-.6l.08-.256-1.503-4.21h.928l1.045 3.416h.019l1.045-3.416h.903l-1.56 4.421z" fill="#000"/></svg>

  <!-- Amazon Pay -->
  <svg viewBox="0 0 27 18" id="icon-amazonpay-md" class="icon-sprite icon-cc-lg icon-amazonpay-md"><path fill-rule="evenodd" clip-rule="evenodd" d="M.435 3a3 3 0 013-3H23.26a3 3 0 013 3v12a3 3 0 01-3 3H3.435a3 3 0 01-3-3V3z" fill="#FF9201"/><path fill-rule="evenodd" clip-rule="evenodd" d="M16.182 10.066l.075.102c.08.113.098.248-.004.331-.255.213-.708.605-.957.826l-.003-.003a.26.26 0 01-.295.03c-.352-.292-.458-.45-.621-.692l-.094-.138c-.685.696-1.17.905-2.058.905-1.051 0-1.868-.647-1.868-1.94 0-1.01.549-1.696 1.33-2.034.573-.25 1.337-.327 1.997-.394l.35-.036V6.86l.001-.094c.003-.273.005-.579-.152-.808-.152-.23-.443-.323-.7-.323-.476 0-.9.242-1.003.747-.022.112-.104.223-.217.228l-1.21-.13c-.103-.023-.216-.105-.187-.26.278-1.464 1.604-1.906 2.792-1.906.607 0 1.401.162 1.88.62.557.52.553 1.197.548 1.94v2.14c0 .52.193.78.396 1.052zm-3.245.108c.35 0 .666-.215.864-.566.235-.413.234-.8.234-1.257v-.332c-.903 0-1.857.192-1.857 1.253 0 .538.28.902.759.902zM17.75 12.284c-1.196.888-2.929 1.36-4.42 1.36a7.965 7.965 0 01-5.4-2.075c-.112-.101-.012-.24.122-.162 1.538.902 3.44 1.445 5.403 1.445 1.325 0 2.78-.277 4.12-.85.203-.086.372.135.174.282z" fill="#fff"/><path fill-rule="evenodd" clip-rule="evenodd" d="M18.247 11.711c-.153-.197-1.011-.093-1.396-.046-.117.013-.135-.089-.03-.164.684-.484 1.805-.344 1.936-.182.131.164-.035 1.296-.676 1.836-.098.084-.192.04-.149-.07.145-.364.468-1.176.315-1.374z" fill="#fff"/></svg>
  <svg viewBox="0 0 35 24" id="icon-amazonpay-lg" class="icon-sprite icon-cc-lg icon-amazonpay-lg"><path fill-rule="evenodd" clip-rule="evenodd" d="M0 3a3 3 0 013-3h28.435a3 3 0 013 3v18a3 3 0 01-3 3H3a3 3 0 01-3-3V3z" fill="#FF9201"/><path fill-rule="evenodd" clip-rule="evenodd" d="M20.998 13.422l.1.135c.106.15.13.33-.006.442-.34.284-.944.807-1.276 1.101l-.004-.004c-.11.1-.27.106-.393.04-.47-.389-.611-.6-.83-.922a18.55 18.55 0 00-.124-.184c-.913.928-1.56 1.206-2.744 1.206-1.402 0-2.49-.862-2.49-2.587 0-1.346.731-2.262 1.773-2.712.764-.333 1.783-.436 2.662-.525l.468-.048v-.217l.001-.125c.003-.365.006-.773-.203-1.078-.202-.306-.59-.43-.933-.43-.635 0-1.2.322-1.338.995-.03.15-.138.297-.29.305l-1.613-.174c-.136-.03-.287-.14-.248-.347.37-1.952 2.137-2.54 3.721-2.54.81 0 1.87.215 2.507.826.743.692.738 1.596.732 2.587l-.001.268v2.585c0 .694.258 1.04.529 1.403zm-4.327.144c.467 0 .888-.286 1.152-.755.313-.55.312-1.067.312-1.676v-.442c-1.204 0-2.476.256-2.476 1.67 0 .718.374 1.203 1.012 1.203zM23.087 16.378c-1.593 1.184-3.904 1.815-5.893 1.815a10.62 10.62 0 01-7.199-2.767c-.149-.136-.016-.322.163-.216 2.05 1.202 4.585 1.926 7.204 1.926 1.766 0 3.707-.37 5.494-1.133.269-.115.495.179.231.375z" fill="#fff"/><path fill-rule="evenodd" clip-rule="evenodd" d="M23.75 15.615c-.204-.263-1.347-.125-1.86-.062-.156.018-.18-.118-.04-.219.912-.645 2.406-.458 2.58-.242.175.218-.045 1.728-.9 2.448-.132.112-.257.053-.199-.094.193-.484.623-1.568.419-1.831z" fill="#fff"/></svg>

  <!-- Google Pay -->
  <svg viewBox="0 0 27 18" id="icon-googlepay-md" class="icon-sprite icon-cc-md icon-googlepay-md"><path d="M.935 3a2.5 2.5 0 012.5-2.5H23.26a2.5 2.5 0 012.5 2.5v12a2.5 2.5 0 01-2.5 2.5H3.435a2.5 2.5 0 01-2.5-2.5V3z" fill="#fff" stroke="#E6E7E8"/><path fill-rule="evenodd" clip-rule="evenodd" d="M12.967 10.53V8.94h.86c.354 0 .652-.111.893-.334.244-.211.38-.516.373-.833a1.076 1.076 0 00-.373-.828 1.27 1.27 0 00-.894-.34h-1.38v3.924h.521zm0-2.072v-1.37h.872a.69.69 0 01.515.208c.134.126.21.3.21.48s-.076.353-.21.48a.7.7 0 01-.515.202h-.872zM17.202 8.056c-.223-.2-.526-.3-.91-.3-.495 0-.868.176-1.12.527l.458.28c.17-.238.4-.357.69-.357a.75.75 0 01.502.184c.137.11.216.274.215.446v.115c-.2-.11-.454-.164-.763-.164-.362 0-.651.082-.868.246a.788.788 0 00-.325.663.829.829 0 00.308.658c.206.175.461.263.767.263.357 0 .643-.154.859-.46h.023v.372h.497V8.874c0-.346-.11-.62-.333-.818zm-1.411 1.98a.399.399 0 01-.173-.329c0-.146.071-.268.214-.368a.9.9 0 01.528-.148c.29 0 .517.062.679.188a.726.726 0 01-.259.553.843.843 0 01-.585.235.648.648 0 01-.404-.131zM20.392 7.845l-1.737 3.867h-.537l.644-1.353-1.142-2.514h.566l.825 1.928h.011l.803-1.928h.567z" fill="#5F6368"/><path fill-rule="evenodd" clip-rule="evenodd" d="M10.865 8.598a2.61 2.61 0 00-.04-.458H8.63v.868h1.256c-.052.28-.22.527-.464.685v.563h.75c.439-.392.692-.972.692-1.658z" fill="#4285F4"/><path fill-rule="evenodd" clip-rule="evenodd" d="M8.63 10.8c.628 0 1.157-.2 1.542-.544l-.75-.563a1.428 1.428 0 01-.791.215 1.387 1.387 0 01-1.306-.93h-.773v.58A2.335 2.335 0 008.631 10.8z" fill="#34A853"/><path fill-rule="evenodd" clip-rule="evenodd" d="M7.325 8.978a1.31 1.31 0 010-.863v-.58h-.773a2.191 2.191 0 000 2.023l.773-.58z" fill="#FBBC04"/><path fill-rule="evenodd" clip-rule="evenodd" d="M8.63 7.185c.332-.006.653.116.893.338l.664-.643a2.275 2.275 0 00-1.556-.587c-.88 0-1.684.48-2.079 1.241l.773.581c.184-.534.699-.93 1.306-.93z" fill="#EA4335"/></svg>
  <svg viewBox="0 0 35 24" id="icon-googlepay-lg" class="icon-sprite icon-cc-lg icon-googlepay-lg"><path d="M.5 3A2.5 2.5 0 013 .5h28.435a2.5 2.5 0 012.5 2.5v18a2.5 2.5 0 01-2.5 2.5H3A2.5 2.5 0 01.5 21V3z" fill="#fff" stroke="#E6E7E8"/><path fill-rule="evenodd" clip-rule="evenodd" d="M16.71 14.038V11.92h1.146c.472 0 .87-.149 1.19-.446.326-.282.508-.687.498-1.11a1.436 1.436 0 00-.497-1.104 1.692 1.692 0 00-1.191-.453h-1.84v5.231h.694zm0-2.76V9.45h1.163a.92.92 0 01.686.277.878.878 0 01.279.64c0 .24-.1.47-.279.639a.932.932 0 01-.686.27H16.71zM22.356 10.74c-.296-.265-.701-.398-1.214-.398-.658 0-1.155.234-1.491.701l.61.373c.226-.316.533-.475.92-.475a1 1 0 01.67.245.756.756 0 01.286.595v.154c-.267-.146-.606-.22-1.018-.22-.482.001-.868.11-1.157.33a1.05 1.05 0 00-.433.883c-.006.337.145.66.411.877.274.233.614.35 1.021.35.477 0 .86-.204 1.146-.614h.03v.497h.664v-2.206c0-.462-.148-.826-.445-1.092zm-1.88 2.64a.532.532 0 01-.23-.438c0-.194.094-.357.284-.49.188-.132.422-.198.704-.198.387 0 .689.084.905.25 0 .283-.115.529-.345.738-.207.2-.487.314-.78.314a.864.864 0 01-.539-.175zM26.609 10.46l-2.316 5.156h-.716l.86-1.804-1.523-3.353h.753l1.101 2.571h.015l1.07-2.57h.756z" fill="#5F6368"/><path fill-rule="evenodd" clip-rule="evenodd" d="M13.907 11.463c0-.204-.018-.409-.054-.61h-2.925v1.157h1.676a1.39 1.39 0 01-.62.913v.751h1c.585-.523.923-1.296.923-2.21z" fill="#4285F4"/><path fill-rule="evenodd" clip-rule="evenodd" d="M10.928 14.4c.837 0 1.542-.266 2.056-.725l-1-.752c-.278.183-.637.288-1.056.288a1.85 1.85 0 01-1.741-1.24h-1.03v.773c.526 1.015 1.599 1.656 2.771 1.656z" fill="#34A853"/><path fill-rule="evenodd" clip-rule="evenodd" d="M9.187 11.97a1.747 1.747 0 010-1.15v-.774h-1.03c-.44.849-.44 1.85 0 2.698l1.03-.774z" fill="#FBBC04"/><path fill-rule="evenodd" clip-rule="evenodd" d="M10.928 9.58c.442-.008.87.154 1.19.45l.885-.858a3.034 3.034 0 00-2.075-.782c-1.172 0-2.245.64-2.771 1.655l1.03.775a1.85 1.85 0 011.741-1.24z" fill="#EA4335"/></svg>

</svg>