<svg viewBox="0 0 1230 498" fill="none" xmlns="http://www.w3.org/2000/svg"><path d="M1002.26 840.736c0-213.88-173.379-387.264-387.259-387.264-213.88 0-387.264 173.384-387.264 387.264 0 213.884 173.384 387.264 387.264 387.264 213.88 0 387.259-173.38 387.259-387.264Z" stroke="#000" stroke-opacity=".3" stroke-width="3" stroke-miterlimit="10"/><path d="M1051.34 791.665c0-240.982-195.359-436.336-436.341-436.336-240.981 0-436.335 195.354-436.335 436.336 0 240.985 195.354 436.335 436.335 436.335 240.982 0 436.341-195.35 436.341-436.335Z" stroke="#000" stroke-opacity=".25" stroke-width="3" stroke-miterlimit="10"/><path d="M1103.69 739.312c0-269.896-218.796-488.689-488.691-488.689S126.311 469.416 126.311 739.312c0 269.898 218.793 488.688 488.688 488.688s488.691-218.79 488.691-488.688Z" stroke="#000" stroke-opacity=".2" stroke-width="3" stroke-miterlimit="10"/><path d="M1162.32 680.676c0-302.279-245.041-547.324-547.319-547.324-302.279 0-547.324 245.046-547.324 547.324C67.677 982.955 312.722 1228 615 1228c302.278 0 547.319-245.045 547.319-547.324Z" stroke="#000" stroke-opacity=".15" stroke-width="3" stroke-miterlimit="10"/><path d="M1228 615C1228 276.449 953.551 2 615 2S2 276.449 2 615s274.45 613 613 613c338.551 0 613-274.45 613-613Z" stroke="#000" stroke-opacity=".1" stroke-width="3" stroke-miterlimit="10"/></svg>