<svg class="conical-no-repeat" viewBox="0 0 750 750" fill="none" xmlns="http://www.w3.org/2000/svg"><path d="M525.454 239.5C531.715 239.5 679 301.35 679 377.65c0 76.3-147.295 138.15-153.546 138.15" stroke="#000" stroke-opacity=".05" stroke-width="3" stroke-miterlimit="10"/><path d="M488.506 219.71c10.892 0 149.135 70.86 149.135 158.28S499.398 536.27 488.506 536.27" stroke="#000" stroke-opacity=".1" stroke-width="3" stroke-miterlimit="10"/><path d="M451.548 199.92c15.524 0 144.714 79.87 144.714 178.4s-129.201 178.4-144.714 178.4" stroke="#000" stroke-opacity=".15" stroke-width="3" stroke-miterlimit="10"/><path d="M414.598 180.12c20.154 0 140.303 88.88 140.303 198.53S434.752 577.18 414.598 577.18" stroke="#000" stroke-opacity=".2" stroke-width="3" stroke-miterlimit="10"/><path d="M377.64 160.33c24.786 0 135.882 97.89 135.882 218.65S402.416 597.63 377.64 597.63" stroke="#000" stroke-opacity=".25" stroke-width="3" stroke-miterlimit="10"/><path d="M340.68 140.54c29.417 0 131.471 106.9 131.471 238.78S370.097 618.1 340.68 618.1" stroke="#000" stroke-opacity=".3" stroke-width="3" stroke-miterlimit="10"/><path d="M303.732 120.75c34.048 0 127.05 115.92 127.05 258.9 0 142.98-93.002 258.9-127.05 258.9" stroke="#000" stroke-opacity=".35" stroke-width="3" stroke-miterlimit="10"/><path d="M266.774 100.96c38.679 0 122.639 124.93 122.639 279.03 0 154.1-83.96 279.03-122.639 279.03" stroke="#000" stroke-opacity=".4" stroke-width="3" stroke-miterlimit="10"/><path d="M229.814 81.17c43.31 0 118.218 133.94 118.218 299.15 0 165.21-74.908 299.15-118.218 299.15" stroke="#000" stroke-opacity=".45" stroke-width="3" stroke-miterlimit="10"/><path d="M192.866 61.37c47.941 0 113.807 142.95 113.807 319.28 0 176.33-65.866 319.28-113.807 319.28" stroke="#000" stroke-opacity=".5" stroke-width="3" stroke-miterlimit="10"/><path d="M155.908 41.58c52.572 0 109.386 151.96 109.386 339.4 0 187.44-56.814 339.4-109.386 339.4" stroke="#000" stroke-opacity=".55" stroke-width="3" stroke-miterlimit="10"/><path d="M118.958 21.79c57.203 0 104.975 160.97 104.975 359.53 0 198.56-47.772 359.53-104.975 359.53" stroke="#000" stroke-opacity=".6" stroke-width="3" stroke-miterlimit="10"/><path d="M82 2c61.835 0 100.554 169.98 100.554 379.66 0 209.68-38.719 379.65-100.554 379.65" stroke="#000" stroke-opacity=".65" stroke-width="3" stroke-miterlimit="10"/></svg>