<svg class="rounded-no-repeat" viewBox="0 0 750 750" fill="none" xmlns="http://www.w3.org/2000/svg"><path d="M352.08 44c182.96 0 331.29 148.32 331.29 331.29 0 182.96-148.32 331.29-331.29 331.29" stroke="#000" stroke-opacity=".1" stroke-width="3" stroke-miterlimit="10"/><path d="M292.359 44c149.98 0 271.57 148.32 271.57 331.29 0 182.96-121.59 331.29-271.57 331.29" stroke="#000" stroke-opacity=".15" stroke-width="3" stroke-miterlimit="10"/><path d="M232.641 44c117 0 211.85 148.32 211.85 331.29 0 182.96-94.85 331.29-211.85 331.29" stroke="#000" stroke-opacity=".2" stroke-width="3" stroke-miterlimit="10"/><path d="M172.93 44c84.02 0 152.14 148.32 152.14 331.29 0 182.96-68.11 331.29-152.14 331.29" stroke="#000" stroke-opacity=".25" stroke-width="3" stroke-miterlimit="10"/><path d="M113.211 44c51.04 0 92.42 148.32 92.42 331.29 0 182.96-41.38 331.29-92.42 331.29" stroke="#000" stroke-opacity=".3" stroke-width="3" stroke-miterlimit="10"/><path d="M67 44c25.52 0 46.21 148.32 46.21 331.29 0 182.96-20.69 331.29-46.21 331.29" stroke="#000" stroke-opacity=".35" stroke-width="3" stroke-miterlimit="10"/></svg>