<svg class="emanate-no-repeat" viewBox="0 0 754 750" fill="none" xmlns="http://www.w3.org/2000/svg"><path d="M238.907 611.907c130.84 0 236.907-106.067 236.907-236.907 0-130.84-106.067-236.907-236.907-236.907C108.067 138.093 2 244.16 2 375c0 130.84 106.067 236.907 236.907 236.907Z" stroke="#000" stroke-opacity=".3" stroke-width="3" stroke-miterlimit="10"/><path d="M268.926 641.926c147.42 0 266.926-119.507 266.926-266.926 0-147.419-119.506-266.926-266.926-266.926C121.507 108.074 2 227.581 2 375c0 147.419 119.507 266.926 266.926 266.926Z" stroke="#000" stroke-opacity=".25" stroke-width="3" stroke-miterlimit="10"/><path d="M300.953 673.953c165.107 0 298.953-133.846 298.953-298.953 0-165.107-133.846-298.953-298.953-298.953C135.846 76.047 2 209.893 2 375c0 165.107 133.846 298.953 298.953 298.953Z" stroke="#000" stroke-opacity=".2" stroke-width="3" stroke-miterlimit="10"/><path d="M336.823 709.823c184.917 0 334.823-149.905 334.823-334.823 0-184.918-149.906-334.823-334.823-334.823C151.905 40.177 2 190.082 2 375c0 184.918 149.905 334.823 334.823 334.823Z" stroke="#000" stroke-opacity=".15" stroke-width="3" stroke-miterlimit="10"/><path d="M377 750c207.107 0 375-167.893 375-375S584.107 0 377 0 2 167.893 2 375s167.893 375 375 375Z" stroke="#000" stroke-opacity=".1" stroke-width="3" stroke-miterlimit="10"/><path d="M141.203 514.203c76.879 0 139.202-62.323 139.202-139.203s-62.323-139.203-139.202-139.203C64.323 235.797 2 298.12 2 375s62.323 139.203 139.203 139.203Z" stroke="#000" stroke-opacity=".45" stroke-width="3" stroke-miterlimit="10"/><path d="M108.561 481.561c58.852 0 106.56-47.709 106.56-106.561 0-58.852-47.708-106.561-106.56-106.561C49.709 268.439 2 316.148 2 375c0 58.852 47.709 106.561 106.561 106.561Z" stroke="#000" stroke-opacity=".5" stroke-width="3" stroke-miterlimit="10"/><path d="M175.277 548.277c95.698 0 173.277-77.579 173.277-173.277s-77.579-173.277-173.277-173.277S2 279.302 2 375s77.579 173.277 173.277 173.277Z" stroke="#000" stroke-opacity=".4" stroke-width="3" stroke-miterlimit="10"/><path d="M208.06 581.06c113.804 0 206.061-92.256 206.061-206.06S321.864 168.94 208.06 168.94 2 261.196 2 375s92.256 206.06 206.06 206.06Z" stroke="#000" stroke-opacity=".35" stroke-width="3" stroke-miterlimit="10"/></svg>