<svg id="rounded" xmlns="http://www.w3.org/2000/svg" version="1.1" viewBox="0 0 342 989"><defs><clipPath id="clippath"><path style="fill:none" d="M0 0h342v989H0z"/></clipPath><style>.st1,.st2,.st3,.st4{fill:none}.st1{stroke-opacity:.2}.st1,.st2,.st3,.st4{stroke:#000;stroke-miterlimit:10;stroke-width:3px}.st2{stroke-opacity:.1}.st3,.st4{stroke-opacity:.2}</style></defs><g style="clip-path:url(#clippath)"><path class="st2" d="M38.1 694.8c162.6 0 294.5 131.8 294.5 294.5s-131.8 294.5-294.5 294.5"/><path class="st4" d="M-15 694.8c133.3 0 241.4 131.8 241.4 294.5S118.3 1283.8-15 1283.8"/><path class="st3" d="M-68 694.8c104 0 188.3 131.8 188.3 294.5S36 1283.8-68 1283.8"/><path class="st1" d="M-121.1 694.8c74.7 0 135.2 131.8 135.2 294.5s-60.5 294.5-135.2 294.5"/><path class="st2" d="M38.1-294.2c162.7 0 294.5 131.9 294.5 294.5S200.8 294.8 38.1 294.8"/><path class="st4" d="M-15-294.2c133.4 0 241.4 131.9 241.4 294.5S118.4 294.8-15 294.8"/><path class="st3" d="M-68-294.2C36-294.2 120.3-162.3 120.3.3S36 294.8-68 294.8"/><path class="st1" d="M-121.1-294.2C-46.4-294.2 14.1-162.3 14.1.3s-60.5 294.5-135.2 294.5"/></g></svg>