<svg id="emanate" xmlns="http://www.w3.org/2000/svg" version="1.1" viewBox="0 0 443 1150"><defs><clipPath id="clippath"><path style="fill:none" d="M.5.5h443v1150H.5z"/></clipPath><style>.st1,.st2,.st3,.st4,.st5,.st6,.st7{fill:none}.st1{stroke-opacity:.3}.st1,.st2,.st3,.st4,.st5,.st6,.st7{stroke:#000;stroke-miterlimit:10;stroke-width:3px}.st2{stroke-opacity:.2}.st3{stroke-opacity:.1}.st4{stroke-opacity:.4}.st5{stroke-opacity:.2}.st6{stroke-opacity:.3}.st7{stroke-opacity:.2}</style></defs><g style="clip-path:url(#clippath)"><path class="st6" d="M-72.1 1386.9c130.8 0 236.9-106.1 236.9-236.9S58.7 913.1-72.1 913.1-309 1019.2-309 1150s106.1 236.9 236.9 236.9Z"/><path class="st2" d="M-42.1 1416.9c147.4 0 266.9-119.5 266.9-266.9S105.3 883.1-42.1 883.1-309 1002.6-309 1150s119.5 266.9 266.9 266.9Z"/><path class="st5" d="M-10 1449c165.1 0 299-133.8 299-299S155.1 851-10 851s-299 133.8-299 299 133.8 299 299 299Z"/><path class="st7" d="M25.8 1484.8c184.9 0 334.8-149.9 334.8-334.8S210.7 815.2 25.8 815.2-309 965.1-309 1150s149.9 334.8 334.8 334.8Z"/><path class="st3" d="M66 1525c207.1 0 375-167.9 375-375S273.1 775 66 775s-375 167.9-375 375 167.9 375 375 375Z"/><path class="st4" d="M-135.7 1323.3c95.7 0 173.3-77.6 173.3-173.3S-40 976.7-135.7 976.7-309 1054.3-309 1150s77.6 173.3 173.3 173.3Z"/><path class="st1" d="M-102.9 1356.1c113.8 0 206.1-92.3 206.1-206.1S10.9 943.9-102.9 943.9-309 1036.2-309 1150s92.3 206.1 206.1 206.1Z"/><path class="st6" d="M-72.1 236.9C58.7 236.9 164.8 130.8 164.8 0S58.7-236.9-72.1-236.9-309-130.8-309 0s106.1 236.9 236.9 236.9Z"/><path class="st2" d="M-42.1 266.9c147.4 0 267-119.5 267-266.9s-119.6-266.9-267-266.9S-309-147.4-309 0s119.5 266.9 266.9 266.9Z"/><path class="st5" d="M-10 299c165.1 0 298.9-133.9 298.9-299S155.1-299-10-299-309-165.1-309 0s133.8 299 299 299Z"/><path class="st7" d="M25.8 334.8c184.9 0 334.8-149.9 334.8-334.8S210.7-334.8 25.8-334.8-309-184.9-309 0s149.9 334.8 334.8 334.8Z"/><path class="st3" d="M66 375c207.1 0 375-167.9 375-375S273.1-375 66-375-309-207.1-309 0s167.9 375 375 375Z"/><path class="st4" d="M-135.7 173.3C-40 173.3 37.6 95.7 37.6 0S-40-173.3-135.7-173.3-309-95.7-309 0s77.6 173.3 173.3 173.3Z"/><path class="st1" d="M-102.9 206.1c113.8 0 206-92.3 206-206.1s-92.2-206.1-206-206.1S-309-113.8-309 0s92.3 206.1 206.1 206.1Z"/></g></svg>