<svg width="21" height="17" viewBox="0 0 21 17" fill="none" xmlns="http://www.w3.org/2000/svg">
<path d="M16.8984 5.45312C17.1719 4.51562 16.3516 3.61719 15.4141 3.8125C14.5547 4.00781 14.2812 2.71875 15.1406 2.5625C17.0938 2.13281 18.7344 4.00781 18.1484 5.84375C17.875 6.70312 16.625 6.27344 16.8984 5.45312ZM9.35938 15.9609C5.21875 15.9609 1 13.9688 1 10.6484C1 8.92969 2.09375 6.89844 3.96875 5.02344C7.875 1.11719 11.8984 1.07812 10.7266 4.78906C10.5703 5.33594 11.2344 5.02344 11.2344 5.02344C14.3203 3.73438 16.7031 4.39844 15.6875 7.05469C15.5312 7.40625 15.7266 7.48438 16 7.5625C21.3125 9.20312 17.3672 15.9609 9.35938 15.9609ZM14.9844 10.2578C14.7891 8.07031 11.9375 6.58594 8.61719 6.89844C5.29688 7.25 2.79688 9.24219 2.99219 11.4297C3.22656 13.6172 6.07812 15.1016 9.39844 14.7891C12.6797 14.4375 15.1797 12.4453 14.9844 10.2578ZM14.5547 -0.09375C13.5781 0.101562 13.9297 1.58594 14.9062 1.39062C17.7188 0.804688 20.1797 3.46094 19.2422 6.23438C18.9688 7.17188 20.4141 7.67969 20.7266 6.70312C21.9766 2.79688 18.5781 -0.953125 14.5547 -0.09375ZM11.5078 12.0547C10.8438 13.5391 8.89062 14.3984 7.25 13.8516C5.64844 13.3438 4.98438 11.7422 5.6875 10.3359C6.35156 8.96875 8.14844 8.1875 9.71094 8.57812C11.3516 9.00781 12.1719 10.5312 11.5078 12.0547ZM8.14844 10.8828C7.64062 10.6484 6.97656 10.8828 6.66406 11.3516C6.3125 11.8594 6.46875 12.4453 6.97656 12.6797C7.48438 12.9141 8.1875 12.7188 8.5 12.2109C8.8125 11.6641 8.65625 11.0781 8.14844 10.8828ZM9.39844 10.3359C9.20312 10.2578 8.96875 10.375 8.85156 10.5703C8.73438 10.7656 8.8125 10.9609 9.00781 11.0391C9.20312 11.1172 9.4375 11.0391 9.55469 10.8438C9.67188 10.6484 9.59375 10.4141 9.39844 10.3359Z" fill="black"/>
</svg>
